  0
SECTION
  2
HEADER
  9
$ACADVER
  1
AC1012
  9
$DWGCODEPAGE
  3
undefined
  9
$INSBASE
 10
0.0
 20
0.0
 30
0.0
  9
$EXTMIN
 10
1.000000000000000E+20
 20
1.000000000000000E+20
 30
1.000000000000000E+20
  9
$EXTMAX
 10
-1.000000000000000E+20
 20
-1.000000000000000E+20
 30
-1.000000000000000E+20
  9
$LIMMIN
 10
0.0
 20
0.0
  9
$LIMMAX
 10
12.0
 20
9.0
  9
$ORTHOMODE
 70
     0
  9
$REGENMODE
 70
     1
  9
$FILLMODE
 70
     1
  9
$QTEXTMODE
 70
     0
  9
$MIRRTEXT
 70
     1
  9
$DRAGMODE
 70
     2
  9
$LTSCALE
 40
1.0
  9
$OSMODE
 70
    37
  9
$ATTMODE
 70
     1
  9
$TEXTSIZE
 40
0.2
  9
$TRACEWID
 40
0.05
  9
$TEXTSTYLE
  7
STANDARD
  9
$CLAYER
  8
0
  9
$CELTYPE
  6
BYLAYER
  9
$CECOLOR
 62
   256
  9
$CELTSCALE
 40
1.0
  9
$DELOBJ
 70
     1
  9
$DISPSILH
 70
     0
  9
$DIMSCALE
 40
1.0
  9
$DIMASZ
 40
0.18
  9
$DIMEXO
 40
0.0625
  9
$DIMDLI
 40
0.38
  9
$DIMRND
 40
0.0
  9
$DIMDLE
 40
0.0
  9
$DIMEXE
 40
0.18
  9
$DIMTP
 40
0.0
  9
$DIMTM
 40
0.0
  9
$DIMTXT
 40
0.18
  9
$DIMCEN
 40
0.09
  9
$DIMTSZ
 40
0.0
  9
$DIMTOL
 70
     0
  9
$DIMLIM
 70
     0
  9
$DIMTIH
 70
     1
  9
$DIMTOH
 70
     1
  9
$DIMSE1
 70
     0
  9
$DIMSE2
 70
     0
  9
$DIMTAD
 70
     0
  9
$DIMZIN
 70
     0
  9
$DIMBLK
  1

  9
$DIMASO
 70
     1
  9
$DIMSHO
 70
     1
  9
$DIMPOST
  1

  9
$DIMAPOST
  1

  9
$DIMALT
 70
     0
  9
$DIMALTD
 70
     2
  9
$DIMALTF
 40
25.4
  9
$DIMLFAC
 40
1.0
  9
$DIMTOFL
 70
     0
  9
$DIMTVP
 40
0.0
  9
$DIMTIX
 70
     0
  9
$DIMSOXD
 70
     0
  9
$DIMSAH
 70
     0
  9
$DIMBLK1
  1

  9
$DIMBLK2
  1

  9
$DIMSTYLE
  2
STANDARD
  9
$DIMCLRD
 70
     0
  9
$DIMCLRE
 70
     0
  9
$DIMCLRT
 70
     0
  9
$DIMTFAC
 40
1.0
  9
$DIMGAP
 40
0.09
  9
$DIMJUST
 70
     0
  9
$DIMSD1
 70
     0
  9
$DIMSD2
 70
     0
  9
$DIMTOLJ
 70
     1
  9
$DIMTZIN
 70
     0
  9
$DIMALTZ
 70
     0
  9
$DIMALTTZ
 70
     0
  9
$DIMFIT
 70
     3
  9
$DIMUPT
 70
     0
  9
$DIMUNIT
 70
     2
  9
$DIMDEC
 70
     4
  9
$DIMTDEC
 70
     4
  9
$DIMALTU
 70
     2
  9
$DIMALTTD
 70
     2
  9
$DIMTXSTY
  7
STANDARD
  9
$DIMAUNIT
 70
     0
  9
$LUNITS
 70
     2
  9
$LUPREC
 70
     4
  9
$SKETCHINC
 40
0.1
  9
$FILLETRAD
 40
0.5
  9
$AUNITS
 70
     0
  9
$AUPREC
 70
     0
  9
$MENU
  1
.
  9
$ELEVATION
 40
0.0
  9
$PELEVATION
 40
0.0
  9
$THICKNESS
 40
0.0
  9
$LIMCHECK
 70
     0
  9
$CHAMFERA
 40
0.5
  9
$CHAMFERB
 40
0.5
  9
$CHAMFERC
 40
1.0
  9
$CHAMFERD
 40
0.0
  9
$SKPOLY
 70
     0
  9
$TDCREATE
 40
2458090.67835647
  9
$TDUPDATE
 40
2458090.67835647
  9
$TDINDWG
 40
0.0000000116
  9
$TDUSRTIMER
 40
0.0000000116
  9
$USRTIMER
 70
     1
  9
$ANGBASE
 50
0.0
  9
$ANGDIR
 70
     0
  9
$PDMODE
 70
     0
  9
$PDSIZE
 40
0.0
  9
$PLINEWID
 40
0.0
  9
$COORDS
 70
     1
  9
$SPLFRAME
 70
     0
  9
$SPLINETYPE
 70
     6
  9
$SPLINESEGS
 70
     8
  9
$ATTDIA
 70
     0
  9
$ATTREQ
 70
     1
  9
$HANDLING
 70
     1
  9
$HANDSEED
  5
B0
  9
$SURFTAB1
 70
     6
  9
$SURFTAB2
 70
     6
  9
$SURFTYPE
 70
     6
  9
$SURFU
 70
     6
  9
$SURFV
 70
     6
  9
$UCSNAME
  2

  9
$UCSORG
 10
0.0
 20
0.0
 30
0.0
  9
$UCSXDIR
 10
1.0
 20
0.0
 30
0.0
  9
$UCSYDIR
 10
0.0
 20
1.0
 30
0.0
  9
$PUCSNAME
  2

  9
$PUCSORG
 10
0.0
 20
0.0
 30
0.0
  9
$PUCSXDIR
 10
1.0
 20
0.0
 30
0.0
  9
$PUCSYDIR
 10
0.0
 20
1.0
 30
0.0
  9
$USERI1
 70
     0
  9
$USERI2
 70
     0
  9
$USERI3
 70
     0
  9
$USERI4
 70
     0
  9
$USERI5
 70
     0
  9
$USERR1
 40
0.0
  9
$USERR2
 40
0.0
  9
$USERR3
 40
0.0
  9
$USERR4
 40
0.0
  9
$USERR5
 40
0.0
  9
$WORLDVIEW
 70
     1
  9
$SHADEDGE
 70
     3
  9
$SHADEDIF
 70
    70
  9
$TILEMODE
 70
     1
  9
$MAXACTVP
 70
    64
  9
$PINSBASE
 10
0.0
 20
0.0
 30
0.0
  9
$PLIMCHECK
 70
     0
  9
$PEXTMIN
 10
1.000000000000000E+20
 20
1.000000000000000E+20
 30
1.000000000000000E+20
  9
$PEXTMAX
 10
-1.000000000000000E+20
 20
-1.000000000000000E+20
 30
-1.000000000000000E+20
  9
$PLIMMIN
 10
0.0
 20
0.0
  9
$PLIMMAX
 10
12.0
 20
9.0
  9
$UNITMODE
 70
     0
  9
$VISRETAIN
 70
     1
  9
$PLINEGEN
 70
     0
  9
$PSLTSCALE
 70
     1
  9
$TREEDEPTH
 70
  3020
  9
$PICKSTYLE
 70
     1
  9
$CMLSTYLE
  2
STANDARD
  9
$CMLJUST
 70
     0
  9
$CMLSCALE
 40
1.0
  9
$SAVEIMAGES
 70
     1
  0
ENDSEC
  0
SECTION
  2
CLASSES
  0
CLASS
  1
ACDBDICTIONARYWDFLT
  2
AcDbDictionaryWithDefault
  3
ObjectDBX Classes
 90
    32768
280
     0
281
     0
  0
CLASS
  1
VISUALSTYLE
  2
AcDbVisualStyle
  3
ObjectDBX Classes
 90
     4095
280
     0
281
     0
  0
CLASS
  1
MATERIAL
  2
AcDbMaterial
  3
ObjectDBX Classes
 90
     1153
280
     0
281
     0
  0
CLASS
  1
SUN
  2
AcDbSun
  3
SCENEOE
 90
     1024
280
     0
281
     0
  0
CLASS
  1
DICTIONARYVAR
  2
AcDbDictionaryVar
  3
ObjectDBX Classes
 90
        0
280
     0
281
     0
  0
CLASS
  1
XRECORD
  2
AcDbXrecord
  3
AutoCAD 2000
 90
    32768
280
     0
281
     0
  0
CLASS
  1
LWPOLYLINE
  2
AcDbPolyline
  3
AutoCAD 2000
 90
    32768
280
     0
281
     1
  0
CLASS
  1
HATCH
  2
AcDbHatch
  3
AutoCAD 2000
 90
    32768
280
     0
281
     1
  0
CLASS
  1
ACDBPLACEHOLDER
  2
AcDbPlaceHolder
  3
ObjectDBX Classes
 90
        0
280
     0
281
     0
  0
CLASS
  1
LAYOUT
  2
AcDbLayout
  3
ObjectDBX Classes
 90
        0
280
     0
281
     0
  0
ENDSEC
  0
SECTION
  2
TABLES
  0
TABLE
  2
VPORT
  5
8
330
0
100
AcDbSymbolTable
 70
     1
  0
VPORT
  5
29
330
8
100
AcDbSymbolTableRecord
100
AcDbViewportTableRecord
  2
*ACTIVE
 70
     0
 10
0.0
 20
0.0
 11
1.0
 21
1.0
 12
0.0
 22
0.0
 13
0.0
 23
0.0
 14
0.5
 24
0.5
 15
0.5
 25
0.5
 16
0.0
 26
0.0
 36
1.0
 17
249.9994999375001
 27
-249.9994999375001
 37
0.0
 40
499.9989998750002
 41
1.0
 42
50.0
 43
0.0
 44
0.0
 50
0.0
 51
0.0
 71
     0
 72
   100
 73
     1
 74
     3
 75
     0
 76
     0
 77
     0
 78
     0
  0
ENDTAB
  0
TABLE
  2
LTYPE
  5
5
330
0
100
AcDbSymbolTable
 70
     1
  0
LTYPE
  5
14
330
5
100
AcDbSymbolTableRecord
100
AcDbLinetypeTableRecord
  2
BYBLOCK
 70
     0
  3

 72
    65
 73
     0
 40
0.0
  0
LTYPE
  5
15
330
5
100
AcDbSymbolTableRecord
100
AcDbLinetypeTableRecord
  2
BYLAYER
 70
     0
  3

 72
    65
 73
     0
 40
0.0
  0
LTYPE
  5
16
330
5
100
AcDbSymbolTableRecord
100
AcDbLinetypeTableRecord
  2
CONTINUOUS
 70
     0
  3
Solid line
 72
    65
 73
     0
 40
0.0
  0
ENDTAB
  0
TABLE
  2
LAYER
  5
2
330
0
100
AcDbSymbolTable
 70
     6
  0
LAYER
  5
10
330
2
100
AcDbSymbolTableRecord
100
AcDbLayerTableRecord
  2
0
 70
     0
 62
     7
  6
CONTINUOUS
  0
LAYER
  5
40
330
2
100
AcDbSymbolTableRecord
100
AcDbLayerTableRecord
  2
LAYER_6
 70
     5
 62
     7
  6
CONTINUOUS
  0
LAYER
  5
48
330
2
100
AcDbSymbolTableRecord
100
AcDbLayerTableRecord
  2
LAYER_8
 70
     4
 62
     7
  6
CONTINUOUS
  0
LAYER
  5
4A
330
2
100
AcDbSymbolTableRecord
100
AcDbLayerTableRecord
  2
LAYER_7
 70
     4
 62
     7
  6
CONTINUOUS
  0
LAYER
  5
55
330
2
100
AcDbSymbolTableRecord
100
AcDbLayerTableRecord
  2
LAYER_4
 70
     5
 62
     7
  6
CONTINUOUS
  0
LAYER
  5
9C
330
2
100
AcDbSymbolTableRecord
100
AcDbLayerTableRecord
  2
LAYER_5
 70
     5
 62
     7
  6
CONTINUOUS
  0
ENDTAB
  0
TABLE
  2
STYLE
  5
3
330
0
100
AcDbSymbolTable
 70
     1
  0
STYLE
  5
11
330
3
100
AcDbSymbolTableRecord
100
AcDbTextStyleTableRecord
  2
STANDARD
 70
     0
 40
0.0
 41
1.0
 50
0.0
 71
     0
 42
0.2
  3
txt
  4

  0
ENDTAB
  0
TABLE
  2
VIEW
  5
6
330
0
100
AcDbSymbolTable
 70
     0
  0
ENDTAB
  0
TABLE
  2
UCS
  5
7
330
0
100
AcDbSymbolTable
 70
     0
  0
ENDTAB
  0
TABLE
  2
APPID
  5
9
330
0
100
AcDbSymbolTable
 70
     1
  0
APPID
  5
12
330
9
100
AcDbSymbolTableRecord
100
AcDbRegAppTableRecord
  2
ACAD
 70
     0
  0
ENDTAB
  0
TABLE
  2
DIMSTYLE
  5
A
330
0
100
AcDbSymbolTable
 70
     1
  0
DIMSTYLE
105
27
330
A
100
AcDbSymbolTableRecord
100
AcDbDimStyleTableRecord
  2
STANDARD
 70
     0
  3

  4

  5

  6

  7

 40
1.0
 41
0.18
 42
0.0625
 43
0.38
 44
0.18
 45
0.0
 46
0.0
 47
0.0
 48
0.0
140
0.18
141
0.09
142
0.0
143
25.4
144
1.0
145
0.0
146
1.0
147
0.09
 71
     0
 72
     0
 73
     1
 74
     1
 75
     0
 76
     0
 77
     0
 78
     0
170
     0
171
     2
172
     0
173
     0
174
     0
175
     0
176
     0
177
     0
178
     0
270
     2
271
     4
272
     4
273
     2
274
     2
340
11
275
     0
280
     0
281
     0
282
     0
283
     1
284
     0
285
     0
286
     0
287
     3
288
     0
  0
ENDTAB
  0
TABLE
  2
BLOCK_RECORD
  5
1
330
0
100
AcDbSymbolTable
 70
     1
  0
BLOCK_RECORD
  5
1F
330
1
100
AcDbSymbolTableRecord
100
AcDbBlockTableRecord
  2
*MODEL_SPACE
  0
BLOCK_RECORD
  5
1B
330
1
100
AcDbSymbolTableRecord
100
AcDbBlockTableRecord
  2
*PAPER_SPACE
  0
ENDTAB
  0
ENDSEC
  0
SECTION
  2
BLOCKS
  0
BLOCK
  5
20
330
1F
100
AcDbEntity
  8
0
100
AcDbBlockBegin
  2
*MODEL_SPACE
 70
     0
 10
0.0
 20
0.0
 30
0.0
  3
*MODEL_SPACE
  1

  0
ENDBLK
  5
21
330
1F
100
AcDbEntity
  8
0
100
AcDbBlockEnd
  0
BLOCK
  5
1C
330
1B
100
AcDbEntity
 67
     1
  8
0
100
AcDbBlockBegin
  2
*PAPER_SPACE
 70
     0
 10
0.0
 20
0.0
 30
0.0
  3
*PAPER_SPACE
  1

  0
ENDBLK
  5
1D
330
1B
100
AcDbEntity
 67
     1
  8
0
100
AcDbBlockEnd
  0
ENDSEC
  0
SECTION
  2
ENTITIES
  0
POLYLINE
  5
41
330
1F
100
AcDbEntity
  8
LAYER_6
 62
     7
100
AcDb2dPolyline
 66
     1
 10
0.0
 20
0.0
 30
0.0
  0
VERTEX
  5
42
330
41
100
AcDbEntity
  8
LAYER_6
 62
     7
100
AcDbVertex
100
AcDb2dVertex
 10
325.9994999185001
 20
-304.9994999237498
 30
0.0
  0
VERTEX
  5
43
330
41
100
AcDbEntity
  8
LAYER_6
 62
     7
100
AcDbVertex
100
AcDb2dVertex
 10
173.9994999565
 20
-304.9994999237498
 30
0.0
  0
VERTEX
  5
44
330
41
100
AcDbEntity
  8
LAYER_6
 62
     7
100
AcDbVertex
100
AcDb2dVertex
 10
173.9994999565
 20
-194.9994999512501
 30
0.0
  0
VERTEX
  5
45
330
41
100
AcDbEntity
  8
LAYER_6
 62
     7
100
AcDbVertex
100
AcDb2dVertex
 10
325.9994999185001
 20
-194.9994999512501
 30
0.0
  0
VERTEX
  5
46
330
41
100
AcDbEntity
  8
LAYER_6
 62
     7
100
AcDbVertex
100
AcDb2dVertex
 10
325.9994999185001
 20
-304.9994999237498
 30
0.0
  0
SEQEND
  5
47
330
41
100
AcDbEntity
  8
LAYER_6
 62
     7
  0
SPLINE
  5
49
330
1F
100
AcDbEntity
  8
LAYER_8
 62
     7
100
AcDbSpline
210
0.0
220
0.0
230
1.0
 70
    11
 71
     3
 72
    29
 73
    25
 74
     0
 42
0.0000000001
 43
0.0000000001
 12
1.0
 22
0.0
 32
0.0
 13
1.0
 23
0.0
 33
0.0
 40
0.0
 40
0.0
 40
0.0
 40
0.0
 40
1.0
 40
1.0
 40
1.0
 40
2.0
 40
2.0
 40
2.0
 40
3.0
 40
3.0
 40
3.0
 40
4.0
 40
4.0
 40
4.0
 40
5.0
 40
5.0
 40
5.0
 40
6.0
 40
6.0
 40
6.0
 40
7.0
 40
7.0
 40
7.0
 40
8.0
 40
8.0
 40
8.0
 40
8.0
 10
321.7661665862252
 20
-304.9994999237498
 30
0.0
 10
321.7661665862252
 20
-304.9994999237498
 30
0.0
 10
178.232833288775
 20
-304.9994999237498
 30
0.0
 10
178.232833288775
 20
-304.9994999237498
 30
0.0
 10
175.9044999560237
 20
-304.9994999237498
 30
0.0
 10
173.9994999565
 20
-303.0944999242262
 30
0.0
 10
173.9994999565
 20
-300.7661665914748
 30
0.0
 10
173.9994999565
 20
-300.7661665914748
 30
0.0
 10
173.9994999565
 20
-199.2328332835251
 30
0.0
 10
173.9994999565
 20
-199.2328332835251
 30
0.0
 10
173.9994999565
 20
-196.9044999507737
 30
0.0
 10
175.9044999560237
 20
-194.9994999512501
 30
0.0
 10
178.232833288775
 20
-194.9994999512501
 30
0.0
 10
178.232833288775
 20
-194.9994999512501
 30
0.0
 10
321.7661665862252
 20
-194.9994999512501
 30
0.0
 10
321.7661665862252
 20
-194.9994999512501
 30
0.0
 10
324.0944999189765
 20
-194.9994999512501
 30
0.0
 10
325.9994999185001
 20
-196.904499950774
 30
0.0
 10
325.9994999185001
 20
-199.2328332835251
 30
0.0
 10
325.9994999185001
 20
-199.2328332835251
 30
0.0
 10
325.9994999185001
 20
-300.7661665914748
 30
0.0
 10
325.9994999185001
 20
-300.7661665914748
 30
0.0
 10
325.9994999185001
 20
-303.0944999242262
 30
0.0
 10
324.0944999189765
 20
-304.9994999237498
 30
0.0
 10
321.7661665862252
 20
-304.9994999237498
 30
0.0
  0
SPLINE
  5
4B
330
1F
100
AcDbEntity
  8
LAYER_7
 62
     7
100
AcDbSpline
210
0.0
220
0.0
230
1.0
 70
    11
 71
     3
 72
    17
 73
    13
 74
     0
 42
0.0000000001
 43
0.0000000001
 12
1.0
 22
0.0
 32
0.0
 13
1.0
 23
0.0
 33
0.0
 40
0.0
 40
0.0
 40
0.0
 40
0.0
 40
1.0
 40
1.0
 40
1.0
 40
2.0
 40
2.0
 40
2.0
 40
3.0
 40
3.0
 40
3.0
 40
4.0
 40
4.0
 40
4.0
 40
4.0
 10
316.4994999208751
 20
-295.3294999261671
 30
0.0
 10
316.4994999208751
 20
-296.710211800322
 30
0.0
 10
315.3802117956545
 20
-297.8294999255419
 30
0.0
 10
313.9994999214996
 20
-297.8294999255419
 30
0.0
 10
312.6187880473448
 20
-297.8294999255419
 30
0.0
 10
311.4994999221242
 20
-296.710211800322
 30
0.0
 10
311.4994999221242
 20
-295.3294999261671
 30
0.0
 10
311.4994999221242
 20
-293.9487880520123
 30
0.0
 10
312.6187880473448
 20
-292.8294999267924
 30
0.0
 10
313.9994999214996
 20
-292.8294999267924
 30
0.0
 10
315.3802117956545
 20
-292.8294999267924
 30
0.0
 10
316.4994999208751
 20
-293.9487880520123
 30
0.0
 10
316.4994999208751
 20
-295.3294999261671
 30
0.0
  0
SPLINE
  5
4C
330
1F
100
AcDbEntity
  8
LAYER_7
 62
     7
100
AcDbSpline
210
0.0
220
0.0
230
1.0
 70
    11
 71
     3
 72
    17
 73
    13
 74
     0
 42
0.0000000001
 43
0.0000000001
 12
1.0
 22
0.0
 32
0.0
 13
1.0
 23
0.0
 33
0.0
 40
0.0
 40
0.0
 40
0.0
 40
0.0
 40
1.0
 40
1.0
 40
1.0
 40
2.0
 40
2.0
 40
2.0
 40
3.0
 40
3.0
 40
3.0
 40
4.0
 40
4.0
 40
4.0
 40
4.0
 10
189.5594999526098
 20
-204.6694999488327
 30
0.0
 10
189.5594999526098
 20
-206.6356336576293
 30
0.0
 10
187.9656336622965
 20
-208.2294999479427
 30
0.0
 10
185.9994999534999
 20
-208.2294999479427
 30
0.0
 10
184.0333662447036
 20
-208.2294999479427
 30
0.0
 10
182.4394999543899
 20
-206.6356336576293
 30
0.0
 10
182.4394999543899
 20
-204.6694999488327
 30
0.0
 10
182.4394999543899
 20
-202.7033662400364
 30
0.0
 10
184.0333662447036
 20
-201.1094999497228
 30
0.0
 10
185.9994999534999
 20
-201.1094999497228
 30
0.0
 10
187.9656336622965
 20
-201.1094999497228
 30
0.0
 10
189.5594999526098
 20
-202.7033662400364
 30
0.0
 10
189.5594999526098
 20
-204.6694999488327
 30
0.0
  0
SPLINE
  5
4D
330
1F
100
AcDbEntity
  8
LAYER_7
 62
     7
100
AcDbSpline
210
0.0
220
0.0
230
1.0
 70
    11
 71
     3
 72
    17
 73
    13
 74
     0
 42
0.0000000001
 43
0.0000000001
 12
1.0
 22
0.0
 32
0.0
 13
1.0
 23
0.0
 33
0.0
 40
0.0
 40
0.0
 40
0.0
 40
0.0
 40
1.0
 40
1.0
 40
1.0
 40
2.0
 40
2.0
 40
2.0
 40
3.0
 40
3.0
 40
3.0
 40
4.0
 40
4.0
 40
4.0
 40
4.0
 10
317.5594999206096
 20
-204.6694999488327
 30
0.0
 10
317.5594999206096
 20
-206.635633657629
 30
0.0
 10
315.9656336302959
 20
-208.229499947942
 30
0.0
 10
313.9994999214996
 20
-208.229499947942
 30
0.0
 10
312.0333662127034
 20
-208.229499947942
 30
0.0
 10
310.4394999223897
 20
-206.635633657629
 30
0.0
 10
310.4394999223897
 20
-204.6694999488327
 30
0.0
 10
310.4394999223897
 20
-202.7033662400361
 30
0.0
 10
312.0333662127034
 20
-201.1094999497224
 30
0.0
 10
313.9994999214996
 20
-201.1094999497224
 30
0.0
 10
315.9656336302959
 20
-201.1094999497224
 30
0.0
 10
317.5594999206096
 20
-202.7033662400361
 30
0.0
 10
317.5594999206096
 20
-204.6694999488327
 30
0.0
  0
SPLINE
  5
4E
330
1F
100
AcDbEntity
  8
LAYER_7
 62
     7
100
AcDbSpline
210
0.0
220
0.0
230
1.0
 70
    11
 71
     3
 72
    17
 73
    13
 74
     0
 42
0.0000000001
 43
0.0000000001
 12
1.0
 22
0.0
 32
0.0
 13
1.0
 23
0.0
 33
0.0
 40
0.0
 40
0.0
 40
0.0
 40
0.0
 40
1.0
 40
1.0
 40
1.0
 40
2.0
 40
2.0
 40
2.0
 40
3.0
 40
3.0
 40
3.0
 40
4.0
 40
4.0
 40
4.0
 40
4.0
 10
298.8894999252777
 20
-204.669499948833
 30
0.0
 10
298.8894999252777
 20
-206.6356336576293
 30
0.0
 10
297.2956336349641
 20
-208.2294999479424
 30
0.0
 10
295.3294999261678
 20
-208.2294999479424
 30
0.0
 10
293.3633662173715
 20
-208.2294999479424
 30
0.0
 10
291.7694999270578
 20
-206.6356336576293
 30
0.0
 10
291.7694999270578
 20
-204.669499948833
 30
0.0
 10
291.7694999270578
 20
-202.7033662400364
 30
0.0
 10
293.3633662173715
 20
-201.1094999497228
 30
0.0
 10
295.3294999261678
 20
-201.1094999497228
 30
0.0
 10
297.2956336349641
 20
-201.1094999497228
 30
0.0
 10
298.8894999252777
 20
-202.7033662400364
 30
0.0
 10
298.8894999252777
 20
-204.669499948833
 30
0.0
  0
SPLINE
  5
4F
330
1F
100
AcDbEntity
  8
LAYER_7
 62
     7
100
AcDbSpline
210
0.0
220
0.0
230
1.0
 70
    11
 71
     3
 72
    17
 73
    13
 74
     0
 42
0.0000000001
 43
0.0000000001
 12
1.0
 22
0.0
 32
0.0
 13
1.0
 23
0.0
 33
0.0
 40
0.0
 40
0.0
 40
0.0
 40
0.0
 40
1.0
 40
1.0
 40
1.0
 40
2.0
 40
2.0
 40
2.0
 40
3.0
 40
3.0
 40
3.0
 40
4.0
 40
4.0
 40
4.0
 40
4.0
 10
298.8894999252777
 20
-295.3294999261671
 30
0.0
 10
298.8894999252777
 20
-297.2956336349634
 30
0.0
 10
297.2956336349641
 20
-298.8894999252764
 30
0.0
 10
295.3294999261678
 20
-298.8894999252764
 30
0.0
 10
293.3633662173715
 20
-298.8894999252764
 30
0.0
 10
291.7694999270578
 20
-297.2956336349634
 30
0.0
 10
291.7694999270578
 20
-295.3294999261671
 30
0.0
 10
291.7694999270578
 20
-293.3633662173709
 30
0.0
 10
293.3633662173715
 20
-291.7694999270572
 30
0.0
 10
295.3294999261678
 20
-291.7694999270572
 30
0.0
 10
297.2956336349641
 20
-291.7694999270572
 30
0.0
 10
298.8894999252777
 20
-293.3633662173709
 30
0.0
 10
298.8894999252777
 20
-295.3294999261671
 30
0.0
  0
SPLINE
  5
50
330
1F
100
AcDbEntity
  8
LAYER_7
 62
     7
100
AcDbSpline
210
0.0
220
0.0
230
1.0
 70
    11
 71
     3
 72
    17
 73
    13
 74
     0
 42
0.0000000001
 43
0.0000000001
 12
1.0
 22
0.0
 32
0.0
 13
1.0
 23
0.0
 33
0.0
 40
0.0
 40
0.0
 40
0.0
 40
0.0
 40
1.0
 40
1.0
 40
1.0
 40
2.0
 40
2.0
 40
2.0
 40
3.0
 40
3.0
 40
3.0
 40
4.0
 40
4.0
 40
4.0
 40
4.0
 10
241.4994999396254
 20
-238.99949994025
 30
0.0
 10
241.4994999396254
 20
-240.3802118144048
 30
0.0
 10
240.3802118144048
 20
-241.4994999396248
 30
0.0
 10
238.99949994025
 20
-241.4994999396248
 30
0.0
 10
237.6187880660952
 20
-241.4994999396248
 30
0.0
 10
236.4994999408746
 20
-240.3802118144048
 30
0.0
 10
236.4994999408746
 20
-238.99949994025
 30
0.0
 10
236.4994999408746
 20
-237.6187880660952
 30
0.0
 10
237.6187880660952
 20
-236.4994999408753
 30
0.0
 10
238.99949994025
 20
-236.4994999408753
 30
0.0
 10
240.3802118144048
 20
-236.4994999408753
 30
0.0
 10
241.4994999396254
 20
-237.6187880660952
 30
0.0
 10
241.4994999396254
 20
-238.99949994025
 30
0.0
  0
SPLINE
  5
51
330
1F
100
AcDbEntity
  8
LAYER_7
 62
     7
100
AcDbSpline
210
0.0
220
0.0
230
1.0
 70
    11
 71
     3
 72
    17
 73
    13
 74
     0
 42
0.0000000001
 43
0.0000000001
 12
1.0
 22
0.0
 32
0.0
 13
1.0
 23
0.0
 33
0.0
 40
0.0
 40
0.0
 40
0.0
 40
0.0
 40
1.0
 40
1.0
 40
1.0
 40
2.0
 40
2.0
 40
2.0
 40
3.0
 40
3.0
 40
3.0
 40
4.0
 40
4.0
 40
4.0
 40
4.0
 10
207.1694999482081
 20
-295.3294999261671
 30
0.0
 10
207.1694999482081
 20
-296.710211800322
 30
0.0
 10
206.0502118229875
 20
-297.8294999255419
 30
0.0
 10
204.6694999488327
 20
-297.8294999255419
 30
0.0
 10
203.2887880746779
 20
-297.8294999255419
 30
0.0
 10
202.1694999494573
 20
-296.710211800322
 30
0.0
 10
202.1694999494573
 20
-295.3294999261671
 30
0.0
 10
202.1694999494573
 20
-293.9487880520123
 30
0.0
 10
203.2887880746779
 20
-292.8294999267924
 30
0.0
 10
204.6694999488327
 20
-292.8294999267924
 30
0.0
 10
206.0502118229875
 20
-292.8294999267924
 30
0.0
 10
207.1694999482081
 20
-293.9487880520123
 30
0.0
 10
207.1694999482081
 20
-295.3294999261671
 30
0.0
  0
SPLINE
  5
52
330
1F
100
AcDbEntity
  8
LAYER_7
 62
     7
100
AcDbSpline
210
0.0
220
0.0
230
1.0
 70
    11
 71
     3
 72
    17
 73
    13
 74
     0
 42
0.0000000001
 43
0.0000000001
 12
1.0
 22
0.0
 32
0.0
 13
1.0
 23
0.0
 33
0.0
 40
0.0
 40
0.0
 40
0.0
 40
0.0
 40
1.0
 40
1.0
 40
1.0
 40
2.0
 40
2.0
 40
2.0
 40
3.0
 40
3.0
 40
3.0
 40
4.0
 40
4.0
 40
4.0
 40
4.0
 10
207.1694999482081
 20
-204.6694999488327
 30
0.0
 10
207.1694999482081
 20
-206.0502118229875
 30
0.0
 10
206.0502118229875
 20
-207.1694999482075
 30
0.0
 10
204.6694999488327
 20
-207.1694999482075
 30
0.0
 10
203.2887880746779
 20
-207.1694999482075
 30
0.0
 10
202.1694999494573
 20
-206.0502118229875
 30
0.0
 10
202.1694999494573
 20
-204.6694999488327
 30
0.0
 10
202.1694999494573
 20
-203.2887880746779
 30
0.0
 10
203.2887880746779
 20
-202.169499949458
 30
0.0
 10
204.6694999488327
 20
-202.169499949458
 30
0.0
 10
206.0502118229875
 20
-202.169499949458
 30
0.0
 10
207.1694999482081
 20
-203.2887880746779
 30
0.0
 10
207.1694999482081
 20
-204.6694999488327
 30
0.0
  0
SPLINE
  5
53
330
1F
100
AcDbEntity
  8
LAYER_7
 62
     7
100
AcDbSpline
210
0.0
220
0.0
230
1.0
 70
    11
 71
     3
 72
    17
 73
    13
 74
     0
 42
0.0000000001
 43
0.0000000001
 12
1.0
 22
0.0
 32
0.0
 13
1.0
 23
0.0
 33
0.0
 40
0.0
 40
0.0
 40
0.0
 40
0.0
 40
1.0
 40
1.0
 40
1.0
 40
2.0
 40
2.0
 40
2.0
 40
3.0
 40
3.0
 40
3.0
 40
4.0
 40
4.0
 40
4.0
 40
4.0
 10
188.4994999528753
 20
-295.3294999261671
 30
0.0
 10
188.4994999528753
 20
-296.710211800322
 30
0.0
 10
187.3802118276547
 20
-297.8294999255413
 30
0.0
 10
185.9994999534999
 20
-297.8294999255413
 30
0.0
 10
184.6187880793451
 20
-297.8294999255413
 30
0.0
 10
183.4994999541245
 20
-296.710211800322
 30
0.0
 10
183.4994999541245
 20
-295.3294999261671
 30
0.0
 10
183.4994999541245
 20
-293.9487880520123
 30
0.0
 10
184.6187880793451
 20
-292.8294999267918
 30
0.0
 10
185.9994999534999
 20
-292.8294999267918
 30
0.0
 10
187.3802118276547
 20
-292.8294999267918
 30
0.0
 10
188.4994999528753
 20
-293.9487880520123
 30
0.0
 10
188.4994999528753
 20
-295.3294999261671
 30
0.0
  0
SPLINE
  5
54
330
1F
100
AcDbEntity
  8
LAYER_7
 62
     7
100
AcDbSpline
210
0.0
220
0.0
230
1.0
 70
    11
 71
     3
 72
    17
 73
    13
 74
     0
 42
0.0000000001
 43
0.0000000001
 12
1.0
 22
0.0
 32
0.0
 13
1.0
 23
0.0
 33
0.0
 40
0.0
 40
0.0
 40
0.0
 40
0.0
 40
1.0
 40
1.0
 40
1.0
 40
2.0
 40
2.0
 40
2.0
 40
3.0
 40
3.0
 40
3.0
 40
4.0
 40
4.0
 40
4.0
 40
4.0
 10
263.4994999341249
 20
-260.9994999347501
 30
0.0
 10
263.4994999341249
 20
-262.380211808905
 30
0.0
 10
262.3802118089043
 20
-263.4994999341249
 30
0.0
 10
260.9994999347495
 20
-263.4994999341249
 30
0.0
 10
259.6187880605947
 20
-263.4994999341249
 30
0.0
 10
258.4994999353741
 20
-262.380211808905
 30
0.0
 10
258.4994999353741
 20
-260.9994999347501
 30
0.0
 10
258.4994999353741
 20
-259.6187880605953
 30
0.0
 10
259.6187880605947
 20
-258.4994999353754
 30
0.0
 10
260.9994999347495
 20
-258.4994999353754
 30
0.0
 10
262.3802118089043
 20
-258.4994999353754
 30
0.0
 10
263.4994999341249
 20
-259.6187880605953
 30
0.0
 10
263.4994999341249
 20
-260.9994999347501
 30
0.0
  0
POLYLINE
  5
56
330
1F
100
AcDbEntity
  8
LAYER_4
 62
     7
100
AcDb2dPolyline
 66
     1
 10
0.0
 20
0.0
 30
0.0
  0
VERTEX
  5
57
330
56
100
AcDbEntity
  8
LAYER_4
 62
     7
100
AcDbVertex
100
AcDb2dVertex
 10
249.9994999375001
 20
-249.9994999375001
 30
0.0
  0
VERTEX
  5
58
330
56
100
AcDbEntity
  8
LAYER_4
 62
     7
100
AcDbVertex
100
AcDb2dVertex
 10
238.99949994025
 20
-249.9994999375001
 30
0.0
  0
VERTEX
  5
59
330
56
100
AcDbEntity
  8
LAYER_4
 62
     7
100
AcDbVertex
100
AcDb2dVertex
 10
238.99949994025
 20
-238.99949994025
 30
0.0
  0
VERTEX
  5
5A
330
56
100
AcDbEntity
  8
LAYER_4
 62
     7
100
AcDbVertex
100
AcDb2dVertex
 10
249.9994999375001
 20
-238.99949994025
 30
0.0
  0
VERTEX
  5
5B
330
56
100
AcDbEntity
  8
LAYER_4
 62
     7
100
AcDbVertex
100
AcDb2dVertex
 10
249.9994999375001
 20
-249.9994999375001
 30
0.0
  0
SEQEND
  5
5C
330
56
100
AcDbEntity
  8
LAYER_4
 62
     7
  0
POLYLINE
  5
5D
330
1F
100
AcDbEntity
  8
LAYER_4
 62
     7
100
AcDb2dPolyline
 66
     1
 10
0.0
 20
0.0
 30
0.0
  0
VERTEX
  5
5E
330
5D
100
AcDbEntity
  8
LAYER_4
 62
     7
100
AcDbVertex
100
AcDb2dVertex
 10
249.9994999375001
 20
-249.9994999375001
 30
0.0
  0
VERTEX
  5
5F
330
5D
100
AcDbEntity
  8
LAYER_4
 62
     7
100
AcDbVertex
100
AcDb2dVertex
 10
204.6694999488327
 20
-249.9994999375001
 30
0.0
  0
VERTEX
  5
60
330
5D
100
AcDbEntity
  8
LAYER_4
 62
     7
100
AcDbVertex
100
AcDb2dVertex
 10
204.6694999488327
 20
-204.6694999488327
 30
0.0
  0
VERTEX
  5
61
330
5D
100
AcDbEntity
  8
LAYER_4
 62
     7
100
AcDbVertex
100
AcDb2dVertex
 10
249.9994999375001
 20
-204.6694999488327
 30
0.0
  0
VERTEX
  5
62
330
5D
100
AcDbEntity
  8
LAYER_4
 62
     7
100
AcDbVertex
100
AcDb2dVertex
 10
249.9994999375001
 20
-249.9994999375001
 30
0.0
  0
SEQEND
  5
63
330
5D
100
AcDbEntity
  8
LAYER_4
 62
     7
  0
POLYLINE
  5
64
330
1F
100
AcDbEntity
  8
LAYER_4
 62
     7
100
AcDb2dPolyline
 66
     1
 10
0.0
 20
0.0
 30
0.0
  0
VERTEX
  5
65
330
64
100
AcDbEntity
  8
LAYER_4
 62
     7
100
AcDbVertex
100
AcDb2dVertex
 10
313.9994999214996
 20
-249.9994999375001
 30
0.0
  0
VERTEX
  5
66
330
64
100
AcDbEntity
  8
LAYER_4
 62
     7
100
AcDbVertex
100
AcDb2dVertex
 10
249.9994999374998
 20
-249.9994999375001
 30
0.0
  0
VERTEX
  5
67
330
64
100
AcDbEntity
  8
LAYER_4
 62
     7
100
AcDbVertex
100
AcDb2dVertex
 10
249.9994999374998
 20
-204.6694999488327
 30
0.0
  0
VERTEX
  5
68
330
64
100
AcDbEntity
  8
LAYER_4
 62
     7
100
AcDbVertex
100
AcDb2dVertex
 10
313.9994999214996
 20
-204.6694999488327
 30
0.0
  0
VERTEX
  5
69
330
64
100
AcDbEntity
  8
LAYER_4
 62
     7
100
AcDbVertex
100
AcDb2dVertex
 10
313.9994999214996
 20
-249.9994999375001
 30
0.0
  0
SEQEND
  5
6A
330
64
100
AcDbEntity
  8
LAYER_4
 62
     7
  0
POLYLINE
  5
6B
330
1F
100
AcDbEntity
  8
LAYER_4
 62
     7
100
AcDb2dPolyline
 66
     1
 10
0.0
 20
0.0
 30
0.0
  0
VERTEX
  5
6C
330
6B
100
AcDbEntity
  8
LAYER_4
 62
     7
100
AcDbVertex
100
AcDb2dVertex
 10
260.9994999347495
 20
-260.9994999347501
 30
0.0
  0
VERTEX
  5
6D
330
6B
100
AcDbEntity
  8
LAYER_4
 62
     7
100
AcDbVertex
100
AcDb2dVertex
 10
249.9994999374998
 20
-260.9994999347501
 30
0.0
  0
VERTEX
  5
6E
330
6B
100
AcDbEntity
  8
LAYER_4
 62
     7
100
AcDbVertex
100
AcDb2dVertex
 10
249.9994999374998
 20
-249.9994999375001
 30
0.0
  0
VERTEX
  5
6F
330
6B
100
AcDbEntity
  8
LAYER_4
 62
     7
100
AcDbVertex
100
AcDb2dVertex
 10
260.9994999347495
 20
-249.9994999375001
 30
0.0
  0
VERTEX
  5
70
330
6B
100
AcDbEntity
  8
LAYER_4
 62
     7
100
AcDbVertex
100
AcDb2dVertex
 10
260.9994999347495
 20
-260.9994999347501
 30
0.0
  0
SEQEND
  5
71
330
6B
100
AcDbEntity
  8
LAYER_4
 62
     7
  0
POLYLINE
  5
72
330
1F
100
AcDbEntity
  8
LAYER_4
 62
     7
100
AcDb2dPolyline
 66
     1
 10
0.0
 20
0.0
 30
0.0
  0
VERTEX
  5
73
330
72
100
AcDbEntity
  8
LAYER_4
 62
     7
100
AcDbVertex
100
AcDb2dVertex
 10
249.9994999374998
 20
-295.3294999261671
 30
0.0
  0
VERTEX
  5
74
330
72
100
AcDbEntity
  8
LAYER_4
 62
     7
100
AcDbVertex
100
AcDb2dVertex
 10
185.9994999534999
 20
-295.3294999261671
 30
0.0
  0
VERTEX
  5
75
330
72
100
AcDbEntity
  8
LAYER_4
 62
     7
100
AcDbVertex
100
AcDb2dVertex
 10
185.9994999534999
 20
-249.9994999374998
 30
0.0
  0
VERTEX
  5
76
330
72
100
AcDbEntity
  8
LAYER_4
 62
     7
100
AcDbVertex
100
AcDb2dVertex
 10
249.9994999374998
 20
-249.9994999374998
 30
0.0
  0
VERTEX
  5
77
330
72
100
AcDbEntity
  8
LAYER_4
 62
     7
100
AcDbVertex
100
AcDb2dVertex
 10
249.9994999374998
 20
-295.3294999261671
 30
0.0
  0
SEQEND
  5
78
330
72
100
AcDbEntity
  8
LAYER_4
 62
     7
  0
POLYLINE
  5
79
330
1F
100
AcDbEntity
  8
LAYER_4
 62
     7
100
AcDb2dPolyline
 66
     1
 10
0.0
 20
0.0
 30
0.0
  0
VERTEX
  5
7A
330
79
100
AcDbEntity
  8
LAYER_4
 62
     7
100
AcDbVertex
100
AcDb2dVertex
 10
313.9994999214996
 20
-295.3294999261671
 30
0.0
  0
VERTEX
  5
7B
330
79
100
AcDbEntity
  8
LAYER_4
 62
     7
100
AcDbVertex
100
AcDb2dVertex
 10
249.9994999374998
 20
-295.3294999261671
 30
0.0
  0
VERTEX
  5
7C
330
79
100
AcDbEntity
  8
LAYER_4
 62
     7
100
AcDbVertex
100
AcDb2dVertex
 10
249.9994999374998
 20
-249.9994999374998
 30
0.0
  0
VERTEX
  5
7D
330
79
100
AcDbEntity
  8
LAYER_4
 62
     7
100
AcDbVertex
100
AcDb2dVertex
 10
313.9994999214996
 20
-249.9994999374998
 30
0.0
  0
VERTEX
  5
7E
330
79
100
AcDbEntity
  8
LAYER_4
 62
     7
100
AcDbVertex
100
AcDb2dVertex
 10
313.9994999214996
 20
-295.3294999261671
 30
0.0
  0
SEQEND
  5
7F
330
79
100
AcDbEntity
  8
LAYER_4
 62
     7
  0
POLYLINE
  5
80
330
1F
100
AcDbEntity
  8
LAYER_4
 62
     7
100
AcDb2dPolyline
 66
     1
 10
0.0
 20
0.0
 30
0.0
  0
VERTEX
  5
81
330
80
100
AcDbEntity
  8
LAYER_4
 62
     7
100
AcDbVertex
100
AcDb2dVertex
 10
249.9994999374998
 20
-249.9994999375001
 30
0.0
  0
VERTEX
  5
82
330
80
100
AcDbEntity
  8
LAYER_4
 62
     7
100
AcDbVertex
100
AcDb2dVertex
 10
185.9994999534999
 20
-249.9994999375001
 30
0.0
  0
VERTEX
  5
83
330
80
100
AcDbEntity
  8
LAYER_4
 62
     7
100
AcDbVertex
100
AcDb2dVertex
 10
185.9994999534999
 20
-204.6694999488327
 30
0.0
  0
VERTEX
  5
84
330
80
100
AcDbEntity
  8
LAYER_4
 62
     7
100
AcDbVertex
100
AcDb2dVertex
 10
249.9994999374998
 20
-204.6694999488327
 30
0.0
  0
VERTEX
  5
85
330
80
100
AcDbEntity
  8
LAYER_4
 62
     7
100
AcDbVertex
100
AcDb2dVertex
 10
249.9994999374998
 20
-249.9994999375001
 30
0.0
  0
SEQEND
  5
86
330
80
100
AcDbEntity
  8
LAYER_4
 62
     7
  0
POLYLINE
  5
87
330
1F
100
AcDbEntity
  8
LAYER_4
 62
     7
100
AcDb2dPolyline
 66
     1
 10
0.0
 20
0.0
 30
0.0
  0
VERTEX
  5
88
330
87
100
AcDbEntity
  8
LAYER_4
 62
     7
100
AcDbVertex
100
AcDb2dVertex
 10
249.9994999375001
 20
-295.3294999261671
 30
0.0
  0
VERTEX
  5
89
330
87
100
AcDbEntity
  8
LAYER_4
 62
     7
100
AcDbVertex
100
AcDb2dVertex
 10
204.6694999488327
 20
-295.3294999261671
 30
0.0
  0
VERTEX
  5
8A
330
87
100
AcDbEntity
  8
LAYER_4
 62
     7
100
AcDbVertex
100
AcDb2dVertex
 10
204.6694999488327
 20
-249.9994999375001
 30
0.0
  0
VERTEX
  5
8B
330
87
100
AcDbEntity
  8
LAYER_4
 62
     7
100
AcDbVertex
100
AcDb2dVertex
 10
249.9994999375001
 20
-249.9994999375001
 30
0.0
  0
VERTEX
  5
8C
330
87
100
AcDbEntity
  8
LAYER_4
 62
     7
100
AcDbVertex
100
AcDb2dVertex
 10
249.9994999375001
 20
-295.3294999261671
 30
0.0
  0
SEQEND
  5
8D
330
87
100
AcDbEntity
  8
LAYER_4
 62
     7
  0
POLYLINE
  5
8E
330
1F
100
AcDbEntity
  8
LAYER_4
 62
     7
100
AcDb2dPolyline
 66
     1
 10
0.0
 20
0.0
 30
0.0
  0
VERTEX
  5
8F
330
8E
100
AcDbEntity
  8
LAYER_4
 62
     7
100
AcDbVertex
100
AcDb2dVertex
 10
295.3294999261678
 20
-249.9994999375001
 30
0.0
  0
VERTEX
  5
90
330
8E
100
AcDbEntity
  8
LAYER_4
 62
     7
100
AcDbVertex
100
AcDb2dVertex
 10
249.9994999375004
 20
-249.9994999375001
 30
0.0
  0
VERTEX
  5
91
330
8E
100
AcDbEntity
  8
LAYER_4
 62
     7
100
AcDbVertex
100
AcDb2dVertex
 10
249.9994999375004
 20
-204.6694999488327
 30
0.0
  0
VERTEX
  5
92
330
8E
100
AcDbEntity
  8
LAYER_4
 62
     7
100
AcDbVertex
100
AcDb2dVertex
 10
295.3294999261678
 20
-204.6694999488327
 30
0.0
  0
VERTEX
  5
93
330
8E
100
AcDbEntity
  8
LAYER_4
 62
     7
100
AcDbVertex
100
AcDb2dVertex
 10
295.3294999261678
 20
-249.9994999375001
 30
0.0
  0
SEQEND
  5
94
330
8E
100
AcDbEntity
  8
LAYER_4
 62
     7
  0
POLYLINE
  5
95
330
1F
100
AcDbEntity
  8
LAYER_4
 62
     7
100
AcDb2dPolyline
 66
     1
 10
0.0
 20
0.0
 30
0.0
  0
VERTEX
  5
96
330
95
100
AcDbEntity
  8
LAYER_4
 62
     7
100
AcDbVertex
100
AcDb2dVertex
 10
295.3294999261678
 20
-295.3294999261671
 30
0.0
  0
VERTEX
  5
97
330
95
100
AcDbEntity
  8
LAYER_4
 62
     7
100
AcDbVertex
100
AcDb2dVertex
 10
249.9994999375004
 20
-295.3294999261671
 30
0.0
  0
VERTEX
  5
98
330
95
100
AcDbEntity
  8
LAYER_4
 62
     7
100
AcDbVertex
100
AcDb2dVertex
 10
249.9994999375004
 20
-249.9994999374998
 30
0.0
  0
VERTEX
  5
99
330
95
100
AcDbEntity
  8
LAYER_4
 62
     7
100
AcDbVertex
100
AcDb2dVertex
 10
295.3294999261678
 20
-249.9994999374998
 30
0.0
  0
VERTEX
  5
9A
330
95
100
AcDbEntity
  8
LAYER_4
 62
     7
100
AcDbVertex
100
AcDb2dVertex
 10
295.3294999261678
 20
-295.3294999261671
 30
0.0
  0
SEQEND
  5
9B
330
95
100
AcDbEntity
  8
LAYER_4
 62
     7
  0
POLYLINE
  5
9D
330
1F
100
AcDbEntity
  8
LAYER_5
 62
     7
100
AcDb2dPolyline
 66
     1
 10
0.0
 20
0.0
 30
0.0
  0
VERTEX
  5
9E
330
9D
100
AcDbEntity
  8
LAYER_5
 62
     7
100
AcDbVertex
100
AcDb2dVertex
 10
25.19013180198105
 20
-249.9994999375001
 30
0.0
  0
VERTEX
  5
9F
330
9D
100
AcDbEntity
  8
LAYER_5
 62
     7
100
AcDbVertex
100
AcDb2dVertex
 10
474.8088680730191
 20
-249.9994999375001
 30
0.0
  0
SEQEND
  5
A0
330
9D
100
AcDbEntity
  8
LAYER_5
 62
     7
  0
POLYLINE
  5
A1
330
1F
100
AcDbEntity
  8
LAYER_5
 62
     7
100
AcDb2dPolyline
 66
     1
 10
0.0
 20
0.0
 30
0.0
  0
VERTEX
  5
A2
330
A1
100
AcDbEntity
  8
LAYER_5
 62
     7
100
AcDbVertex
100
AcDb2dVertex
 10
249.9994999375001
 20
-56.8294564128077
 30
0.0
  0
VERTEX
  5
A3
330
A1
100
AcDbEntity
  8
LAYER_5
 62
     7
100
AcDbVertex
100
AcDb2dVertex
 10
249.9994999375001
 20
-443.1695434621925
 30
0.0
  0
SEQEND
  5
A4
330
A1
100
AcDbEntity
  8
LAYER_5
 62
     7
  0
ENDSEC
  0
SECTION
  2
OBJECTS
  0
DICTIONARY
  5
C
330
0
100
AcDbDictionary
  3
ACAD_GROUP
350
D
  3
ACAD_LAYOUT
350
1A
  3
ACAD_MATERIAL
350
3B
  3
ACAD_MLEADERSTYLE
350
A7
  3
ACAD_MLINESTYLE
350
17
  3
ACAD_PLOTSETTINGS
350
19
  3
ACAD_VISUALSTYLE
350
2A
  3
ACDBVARIABLEDICTIONARY
350
A5
1001
ACAD
1000
TREAT_AS_HARD
1070
     0
  0
DICTIONARY
  5
D
102
{ACAD_REACTORS
330
C
102
}
330
C
100
AcDbDictionary
1001
ACAD
1000
TREAT_AS_HARD
1070
     0
  0
DICTIONARY
  5
1A
102
{ACAD_REACTORS
330
C
102
}
330
C
100
AcDbDictionary
1001
ACAD
1000
TREAT_AS_HARD
1070
     0
  0
DICTIONARY
  5
3B
102
{ACAD_REACTORS
330
C
102
}
330
C
100
AcDbDictionary
  3
BYBLOCK
350
3D
  3
BYLAYER
350
3C
  3
GLOBAL
350
3E
1001
ACAD
1000
TREAT_AS_HARD
1070
     0
  0
DICTIONARY
  5
A7
102
{ACAD_REACTORS
330
C
102
}
330
C
100
AcDbDictionary
1001
ACAD
1000
TREAT_AS_HARD
1070
     0
  0
DICTIONARY
  5
17
102
{ACAD_REACTORS
330
C
102
}
330
C
100
AcDbDictionary
  3
STANDARD
350
18
1001
ACAD
1000
TREAT_AS_HARD
1070
     0
  0
DICTIONARY
  5
19
102
{ACAD_REACTORS
330
C
102
}
330
C
100
AcDbDictionary
1001
ACAD
1000
TREAT_AS_HARD
1070
     0
  0
DICTIONARY
  5
2A
102
{ACAD_REACTORS
330
C
102
}
330
C
100
AcDbDictionary
  3
2DWIREFRAME
350
2F
  3
3DWIREFRAME
350
30
  3
3D_HIDDEN
350
31
  3
BASIC
350
32
  3
BRIGHTEN
350
36
  3
COLORCHANGE
350
3A
  3
CONCEPTUAL
350
34
  3
DIM
350
35
  3
FACEPATTERN
350
39
  3
FLAT
350
2B
  3
FLATWITHEDGES
350
2C
  3
GOURAUD
350
2D
  3
GOURAUDWITHEDGES
350
2E
  3
LINEPATTERN
350
38
  3
REALISTIC
350
33
  3
THICKEN
350
37
1001
ACAD
1000
TREAT_AS_HARD
1070
     0
  0
DICTIONARY
  5
A5
102
{ACAD_REACTORS
330
C
102
}
330
C
100
AcDbDictionary
  3
DIMASSOC
350
A8
  3
HIDETEXT
350
A9
1001
ACAD
1000
TREAT_AS_HARD
1070
     0
  0
MATERIAL
  5
3D
102
{ACAD_REACTORS
330
3B
102
}
102
{ACAD_XDICTIONARY
360
AC
102
}
330
3B
100
AcDbMaterial
  1
ByBlock
  0
MATERIAL
  5
3C
102
{ACAD_REACTORS
330
3B
102
}
102
{ACAD_XDICTIONARY
360
AA
102
}
330
3B
100
AcDbMaterial
  1
ByLayer
  0
MATERIAL
  5
3E
102
{ACAD_REACTORS
330
3B
102
}
102
{ACAD_XDICTIONARY
360
AE
102
}
330
3B
100
AcDbMaterial
  1
Global
  0
MLINESTYLE
  5
18
102
{ACAD_REACTORS
330
17
102
}
330
17
100
AcDbMlineStyle
  2
Standard
 70
     0
  3

 62
   256
 51
90.0
 52
90.0
 71
     2
 49
0.5
 62
   256
  6
BYLAYER
 49
-0.5
 62
   256
  6
BYLAYER
  0
ACAD_PROXY_OBJECT
  5
2F
102
{ACAD_REACTORS
330
2A
102
}
330
2A
100
AcDbZombieObject
 90
      499
 91
      501
 93
      436
310
42CC9915DA5C99599C985B595049028333333333333E3BF0000000000000FB0107901411070040501600405405064090741402480A0340
1001
ACAD
1000
AcDbSavedByObjectVersion
1070
     0
  0
ACAD_PROXY_OBJECT
  5
30
102
{ACAD_REACTORS
330
2A
102
}
330
2A
100
AcDbZombieObject
 90
      499
 91
      501
 93
      436
310
42CCD915DA5C99599C985B595059028333333333333E3BF0000000000000FB0107901411070040501600405405064090741402480A0340
1001
ACAD
1000
AcDbSavedByObjectVersion
1070
     0
  0
ACAD_PROXY_OBJECT
  5
31
102
{ACAD_REACTORS
330
2A
102
}
330
2A
100
AcDbZombieObject
 90
      499
 91
      501
 93
      500
310
424CD108121A5919195B90640502408333333333333E3BF0000000000000FB01079024090700405020000000000001110200405405064090740C02480A0340
1001
ACAD
1000
AcDbSavedByObjectVersion
1070
     0
  0
ACAD_PROXY_OBJECT
  5
32
102
{ACAD_REACTORS
330
2A
102
}
330
2A
100
AcDbZombieObject
 90
      499
 91
      501
 93
      388
310
4150985CDA58D07406404333333333333E3BF0000000000000FB0107A41107004050150841D405064090741402480A0350
1001
ACAD
1000
AcDbSavedByObjectVersion
1070
     0
  0
ACAD_PROXY_OBJECT
  5
36
102
{ACAD_REACTORS
330
2A
102
}
330
2A
100
AcDbZombieObject
 90
      499
 91
      501
 93
      428
310
42109C9A59DA1D195B90C409028333333333333E3BF0000000000000FB010790141107004050150841D405064090741402480A029950
1001
ACAD
1000
AcDbSavedByObjectVersion
1070
     0
  0
ACAD_PROXY_OBJECT
  5
3A
102
{ACAD_REACTORS
330
2A
102
}
330
2A
100
AcDbZombieObject
 90
      499
 91
      501
 93
      452
310
42D0DBDB1BDC90DA185B99D95104090240C333333333333E3BF0000000000000FB0108901411070040501508421405064090741402480A0350
1001
ACAD
1000
AcDbSavedByObjectVersion
1070
     0
  0
ACAD_PROXY_OBJECT
  5
34
102
{ACAD_REACTORS
330
2A
102
}
330
2A
100
AcDbZombieObject
 90
      499
 91
      501
 93
      500
310
4290DBDB98D95C1D1D585B10940D028333333333333E3BF0000000000000FB0107902409070040501000000000000111010841D405064090740C02480A0340
1001
ACAD
1000
AcDbSavedByObjectVersion
1070
     0
  0
ACAD_PROXY_OBJECT
  5
35
102
{ACAD_REACTORS
330
2A
102
}
330
2A
100
AcDbZombieObject
 90
      499
 91
      501
 93
      412
310
40D11A5B50B409028333333333333E3BF0000000000000FB010790141107004050150841D405064090741402480A02677FFFFFD0
1001
ACAD
1000
AcDbSavedByObjectVersion
1070
     0
  0
ACAD_PROXY_OBJECT
  5
39
102
{ACAD_REACTORS
330
2A
102
}
330
2A
100
AcDbZombieObject
 90
      499
 91
      501
 93
      444
310
42D19858D95C185D1D195C9B90F409028333333333333E3BF0000000000000FB010790141107004050150841D405064090741402480A0350
1001
ACAD
1000
AcDbSavedByObjectVersion
1070
     0
  0
ACAD_PROXY_OBJECT
  5
2B
102
{ACAD_REACTORS
330
2A
102
}
330
2A
100
AcDbZombieObject
 90
      499
 91
      501
 93
      388
310
41119B185D240901404333333333333E3BF0000000000000F9010740A41107004050150841D405064090741402480A1B50
1001
ACAD
1000
AcDbSavedByObjectVersion
1070
     0
  0
ACAD_PROXY_OBJECT
  5
2C
102
{ACAD_REACTORS
330
2A
102
}
330
2A
100
AcDbZombieObject
 90
      499
 91
      501
 93
      476
310
43519B185D15DA5D1A115919D95CD0140901404333333333333E3BF0000000000000F9010740901411070040501600405405064090741402480A1B50
1001
ACAD
1000
AcDbSavedByObjectVersion
1070
     0
  0
ACAD_PROXY_OBJECT
  5
2D
102
{ACAD_REACTORS
330
2A
102
}
330
2A
100
AcDbZombieObject
 90
      499
 91
      501
 93
      412
310
41D1DBDD5C985D5910240902404333333333333E3BF0000000000000F9010740A411070040501641D405064090741402480A1B50
1001
ACAD
1000
AcDbSavedByObjectVersion
1070
     0
  0
ACAD_PROXY_OBJECT
  5
2E
102
{ACAD_REACTORS
330
2A
102
}
330
2A
100
AcDbZombieObject
 90
      499
 91
      501
 93
      500
310
4411DBDD5C985D5915DA5D1A115919D95CD0340902404333333333333E3BF0000000000000F9010740901411070040501600405405064090741402480A1B50
1001
ACAD
1000
AcDbSavedByObjectVersion
1070
     0
  0
ACAD_PROXY_OBJECT
  5
38
102
{ACAD_REACTORS
330
2A
102
}
330
2A
100
AcDbZombieObject
 90
      499
 91
      501
 93
      444
310
42D31A5B995C185D1D195C9B90E409028333333333333E3BF0000000000000FB010790141107004050750841D405064090741402483A0350
1001
ACAD
1000
AcDbSavedByObjectVersion
1070
     0
  0
ACAD_PROXY_OBJECT
  5
33
102
{ACAD_REACTORS
330
2A
102
}
330
2A
100
AcDbZombieObject
 90
      499
 91
      501
 93
      420
310
425499585B1A5CDD1A58D08409028333333333333E3BF0000000000000FB01079019070040501508421405064090741402480A1B40
1001
ACAD
1000
AcDbSavedByObjectVersion
1070
     0
  0
ACAD_PROXY_OBJECT
  5
37
102
{ACAD_REACTORS
330
2A
102
}
330
2A
100
AcDbZombieObject
 90
      499
 91
      501
 93
      412
310
41D51A1A58DAD95B90D409028333333333333E3BF0000000000000FB010790141107004050150C41D405064090741402480A0350
1001
ACAD
1000
AcDbSavedByObjectVersion
1070
     0
  0
DICTIONARYVAR
  5
A8
102
{ACAD_REACTORS
330
A5
102
}
330
A5
100
DictionaryVariables
280
     0
  1
2
  0
DICTIONARYVAR
  5
A9
102
{ACAD_REACTORS
330
A5
102
}
330
A5
100
DictionaryVariables
280
     0
  1
1
  0
DICTIONARY
  5
AC
330
3D
100
AcDbDictionary
  3
ACAD_XREC_ROUNDTRIP
360
AD
1001
ACAD
1000
TREAT_AS_HARD
1070
     1
  0
DICTIONARY
  5
AA
330
3C
100
AcDbDictionary
  3
ACAD_XREC_ROUNDTRIP
360
AB
1001
ACAD
1000
TREAT_AS_HARD
1070
     1
  0
DICTIONARY
  5
AE
330
3E
100
AcDbDictionary
  3
ACAD_XREC_ROUNDTRIP
360
AF
1001
ACAD
1000
TREAT_AS_HARD
1070
     1
  0
XRECORD
  5
AD
102
{ACAD_REACTORS
330
AC
102
}
330
AC
100
AcDbXrecord
102
MATERIAL
148
0.0
149
0.0
149
0.0
 93
        0
 94
      127
282
     0
 72
     1
 77
     1
171
     1
175
     1
179
     1
273
     0
  0
XRECORD
  5
AB
102
{ACAD_REACTORS
330
AA
102
}
330
AA
100
AcDbXrecord
102
MATERIAL
148
0.0
149
0.0
149
0.0
 93
        0
 94
      127
282
     0
 72
     1
 77
     1
171
     1
175
     1
179
     1
273
     0
  0
XRECORD
  5
AF
102
{ACAD_REACTORS
330
AE
102
}
330
AE
100
AcDbXrecord
102
MATERIAL
148
0.0
149
0.0
149
0.0
 93
        0
 94
      127
282
     0
 72
     1
 77
     1
171
     1
175
     1
179
     1
273
     0
  0
ENDSEC
  0
EOF
