<?xml version="1.0" encoding="UTF-8" standalone="no"?>
<svg
   xmlns:dc="http://purl.org/dc/elements/1.1/"
   xmlns:cc="http://creativecommons.org/ns#"
   xmlns:rdf="http://www.w3.org/1999/02/22-rdf-syntax-ns#"
   xmlns:svg="http://www.w3.org/2000/svg"
   xmlns="http://www.w3.org/2000/svg"
   xmlns:sodipodi="http://sodipodi.sourceforge.net/DTD/sodipodi-0.dtd"
   xmlns:inkscape="http://www.inkscape.org/namespaces/inkscape"
   viewBox="0 0 567.93 567.93"
   version="1.1"
   id="svg244"
   sodipodi:docname="Y_Gantry_20x20_top_decorated.svg"
   width="150.26482mm"
   height="150.26482mm"
   inkscape:version="0.92.2 5c3e80d, 2017-08-06">
  <metadata
     id="metadata248">
    <rdf:RDF>
      <cc:Work
         rdf:about="">
        <dc:format>image/svg+xml</dc:format>
        <dc:type
           rdf:resource="http://purl.org/dc/dcmitype/StillImage" />
        <dc:title>Y_Gantry_20x20_top_decorated</dc:title>
      </cc:Work>
    </rdf:RDF>
  </metadata>
  <sodipodi:namedview
     pagecolor="#ffffff"
     bordercolor="#666666"
     borderopacity="1"
     objecttolerance="10"
     gridtolerance="10"
     guidetolerance="10"
     inkscape:pageopacity="0"
     inkscape:pageshadow="2"
     inkscape:window-width="640"
     inkscape:window-height="480"
     id="namedview246"
     showgrid="false"
     inkscape:document-units="mm"
     units="mm"
     inkscape:zoom="0.41554417"
     inkscape:cx="283.965"
     inkscape:cy="283.965"
     inkscape:window-x="140"
     inkscape:window-y="0"
     inkscape:window-maximized="0"
     inkscape:current-layer="svg244" />
  <defs
     id="defs4">
    <style
       id="style2">.cls-1,.cls-2{fill:none;}.cls-1{stroke:blue;stroke-miterlimit:10;}.cls-2{stroke:red;stroke-linecap:round;stroke-linejoin:round;}</style>
  </defs>
  <title
     id="title6">Y_Gantry_20x20_top_decorated</title>
  <g
     id="decorations">
    <line
       class="cls-1"
       x1="29.08"
       y1="567.21002"
       x2="29.08"
       y2="0.28"
       id="line8"
       style="fill:none;stroke:#0000ff;stroke-miterlimit:10" />
    <line
       class="cls-1"
       x1="57.43"
       y1="567.21002"
       x2="57.43"
       y2="0.28"
       id="line10"
       style="fill:none;stroke:#0000ff;stroke-miterlimit:10" />
    <line
       class="cls-1"
       x1="85.769997"
       y1="567.21002"
       x2="85.769997"
       y2="0.28"
       id="line12"
       style="fill:none;stroke:#0000ff;stroke-miterlimit:10" />
    <line
       class="cls-1"
       x1="114.12"
       y1="567.21002"
       x2="114.12"
       y2="0.28"
       id="line14"
       style="fill:none;stroke:#0000ff;stroke-miterlimit:10" />
    <line
       class="cls-1"
       x1="142.47"
       y1="567.21002"
       x2="142.47"
       y2="0.28"
       id="line16"
       style="fill:none;stroke:#0000ff;stroke-miterlimit:10" />
    <line
       class="cls-1"
       x1="170.81"
       y1="567.21002"
       x2="170.81"
       y2="0.28"
       id="line18"
       style="fill:none;stroke:#0000ff;stroke-miterlimit:10" />
    <line
       class="cls-1"
       x1="199.16"
       y1="567.21002"
       x2="199.16"
       y2="0.28"
       id="line20"
       style="fill:none;stroke:#0000ff;stroke-miterlimit:10" />
    <line
       class="cls-1"
       x1="227.5"
       y1="390.82999"
       x2="227.5"
       y2="0.28"
       id="line22"
       style="fill:none;stroke:#0000ff;stroke-miterlimit:10" />
    <line
       class="cls-1"
       x1="255.85001"
       y1="390.82999"
       x2="255.85001"
       y2="0.28"
       id="line24"
       style="fill:none;stroke:#0000ff;stroke-miterlimit:10" />
    <line
       class="cls-1"
       x1="284.20001"
       y1="390.82999"
       x2="284.20001"
       y2="0.28"
       id="line26"
       style="fill:none;stroke:#0000ff;stroke-miterlimit:10" />
    <line
       class="cls-1"
       x1="312.54001"
       y1="390.82999"
       x2="312.54001"
       y2="0.28"
       id="line28"
       style="fill:none;stroke:#0000ff;stroke-miterlimit:10" />
    <line
       class="cls-1"
       x1="340.89001"
       y1="390.82999"
       x2="340.89001"
       y2="0.28"
       id="line30"
       style="fill:none;stroke:#0000ff;stroke-miterlimit:10" />
    <line
       class="cls-1"
       x1="369.23999"
       y1="567.21002"
       x2="369.23999"
       y2="0.28"
       id="line32"
       style="fill:none;stroke:#0000ff;stroke-miterlimit:10" />
    <line
       class="cls-1"
       x1="397.57999"
       y1="567.21002"
       x2="397.57999"
       y2="0.28"
       id="line34"
       style="fill:none;stroke:#0000ff;stroke-miterlimit:10" />
    <line
       class="cls-1"
       x1="425.92999"
       y1="567.21002"
       x2="425.92999"
       y2="0.28"
       id="line36"
       style="fill:none;stroke:#0000ff;stroke-miterlimit:10" />
    <line
       class="cls-1"
       x1="454.28"
       y1="567.21002"
       x2="454.28"
       y2="0.28"
       id="line38"
       style="fill:none;stroke:#0000ff;stroke-miterlimit:10" />
    <line
       class="cls-1"
       x1="482.62"
       y1="567.21002"
       x2="482.62"
       y2="0.28"
       id="line40"
       style="fill:none;stroke:#0000ff;stroke-miterlimit:10" />
    <line
       class="cls-1"
       x1="510.97"
       y1="567.21002"
       x2="510.97"
       y2="0.28"
       id="line42"
       style="fill:none;stroke:#0000ff;stroke-miterlimit:10" />
    <line
       class="cls-1"
       x1="539.32001"
       y1="567.21002"
       x2="539.32001"
       y2="0.28"
       id="line44"
       style="fill:none;stroke:#0000ff;stroke-miterlimit:10" />
    <line
       class="cls-1"
       x1="0.73000002"
       y1="28.85"
       x2="567.65997"
       y2="28.85"
       id="line46"
       style="fill:none;stroke:#0000ff;stroke-miterlimit:10" />
    <line
       class="cls-1"
       x1="0.73000002"
       y1="57.189999"
       x2="567.65997"
       y2="57.189999"
       id="line48"
       style="fill:none;stroke:#0000ff;stroke-miterlimit:10" />
    <line
       class="cls-1"
       x1="0.73000002"
       y1="85.540001"
       x2="567.65997"
       y2="85.540001"
       id="line50"
       style="fill:none;stroke:#0000ff;stroke-miterlimit:10" />
    <line
       class="cls-1"
       x1="0.73000002"
       y1="113.89"
       x2="567.65997"
       y2="113.89"
       id="line52"
       style="fill:none;stroke:#0000ff;stroke-miterlimit:10" />
    <line
       class="cls-1"
       x1="0.73000002"
       y1="142.23"
       x2="567.65997"
       y2="142.23"
       id="line54"
       style="fill:none;stroke:#0000ff;stroke-miterlimit:10" />
    <line
       class="cls-1"
       x1="0.73000002"
       y1="170.58"
       x2="567.65997"
       y2="170.58"
       id="line56"
       style="fill:none;stroke:#0000ff;stroke-miterlimit:10" />
    <line
       class="cls-1"
       x1="0.73000002"
       y1="198.92999"
       x2="567.65997"
       y2="198.92999"
       id="line58"
       style="fill:none;stroke:#0000ff;stroke-miterlimit:10" />
    <line
       class="cls-1"
       x1="0.73000002"
       y1="227.27"
       x2="567.65997"
       y2="227.27"
       id="line60"
       style="fill:none;stroke:#0000ff;stroke-miterlimit:10" />
    <line
       class="cls-1"
       x1="0.73000002"
       y1="255.62"
       x2="567.65997"
       y2="255.62"
       id="line62"
       style="fill:none;stroke:#0000ff;stroke-miterlimit:10" />
    <line
       class="cls-1"
       x1="0.73000002"
       y1="283.95999"
       x2="567.65997"
       y2="283.95999"
       id="line64"
       style="fill:none;stroke:#0000ff;stroke-miterlimit:10" />
    <line
       class="cls-1"
       x1="0.73000002"
       y1="312.31"
       x2="567.65997"
       y2="312.31"
       id="line66"
       style="fill:none;stroke:#0000ff;stroke-miterlimit:10" />
    <line
       class="cls-1"
       x1="0.73000002"
       y1="340.66"
       x2="567.65997"
       y2="340.66"
       id="line68"
       style="fill:none;stroke:#0000ff;stroke-miterlimit:10" />
    <line
       class="cls-1"
       x1="0.73000002"
       y1="369"
       x2="567.65997"
       y2="369"
       id="line70"
       style="fill:none;stroke:#0000ff;stroke-miterlimit:10" />
    <line
       class="cls-1"
       x1="0.73000002"
       y1="397.35001"
       x2="206.73"
       y2="397.35001"
       id="line72"
       style="fill:none;stroke:#0000ff;stroke-miterlimit:10" />
    <line
       class="cls-1"
       x1="0.73000002"
       y1="425.70001"
       x2="206.73"
       y2="425.70001"
       id="line74"
       style="fill:none;stroke:#0000ff;stroke-miterlimit:10" />
    <line
       class="cls-1"
       x1="0.73000002"
       y1="454.04001"
       x2="206.73"
       y2="454.04001"
       id="line76"
       style="fill:none;stroke:#0000ff;stroke-miterlimit:10" />
    <line
       class="cls-1"
       x1="0.73000002"
       y1="482.39001"
       x2="567.65997"
       y2="482.39001"
       id="line78"
       style="fill:none;stroke:#0000ff;stroke-miterlimit:10" />
    <line
       class="cls-1"
       x1="0.73000002"
       y1="510.73999"
       x2="567.65997"
       y2="510.73999"
       id="line80"
       style="fill:none;stroke:#0000ff;stroke-miterlimit:10" />
    <line
       class="cls-1"
       x1="0.73000002"
       y1="539.08002"
       x2="567.65997"
       y2="539.08002"
       id="line82"
       style="fill:none;stroke:#0000ff;stroke-miterlimit:10" />
    <path
       d="M 213.87,398.39 V 452 h 138.92 v -53.61 z m 133.23,48.2 H 219.56 V 403.8 H 347.1 Z"
       transform="translate(0.73,0.5)"
       id="path84"
       inkscape:connector-curvature="0" />
    <path
       d="m 335.5,430.4 v 4.6 h -7.31 v -26 h -93.68 l -10.35,32.88 h 7.44 l 1.82,-6.51 h 5.29 v 6.51 h 7.21 v -26.24 h 1.77 v 26.24 h 24 V 435 h -15.36 v -6.32 h 9.31 v -6.89 h -9.31 v -5.89 h 22.53 v 26 h 9 v -26 H 296 v 26 h 21.52 V 435 H 305 v -6.32 h 9.32 v -6.89 H 305 v -5.89 h 14.18 v 0.1 h 0.09 v 25.89 h 23 V 430.4 Z m -96.8,-12.91 v 11 h -3.21 l 3.21,-11.05 v 0.07 z"
       transform="translate(0.73,0.5)"
       id="path86"
       inkscape:connector-curvature="0" />
    <path
       d="m 544.89,554.53 v 8.4 H 543 v -6.84 h -1.68 v -1.56 z"
       transform="translate(0.73,0.5)"
       id="path88"
       inkscape:connector-curvature="0" />
    <path
       d="m 552.07,555.46 a 4.42,4.42 0 0 1 1,3.09 5.18,5.18 0 0 1 -0.54,2.45 3.68,3.68 0 0 1 -1.5,1.55 4.67,4.67 0 0 1 -2.25,0.52 5.34,5.34 0 0 1 -1.28,-0.15 3.6,3.6 0 0 1 -1,-0.42 l 0.72,-1.43 a 2.75,2.75 0 0 0 1.58,0.42 2.28,2.28 0 0 0 1.69,-0.63 2.66,2.66 0 0 0 0.67,-1.82 2.8,2.8 0 0 1 -2.09,0.76 3.23,3.23 0 0 1 -1.46,-0.33 2.58,2.58 0 0 1 -1,-0.91 2.55,2.55 0 0 1 -0.38,-1.38 2.59,2.59 0 0 1 0.42,-1.47 2.69,2.69 0 0 1 1.15,-1 3.69,3.69 0 0 1 1.61,-0.34 3.55,3.55 0 0 1 2.66,1.09 z m -1.58,2.54 a 1.22,1.22 0 0 0 0,-1.8 1.76,1.76 0 0 0 -2.08,0 1.16,1.16 0 0 0 -0.39,0.92 1.14,1.14 0 0 0 0.39,0.91 1.69,1.69 0 0 0 2.07,0 z"
       transform="translate(0.73,0.5)"
       id="path90"
       inkscape:connector-curvature="0" />
    <path
       d="m 516.57,554.53 v 8.4 h -2 v -6.84 H 513 v -1.56 z"
       transform="translate(0.73,0.5)"
       id="path92"
       inkscape:connector-curvature="0" />
    <path
       d="m 524.74,559.33 a 2.07,2.07 0 0 1 0.33,1.16 2.19,2.19 0 0 1 -0.45,1.37 2.91,2.91 0 0 1 -1.25,0.9 5.71,5.71 0 0 1 -3.71,0 2.94,2.94 0 0 1 -1.24,-0.9 2.24,2.24 0 0 1 -0.43,-1.37 2,2 0 0 1 0.33,-1.16 2.37,2.37 0 0 1 0.94,-0.82 2.07,2.07 0 0 1 -0.72,-0.72 2,2 0 0 1 -0.25,-1 2.08,2.08 0 0 1 0.4,-1.28 2.6,2.6 0 0 1 1.14,-0.83 4.42,4.42 0 0 1 1.68,-0.29 4.49,4.49 0 0 1 1.7,0.29 2.7,2.7 0 0 1 1.15,0.83 2.08,2.08 0 0 1 0.41,1.28 2,2 0 0 1 -0.26,1 2,2 0 0 1 -0.73,0.72 2.43,2.43 0 0 1 0.96,0.82 z m -2.07,2 a 1.06,1.06 0 0 0 0.43,-0.89 1,1 0 0 0 -0.43,-0.87 1.84,1.84 0 0 0 -1.16,-0.33 1.8,1.8 0 0 0 -1.14,0.33 1,1 0 0 0 -0.42,0.87 1.05,1.05 0 0 0 0.42,0.89 1.8,1.8 0 0 0 1.14,0.33 1.84,1.84 0 0 0 1.16,-0.34 z m -2.1,-5.22 a 1,1 0 0 0 0,1.53 1.48,1.48 0 0 0 0.94,0.27 1.56,1.56 0 0 0 1,-0.27 1,1 0 0 0 0,-1.53 1.5,1.5 0 0 0 -1,-0.29 1.47,1.47 0 0 0 -0.94,0.28 z"
       transform="translate(0.73,0.5)"
       id="path94"
       inkscape:connector-curvature="0" />
    <path
       d="m 488.24,554.67 v 8.4 h -1.94 v -6.84 h -1.68 v -1.56 z"
       transform="translate(0.73,0.5)"
       id="path96"
       inkscape:connector-curvature="0" />
    <path
       d="m 496.28,554.67 v 1.26 l -3.12,7.14 h -2.11 l 3,-6.81 h -2.78 v 1.36 h -1.73 v -3 z"
       transform="translate(0.73,0.5)"
       id="path98"
       inkscape:connector-curvature="0" />
    <path
       d="m 459.92,554.53 v 8.4 H 458 v -6.84 h -1.68 v -1.56 z"
       transform="translate(0.73,0.5)"
       id="path100"
       inkscape:connector-curvature="0" />
    <path
       d="m 466.89,558 a 2.48,2.48 0 0 1 1.43,2.29 2.59,2.59 0 0 1 -0.42,1.47 2.69,2.69 0 0 1 -1.15,1 3.69,3.69 0 0 1 -1.61,0.34 3.56,3.56 0 0 1 -2.76,-1.08 4.34,4.34 0 0 1 -1,-3.08 5.18,5.18 0 0 1 0.54,-2.45 3.7,3.7 0 0 1 1.51,-1.55 4.6,4.6 0 0 1 2.24,-0.52 5.55,5.55 0 0 1 1.29,0.15 3.6,3.6 0 0 1 1.04,0.43 l -0.72,1.43 a 2.77,2.77 0 0 0 -1.58,-0.42 2.31,2.31 0 0 0 -1.69,0.62 2.64,2.64 0 0 0 -0.67,1.82 2.81,2.81 0 0 1 2.08,-0.75 3.23,3.23 0 0 1 1.47,0.3 z m -0.85,3.3 a 1.16,1.16 0 0 0 0.39,-0.92 1.14,1.14 0 0 0 -0.39,-0.91 1.49,1.49 0 0 0 -1,-0.35 1.52,1.52 0 0 0 -1.05,0.36 1.2,1.2 0 0 0 0,1.8 1.53,1.53 0 0 0 1.08,0.35 1.5,1.5 0 0 0 0.93,-0.34 z"
       transform="translate(0.73,0.5)"
       id="path102"
       inkscape:connector-curvature="0" />
    <path
       d="m 431.59,554.53 v 8.4 h -1.94 v -6.84 H 428 v -1.56 z"
       transform="translate(0.73,0.5)"
       id="path104"
       inkscape:connector-curvature="0" />
    <path
       d="m 438.56,558.39 a 2.38,2.38 0 0 1 0.84,1.9 2.61,2.61 0 0 1 -0.38,1.4 2.79,2.79 0 0 1 -1.17,1 4.48,4.48 0 0 1 -1.94,0.37 6.4,6.4 0 0 1 -1.74,-0.23 4.48,4.48 0 0 1 -1.46,-0.67 l 0.77,-1.48 a 3.66,3.66 0 0 0 1.1,0.55 4,4 0 0 0 1.28,0.2 2,2 0 0 0 1.16,-0.29 1,1 0 0 0 0,-1.62 3.08,3.08 0 0 0 -1.52,-0.27 h -2.15 l 0.43,-4.73 h 5.13 v 1.56 h -3.51 l -0.13,1.6 h 0.69 a 4.06,4.06 0 0 1 2.6,0.71 z"
       transform="translate(0.73,0.5)"
       id="path106"
       inkscape:connector-curvature="0" />
    <path
       d="m 403.27,554.67 v 8.4 h -1.95 v -6.84 h -1.68 v -1.56 z"
       transform="translate(0.73,0.5)"
       id="path108"
       inkscape:connector-curvature="0" />
    <path
       d="m 412.42,561.31 h -1.37 v 1.76 h -1.89 v -1.76 h -4.53 V 560 l 4,-5.33 h 2 l -3.63,5.06 h 2.26 v -1.58 h 1.83 v 1.58 h 1.37 z"
       transform="translate(0.73,0.5)"
       id="path110"
       inkscape:connector-curvature="0" />
    <path
       d="m 374.94,554.53 v 8.4 H 373 v -6.84 h -1.68 v -1.56 z"
       transform="translate(0.73,0.5)"
       id="path112"
       inkscape:connector-curvature="0" />
    <path
       d="m 382,558.77 a 2.28,2.28 0 0 1 0.59,1.59 2.55,2.55 0 0 1 -0.38,1.35 2.75,2.75 0 0 1 -1.17,1 4.49,4.49 0 0 1 -1.93,0.37 6.52,6.52 0 0 1 -1.75,-0.23 4.68,4.68 0 0 1 -1.46,-0.67 l 0.76,-1.48 a 3.6,3.6 0 0 0 1.11,0.55 4,4 0 0 0 1.29,0.2 2,2 0 0 0 1.15,-0.28 0.9,0.9 0 0 0 0.42,-0.8 c 0,-0.69 -0.52,-1 -1.57,-1 h -0.89 v -1.28 l 1.73,-2 h -3.57 v -1.56 h 5.88 v 1.26 l -1.9,2.16 a 2.79,2.79 0 0 1 1.69,0.82 z"
       transform="translate(0.73,0.5)"
       id="path114"
       inkscape:connector-curvature="0" />
    <path
       d="m 346.62,554.67 v 8.4 h -1.95 v -6.84 H 343 v -1.56 z"
       transform="translate(0.73,0.5)"
       id="path116"
       inkscape:connector-curvature="0" />
    <path
       d="m 354.36,561.49 v 1.58 H 348 v -1.26 l 3.24,-3.06 a 3.44,3.44 0 0 0 0.69,-0.84 1.55,1.55 0 0 0 0.18,-0.7 0.93,0.93 0 0 0 -0.34,-0.78 1.59,1.59 0 0 0 -1,-0.27 2.33,2.33 0 0 0 -1,0.21 1.94,1.94 0 0 0 -0.74,0.63 l -1.42,-0.91 a 3.34,3.34 0 0 1 1.36,-1.15 4.64,4.64 0 0 1 2,-0.41 4.17,4.17 0 0 1 1.64,0.3 2.58,2.58 0 0 1 1.09,0.87 2.23,2.23 0 0 1 0.39,1.31 3,3 0 0 1 -0.29,1.29 5,5 0 0 1 -1.11,1.37 l -1.94,1.82 z"
       transform="translate(0.73,0.5)"
       id="path118"
       inkscape:connector-curvature="0" />
    <path
       d="m 318.29,554.67 v 8.4 h -1.94 v -6.84 h -1.68 v -1.56 z"
       transform="translate(0.73,0.5)"
       id="path120"
       inkscape:connector-curvature="0" />
    <path
       d="m 323,554.67 v 8.4 h -1.94 v -6.84 h -1.68 v -1.56 z"
       transform="translate(0.73,0.5)"
       id="path122"
       inkscape:connector-curvature="0" />
    <path
       d="m 290,554.53 v 8.4 h -2 v -6.84 h -1.68 v -1.56 z"
       transform="translate(0.73,0.5)"
       id="path124"
       inkscape:connector-curvature="0" />
    <path
       d="m 293.17,562.56 a 3.45,3.45 0 0 1 -1.28,-1.5 6.13,6.13 0 0 1 0,-4.66 3.51,3.51 0 0 1 5,-1.5 3.51,3.51 0 0 1 1.28,1.5 6.13,6.13 0 0 1 0,4.66 3.51,3.51 0 0 1 -1.28,1.5 3.47,3.47 0 0 1 -1.86,0.51 3.42,3.42 0 0 1 -1.86,-0.51 z m 3.06,-1.79 a 4.95,4.95 0 0 0 0,-4.08 1.42,1.42 0 0 0 -2.4,0 5.05,5.05 0 0 0 0,4.08 1.42,1.42 0 0 0 2.4,0 z"
       transform="translate(0.73,0.5)"
       id="path126"
       inkscape:connector-curvature="0" />
    <path
       d="m 264.11,555.46 a 4.42,4.42 0 0 1 1,3.09 5.18,5.18 0 0 1 -0.54,2.45 3.68,3.68 0 0 1 -1.5,1.55 4.67,4.67 0 0 1 -2.25,0.52 5.34,5.34 0 0 1 -1.28,-0.15 3.6,3.6 0 0 1 -1.05,-0.42 l 0.72,-1.43 a 2.75,2.75 0 0 0 1.58,0.42 2.28,2.28 0 0 0 1.69,-0.63 2.66,2.66 0 0 0 0.67,-1.82 2.8,2.8 0 0 1 -2.09,0.76 3.23,3.23 0 0 1 -1.46,-0.33 2.58,2.58 0 0 1 -1.05,-0.91 2.55,2.55 0 0 1 -0.38,-1.38 2.59,2.59 0 0 1 0.42,-1.47 2.69,2.69 0 0 1 1.15,-1 3.69,3.69 0 0 1 1.61,-0.34 3.55,3.55 0 0 1 2.76,1.09 z m -1.58,2.54 a 1.22,1.22 0 0 0 0,-1.8 1.76,1.76 0 0 0 -2.08,0 1.16,1.16 0 0 0 -0.39,0.92 1.14,1.14 0 0 0 0.39,0.91 1.69,1.69 0 0 0 2.07,0 z"
       transform="translate(0.73,0.5)"
       id="path128"
       inkscape:connector-curvature="0" />
    <path
       d="m 236.77,559.33 a 2.07,2.07 0 0 1 0.33,1.16 2.18,2.18 0 0 1 -0.44,1.37 3,3 0 0 1 -1.25,0.9 5.71,5.71 0 0 1 -3.71,0 2.94,2.94 0 0 1 -1.24,-0.9 2.24,2.24 0 0 1 -0.44,-1.37 2.07,2.07 0 0 1 0.33,-1.16 2.4,2.4 0 0 1 1,-0.82 1.91,1.91 0 0 1 -0.72,-0.72 2,2 0 0 1 -0.26,-1 2.08,2.08 0 0 1 0.41,-1.28 2.6,2.6 0 0 1 1.14,-0.83 4.42,4.42 0 0 1 1.68,-0.29 4.49,4.49 0 0 1 1.7,0.29 2.7,2.7 0 0 1 1.15,0.83 2.08,2.08 0 0 1 0.4,1.28 2,2 0 0 1 -0.25,1 2,2 0 0 1 -0.73,0.72 2.33,2.33 0 0 1 0.9,0.82 z m -2.06,2 a 1.09,1.09 0 0 0 0.43,-0.89 1,1 0 0 0 -0.43,-0.87 1.84,1.84 0 0 0 -1.16,-0.33 1.8,1.8 0 0 0 -1.14,0.33 1,1 0 0 0 -0.42,0.87 1.05,1.05 0 0 0 0.42,0.89 1.8,1.8 0 0 0 1.14,0.33 1.84,1.84 0 0 0 1.16,-0.34 z m -2.1,-5.22 a 0.9,0.9 0 0 0 -0.35,0.77 0.93,0.93 0 0 0 0.34,0.76 1.53,1.53 0 0 0 1,0.27 1.56,1.56 0 0 0 1,-0.27 1,1 0 0 0 0,-1.53 1.5,1.5 0 0 0 -1,-0.29 1.47,1.47 0 0 0 -0.99,0.28 z"
       transform="translate(0.73,0.5)"
       id="path130"
       inkscape:connector-curvature="0" />
    <path
       d="m 208.32,554.67 v 1.26 l -3.12,7.14 h -2.11 l 3,-6.81 h -2.78 v 1.36 h -1.73 v -3 z"
       transform="translate(0.73,0.5)"
       id="path132"
       inkscape:connector-curvature="0" />
    <path
       d="m 178.93,558 a 2.48,2.48 0 0 1 1.43,2.29 2.59,2.59 0 0 1 -0.42,1.47 2.69,2.69 0 0 1 -1.15,1 3.69,3.69 0 0 1 -1.61,0.34 3.56,3.56 0 0 1 -2.76,-1.08 4.34,4.34 0 0 1 -1,-3.08 5.18,5.18 0 0 1 0.54,-2.45 3.7,3.7 0 0 1 1.51,-1.55 4.6,4.6 0 0 1 2.24,-0.52 5.55,5.55 0 0 1 1.29,0.15 3.6,3.6 0 0 1 1.05,0.42 l -0.72,1.43 a 2.77,2.77 0 0 0 -1.58,-0.42 2.31,2.31 0 0 0 -1.69,0.62 2.64,2.64 0 0 0 -0.67,1.82 2.81,2.81 0 0 1 2.08,-0.75 3.23,3.23 0 0 1 1.46,0.31 z m -0.85,3.3 a 1.16,1.16 0 0 0 0.39,-0.92 1.14,1.14 0 0 0 -0.39,-0.91 1.49,1.49 0 0 0 -1,-0.35 1.52,1.52 0 0 0 -1.05,0.36 1.2,1.2 0 0 0 0,1.8 1.53,1.53 0 0 0 1.08,0.35 1.5,1.5 0 0 0 0.97,-0.34 z"
       transform="translate(0.73,0.5)"
       id="path134"
       inkscape:connector-curvature="0" />
    <path
       d="m 150.6,558.39 a 2.38,2.38 0 0 1 0.84,1.9 2.61,2.61 0 0 1 -0.38,1.4 2.79,2.79 0 0 1 -1.17,1 4.48,4.48 0 0 1 -1.94,0.37 6.4,6.4 0 0 1 -1.74,-0.23 4.48,4.48 0 0 1 -1.46,-0.67 l 0.77,-1.48 a 3.55,3.55 0 0 0 1.1,0.55 4,4 0 0 0 1.28,0.2 2,2 0 0 0 1.16,-0.29 1,1 0 0 0 0,-1.62 3.08,3.08 0 0 0 -1.52,-0.27 h -2.15 l 0.43,-4.73 h 5.13 v 1.56 h -3.51 l -0.13,1.6 H 148 a 4.06,4.06 0 0 1 2.6,0.71 z"
       transform="translate(0.73,0.5)"
       id="path136"
       inkscape:connector-curvature="0" />
    <path
       d="m 124.46,561.31 h -1.37 v 1.76 h -1.89 v -1.76 h -4.53 V 560 l 4,-5.33 h 2 l -3.67,5.06 h 2.26 v -1.58 h 1.83 v 1.58 h 1.37 z"
       transform="translate(0.73,0.5)"
       id="path138"
       inkscape:connector-curvature="0" />
    <path
       d="m 94.06,558.77 a 2.28,2.28 0 0 1 0.59,1.59 2.55,2.55 0 0 1 -0.38,1.35 2.75,2.75 0 0 1 -1.17,1 4.49,4.49 0 0 1 -1.93,0.37 6.52,6.52 0 0 1 -1.75,-0.23 4.58,4.58 0 0 1 -1.46,-0.67 l 0.76,-1.48 a 3.6,3.6 0 0 0 1.11,0.55 4,4 0 0 0 1.29,0.2 2,2 0 0 0 1.15,-0.28 0.9,0.9 0 0 0 0.42,-0.8 c 0,-0.69 -0.52,-1 -1.57,-1 h -0.89 v -1.28 l 1.73,-2 h -3.57 v -1.56 h 5.88 v 1.26 l -1.9,2.21 a 2.82,2.82 0 0 1 1.69,0.77 z"
       transform="translate(0.73,0.5)"
       id="path140"
       inkscape:connector-curvature="0" />
    <path
       d="m 66.4,561.49 v 1.58 h -6.35 v -1.26 l 3.24,-3.06 a 3.44,3.44 0 0 0 0.69,-0.84 1.55,1.55 0 0 0 0.18,-0.7 0.93,0.93 0 0 0 -0.34,-0.78 1.59,1.59 0 0 0 -1,-0.27 2.33,2.33 0 0 0 -1,0.21 1.94,1.94 0 0 0 -0.74,0.63 l -1.42,-0.91 a 3.34,3.34 0 0 1 1.34,-1.15 4.58,4.58 0 0 1 2,-0.41 4.17,4.17 0 0 1 1.64,0.3 2.64,2.64 0 0 1 1.09,0.87 2.23,2.23 0 0 1 0.39,1.31 3,3 0 0 1 -0.29,1.29 4.9,4.9 0 0 1 -1.12,1.37 l -1.93,1.82 z"
       transform="translate(0.73,0.5)"
       id="path142"
       inkscape:connector-curvature="0" />
    <path
       d="m 35,554.67 v 8.4 h -1.91 v -6.84 h -1.68 v -1.56 z"
       transform="translate(0.73,0.5)"
       id="path144"
       inkscape:connector-curvature="0" />
    <path
       d="m 5.21,562.56 a 3.45,3.45 0 0 1 -1.28,-1.5 6.13,6.13 0 0 1 0,-4.66 3.45,3.45 0 0 1 1.28,-1.5 3.42,3.42 0 0 1 1.86,-0.51 3.47,3.47 0 0 1 1.86,0.51 3.51,3.51 0 0 1 1.28,1.5 6.13,6.13 0 0 1 0,4.66 3.51,3.51 0 0 1 -1.28,1.5 3.47,3.47 0 0 1 -1.86,0.51 3.42,3.42 0 0 1 -1.86,-0.51 z m 3.06,-1.79 a 4.95,4.95 0 0 0 0,-4.08 1.42,1.42 0 0 0 -2.4,0 5.05,5.05 0 0 0 0,4.08 1.42,1.42 0 0 0 2.4,0 z"
       transform="translate(0.73,0.5)"
       id="path146"
       inkscape:connector-curvature="0" />
    <path
       d="m 8.24,15.67 v 8.4 H 6.3 V 17.23 H 4.62 v -1.56 z"
       transform="translate(0.73,0.5)"
       id="path148"
       inkscape:connector-curvature="0" />
    <path
       d="m 15.42,16.6 a 4.42,4.42 0 0 1 1,3.09 5.15,5.15 0 0 1 -0.54,2.45 3.62,3.62 0 0 1 -1.5,1.55 4.67,4.67 0 0 1 -2.25,0.53 5.34,5.34 0 0 1 -1.28,-0.15 3.35,3.35 0 0 1 -1,-0.43 l 0.72,-1.43 a 2.75,2.75 0 0 0 1.58,0.42 2.28,2.28 0 0 0 1.64,-0.63 2.64,2.64 0 0 0 0.67,-1.81 2.83,2.83 0 0 1 -2.09,0.75 3.33,3.33 0 0 1 -1.46,-0.32 2.6,2.6 0 0 1 -1.05,-0.92 2.52,2.52 0 0 1 -0.38,-1.37 2.62,2.62 0 0 1 0.42,-1.48 2.76,2.76 0 0 1 1.15,-1 3.69,3.69 0 0 1 1.61,-0.34 3.59,3.59 0 0 1 2.76,1.09 z m -1.58,2.54 a 1.23,1.23 0 0 0 0,-1.81 1.55,1.55 0 0 0 -1.06,-0.33 1.44,1.44 0 0 0 -1,0.34 1.14,1.14 0 0 0 -0.39,0.91 1.17,1.17 0 0 0 0.39,0.92 1.47,1.47 0 0 0 1,0.34 1.54,1.54 0 0 0 1.06,-0.37 z"
       transform="translate(0.73,0.5)"
       id="path150"
       inkscape:connector-curvature="0" />
    <path
       d="m 8.24,44 v 8.4 H 6.3 V 45.59 H 4.62 V 44 Z"
       transform="translate(0.73,0.5)"
       id="path152"
       inkscape:connector-curvature="0" />
    <path
       d="M 16.41,48.83 A 2.11,2.11 0 0 1 16.74,50 2.21,2.21 0 0 1 16.3,51.36 2.87,2.87 0 0 1 15.05,52.26 5.1,5.1 0 0 1 13.19,52.58 5.07,5.07 0 0 1 11.33,52.26 2.75,2.75 0 0 1 10.1,51.36 2.21,2.21 0 0 1 9.66,50 2.11,2.11 0 0 1 10,48.83 a 2.42,2.42 0 0 1 0.94,-0.81 2.09,2.09 0 0 1 -0.72,-0.73 1.93,1.93 0 0 1 -0.25,-1 2.05,2.05 0 0 1 0.4,-1.29 2.62,2.62 0 0 1 1.14,-0.84 4.62,4.62 0 0 1 1.68,-0.29 4.73,4.73 0 0 1 1.7,0.29 2.62,2.62 0 0 1 1.11,0.84 2.05,2.05 0 0 1 0.41,1.27 1.93,1.93 0 0 1 -0.25,1 2.12,2.12 0 0 1 -0.73,0.73 2.46,2.46 0 0 1 0.98,0.83 z m -2.06,2 a 1.13,1.13 0 0 0 0,-1.76 1.92,1.92 0 0 0 -1.16,-0.32 1.86,1.86 0 0 0 -1.14,0.32 1.06,1.06 0 0 0 -0.42,0.88 1.08,1.08 0 0 0 0.42,0.89 1.86,1.86 0 0 0 1.14,0.32 1.86,1.86 0 0 0 1.16,-0.34 z m -2.1,-5.22 a 0.94,0.94 0 0 0 -0.36,0.78 0.92,0.92 0 0 0 0.35,0.75 1.51,1.51 0 0 0 0.95,0.28 1.56,1.56 0 0 0 1,-0.28 0.9,0.9 0 0 0 0.36,-0.75 0.94,0.94 0 0 0 -0.36,-0.78 1.5,1.5 0 0 0 -1,-0.28 1.44,1.44 0 0 0 -0.94,0.27 z"
       transform="translate(0.73,0.5)"
       id="path154"
       inkscape:connector-curvature="0" />
    <path
       d="m 8.24,72.4 v 8.4 H 6.3 V 74 H 4.62 v -1.6 z"
       transform="translate(0.73,0.5)"
       id="path156"
       inkscape:connector-curvature="0" />
    <path
       d="m 16.28,72.4 v 1.26 l -3.12,7.14 h -2.11 l 3,-6.82 h -2.77 v 1.37 H 9.55 V 72.4 Z"
       transform="translate(0.73,0.5)"
       id="path158"
       inkscape:connector-curvature="0" />
    <path
       d="m 8.24,100.76 v 8.4 H 6.3 v -6.84 H 4.62 v -1.56 z"
       transform="translate(0.73,0.5)"
       id="path160"
       inkscape:connector-curvature="0" />
    <path
       d="m 15.22,104.21 a 2.58,2.58 0 0 1 1,0.92 2.44,2.44 0 0 1 0.38,1.37 2.62,2.62 0 0 1 -0.42,1.48 2.8,2.8 0 0 1 -1.14,1 3.73,3.73 0 0 1 -1.62,0.34 3.59,3.59 0 0 1 -2.76,-1.08 4.4,4.4 0 0 1 -1,-3.08 5.15,5.15 0 0 1 0.54,-2.45 3.68,3.68 0 0 1 1.5,-1.55 4.63,4.63 0 0 1 2.24,-0.53 5.43,5.43 0 0 1 1.29,0.15 3.35,3.35 0 0 1 1,0.43 l -0.72,1.43 A 2.74,2.74 0 0 0 14,102.2 a 2.26,2.26 0 0 0 -1.69,0.62 2.59,2.59 0 0 0 -0.67,1.81 2.8,2.8 0 0 1 2.07,-0.74 3.37,3.37 0 0 1 1.51,0.32 z m -0.85,3.3 a 1.14,1.14 0 0 0 0.39,-0.91 1.17,1.17 0 0 0 -0.39,-0.92 1.52,1.52 0 0 0 -1,-0.34 1.56,1.56 0 0 0 -1,0.35 1.16,1.16 0 0 0 -0.41,0.91 1.12,1.12 0 0 0 0.4,0.9 1.58,1.58 0 0 0 1.08,0.35 1.47,1.47 0 0 0 0.93,-0.34 z"
       transform="translate(0.73,0.5)"
       id="path162"
       inkscape:connector-curvature="0" />
    <path
       d="m 8.24,129.12 v 8.4 H 6.3 v -6.84 H 4.62 v -1.56 z"
       transform="translate(0.73,0.5)"
       id="path164"
       inkscape:connector-curvature="0" />
    <path
       d="m 15.21,133 a 2.37,2.37 0 0 1 0.85,1.9 2.58,2.58 0 0 1 -0.39,1.39 2.66,2.66 0 0 1 -1.17,1 4.47,4.47 0 0 1 -1.94,0.38 6.81,6.81 0 0 1 -1.74,-0.23 4.58,4.58 0 0 1 -1.46,-0.67 l 0.77,-1.49 a 3.68,3.68 0 0 0 1.1,0.56 4.34,4.34 0 0 0 1.29,0.2 2,2 0 0 0 1.15,-0.29 1,1 0 0 0 0,-1.62 3.08,3.08 0 0 0 -1.52,-0.27 H 10 l 0.44,-4.73 h 5.12 v 1.56 H 12 l -0.14,1.59 h 0.69 a 4,4 0 0 1 2.66,0.72 z"
       transform="translate(0.73,0.5)"
       id="path166"
       inkscape:connector-curvature="0" />
    <path
       d="m 8.24,157.48 v 8.4 H 6.3 V 159 H 4.62 v -1.56 z"
       transform="translate(0.73,0.5)"
       id="path168"
       inkscape:connector-curvature="0" />
    <path
       d="M 17.4,164.11 H 16 v 1.77 h -1.86 v -1.77 H 9.61 v -1.3 l 4,-5.33 h 2 l -3.67,5.05 H 14.2 V 161 H 16 v 1.57 h 1.4 z"
       transform="translate(0.73,0.5)"
       id="path170"
       inkscape:connector-curvature="0" />
    <path
       d="m 8.24,185.84 v 8.4 H 6.3 V 187.4 H 4.62 v -1.56 z"
       transform="translate(0.73,0.5)"
       id="path172"
       inkscape:connector-curvature="0" />
    <path
       d="m 15.32,190.08 a 2.24,2.24 0 0 1 0.59,1.59 2.55,2.55 0 0 1 -0.38,1.35 2.75,2.75 0 0 1 -1.17,1 4.49,4.49 0 0 1 -1.93,0.37 6.4,6.4 0 0 1 -1.74,-0.23 4.48,4.48 0 0 1 -1.46,-0.67 L 10,192 a 3.62,3.62 0 0 0 1.11,0.56 4,4 0 0 0 1.29,0.2 2.05,2.05 0 0 0 1.16,-0.28 0.9,0.9 0 0 0 0.42,-0.8 c 0,-0.69 -0.53,-1 -1.58,-1 h -0.9 v -1.29 l 1.72,-1.95 H 9.65 v -1.56 h 5.88 v 1.26 l -1.9,2.16 a 2.79,2.79 0 0 1 1.69,0.78 z"
       transform="translate(0.73,0.5)"
       id="path174"
       inkscape:connector-curvature="0" />
    <path
       d="m 8.24,214.2 v 8.4 H 6.3 v -6.84 H 4.62 v -1.56 z"
       transform="translate(0.73,0.5)"
       id="path176"
       inkscape:connector-curvature="0" />
    <path
       d="m 16,221 v 1.58 H 9.64 v -1.26 l 3.24,-3.06 a 3.45,3.45 0 0 0 0.69,-0.85 1.52,1.52 0 0 0 0.18,-0.7 0.92,0.92 0 0 0 -0.34,-0.77 1.59,1.59 0 0 0 -1,-0.27 2.33,2.33 0 0 0 -1,0.21 1.94,1.94 0 0 0 -0.74,0.63 L 9.25,215.6 a 3.34,3.34 0 0 1 1.36,-1.15 4.44,4.44 0 0 1 2,-0.41 4.17,4.17 0 0 1 1.64,0.3 2.56,2.56 0 0 1 1.09,0.87 2.23,2.23 0 0 1 0.39,1.31 2.93,2.93 0 0 1 -0.29,1.28 4.77,4.77 0 0 1 -1.12,1.37 L 12.37,221 Z"
       transform="translate(0.73,0.5)"
       id="path178"
       inkscape:connector-curvature="0" />
    <path
       d="M 8.24,242.56 V 251 H 6.3 v -6.84 H 4.62 v -1.56 z"
       transform="translate(0.73,0.5)"
       id="path180"
       inkscape:connector-curvature="0" />
    <path
       d="M 13,242.56 V 251 h -2 v -6.84 H 9.32 v -1.56 z"
       transform="translate(0.73,0.5)"
       id="path182"
       inkscape:connector-curvature="0" />
    <path
       d="m 8.24,270.92 v 8.4 H 6.3 v -6.84 H 4.62 v -1.56 z"
       transform="translate(0.73,0.5)"
       id="path184"
       inkscape:connector-curvature="0" />
    <path
       d="m 11.45,279 a 3.42,3.42 0 0 1 -1.28,-1.49 6.16,6.16 0 0 1 0,-4.67 3.5,3.5 0 0 1 1.28,-1.5 3.42,3.42 0 0 1 1.86,-0.51 3.47,3.47 0 0 1 1.86,0.51 3.57,3.57 0 0 1 1.28,1.5 6.16,6.16 0 0 1 0,4.67 3.33,3.33 0 0 1 -3.14,2 3.42,3.42 0 0 1 -1.86,-0.51 z m 3.06,-1.79 a 4.95,4.95 0 0 0 0,-4.08 1.42,1.42 0 0 0 -2.4,0 5.05,5.05 0 0 0 0,4.08 1.42,1.42 0 0 0 2.4,0 z"
       transform="translate(0.73,0.5)"
       id="path186"
       inkscape:connector-curvature="0" />
    <path
       d="m 10.72,300.21 a 4.41,4.41 0 0 1 1,3.09 5.31,5.31 0 0 1 -0.53,2.45 3.65,3.65 0 0 1 -1.51,1.55 4.66,4.66 0 0 1 -2.24,0.53 5.43,5.43 0 0 1 -1.29,-0.15 3.65,3.65 0 0 1 -1,-0.43 l 0.72,-1.43 a 2.72,2.72 0 0 0 1.57,0.42 2.26,2.26 0 0 0 1.69,-0.63 2.65,2.65 0 0 0 0.68,-1.82 2.81,2.81 0 0 1 -2.09,0.76 3.37,3.37 0 0 1 -1.47,-0.32 2.58,2.58 0 0 1 -1,-0.92 2.45,2.45 0 0 1 -0.38,-1.38 2.61,2.61 0 0 1 0.42,-1.47 2.8,2.8 0 0 1 1.14,-1 3.73,3.73 0 0 1 1.57,-0.32 3.62,3.62 0 0 1 2.72,1.07 z m -1.58,2.53 a 1.12,1.12 0 0 0 0.4,-0.9 1.14,1.14 0 0 0 -0.39,-0.9 1.57,1.57 0 0 0 -1.07,-0.35 1.48,1.48 0 0 0 -1,0.34 1.14,1.14 0 0 0 -0.39,0.91 1.17,1.17 0 0 0 0.39,0.92 1.57,1.57 0 0 0 1,0.34 1.51,1.51 0 0 0 1.06,-0.36 z"
       transform="translate(0.73,0.5)"
       id="path188"
       inkscape:connector-curvature="0" />
    <path
       d="m 11.71,332.44 a 2.11,2.11 0 0 1 0.33,1.17 2.16,2.16 0 0 1 -0.45,1.36 2.81,2.81 0 0 1 -1.25,0.9 5,5 0 0 1 -1.86,0.32 5,5 0 0 1 -1.85,-0.32 2.84,2.84 0 0 1 -1.24,-0.9 2.21,2.21 0 0 1 -0.39,-1.36 2,2 0 0 1 0.33,-1.17 2.28,2.28 0 0 1 0.94,-0.81 2.18,2.18 0 0 1 -0.72,-0.73 1.93,1.93 0 0 1 -0.25,-1 2,2 0 0 1 0.4,-1.27 2.68,2.68 0 0 1 1.14,-0.84 4.62,4.62 0 0 1 1.68,-0.29 4.69,4.69 0 0 1 1.7,0.29 2.65,2.65 0 0 1 1.15,0.84 2.05,2.05 0 0 1 0.41,1.27 1.93,1.93 0 0 1 -0.26,1 2.12,2.12 0 0 1 -0.73,0.73 2.41,2.41 0 0 1 0.92,0.81 z m -2.07,2 a 1.12,1.12 0 0 0 0,-1.76 1.9,1.9 0 0 0 -1.16,-0.32 1.86,1.86 0 0 0 -1.14,0.32 1.06,1.06 0 0 0 -0.42,0.88 1,1 0 0 0 0.42,0.88 1.8,1.8 0 0 0 1.14,0.33 1.84,1.84 0 0 0 1.16,-0.34 z m -2.1,-5.22 a 1,1 0 0 0 -0.35,0.77 0.91,0.91 0 0 0 0.35,0.76 1.48,1.48 0 0 0 0.94,0.27 1.56,1.56 0 0 0 1,-0.27 0.92,0.92 0 0 0 0.32,-0.75 0.93,0.93 0 0 0 -0.36,-0.77 1.5,1.5 0 0 0 -1,-0.28 1.46,1.46 0 0 0 -0.9,0.26 z"
       transform="translate(0.73,0.5)"
       id="path190"
       inkscape:connector-curvature="0" />
    <path
       d="m 11.58,356 v 1.26 L 8.46,364.4 H 6.35 l 3,-6.81 H 6.58 V 359 H 4.85 v -3 z"
       transform="translate(0.73,0.5)"
       id="path192"
       inkscape:connector-curvature="0" />
    <path
       d="m 10.51,387.82 a 2.6,2.6 0 0 1 1.05,0.92 2.49,2.49 0 0 1 0.38,1.37 2.62,2.62 0 0 1 -0.42,1.48 2.76,2.76 0 0 1 -1.15,1 3.83,3.83 0 0 1 -1.61,0.34 3.56,3.56 0 0 1 -2.76,-1.1 4.36,4.36 0 0 1 -1,-3.08 5.15,5.15 0 0 1 0.54,-2.45 3.7,3.7 0 0 1 1.51,-1.55 4.61,4.61 0 0 1 2.24,-0.53 5.49,5.49 0 0 1 1.29,0.15 3.35,3.35 0 0 1 1.05,0.43 l -0.72,1.42 a 2.77,2.77 0 0 0 -1.58,-0.42 2.28,2.28 0 0 0 -1.69,0.63 2.62,2.62 0 0 0 -0.64,1.81 2.84,2.84 0 0 1 2.08,-0.74 3.22,3.22 0 0 1 1.43,0.32 z m -0.84,3.3 a 1.17,1.17 0 0 0 0.39,-0.91 1.19,1.19 0 0 0 -0.39,-0.92 1.52,1.52 0 0 0 -1,-0.34 1.57,1.57 0 0 0 -1.05,0.35 1.23,1.23 0 0 0 0,1.81 1.59,1.59 0 0 0 1.08,0.35 1.53,1.53 0 0 0 0.97,-0.34 z"
       transform="translate(0.73,0.5)"
       id="path194"
       inkscape:connector-curvature="0" />
    <path
       d="m 10.51,416.59 a 2.35,2.35 0 0 1 0.84,1.9 2.66,2.66 0 0 1 -0.38,1.39 2.72,2.72 0 0 1 -1.17,1 4.5,4.5 0 0 1 -1.94,0.38 A 7,7 0 0 1 6.11,421 4.52,4.52 0 0 1 4.66,420.33 l 0.76,-1.49 a 3.62,3.62 0 0 0 1.11,0.56 4.23,4.23 0 0 0 1.28,0.2 2,2 0 0 0 1.19,-0.25 0.92,0.92 0 0 0 0.42,-0.81 0.89,0.89 0 0 0 -0.43,-0.81 3,3 0 0 0 -1.52,-0.28 H 5.28 l 0.43,-4.73 h 5.12 v 1.57 h -3.5 l -0.13,1.59 h 0.68 a 4.07,4.07 0 0 1 2.63,0.71 z"
       transform="translate(0.73,0.5)"
       id="path196"
       inkscape:connector-curvature="0" />
    <path
       d="m 12.7,447.72 h -1.37 v 1.77 h -1.9 v -1.77 H 4.91 v -1.31 l 4,-5.32 h 2 l -3.67,5.05 h 2.25 v -1.57 h 1.84 v 1.57 h 1.37 z"
       transform="translate(0.73,0.5)"
       id="path198"
       inkscape:connector-curvature="0" />
    <path
       d="m 10.63,473.69 a 2.28,2.28 0 0 1 0.59,1.59 2.47,2.47 0 0 1 -0.39,1.35 2.66,2.66 0 0 1 -1.16,1 A 4.49,4.49 0 0 1 7.74,478 6.89,6.89 0 0 1 6,477.76 4.58,4.58 0 0 1 4.54,477.09 L 5.3,475.6 a 3.62,3.62 0 0 0 1.11,0.56 4.34,4.34 0 0 0 1.29,0.2 2.1,2.1 0 0 0 1.15,-0.28 0.92,0.92 0 0 0 0.42,-0.8 c 0,-0.69 -0.52,-1 -1.57,-1 H 6.8 V 473 l 1.73,-2 H 5 v -1.56 h 5.87 v 1.26 l -1.89,2.16 a 2.82,2.82 0 0 1 1.65,0.83 z"
       transform="translate(0.73,0.5)"
       id="path200"
       inkscape:connector-curvature="0" />
    <path
       d="m 11.28,504.62 v 1.59 H 4.93 V 505 l 3.24,-3.06 a 3.31,3.31 0 0 0 0.7,-0.85 1.52,1.52 0 0 0 0.18,-0.7 0.94,0.94 0 0 0 -0.34,-0.77 1.62,1.62 0 0 0 -1,-0.27 2.25,2.25 0 0 0 -1,0.21 1.9,1.9 0 0 0 -0.75,0.63 l -1.41,-0.92 a 3.36,3.36 0 0 1 1.35,-1.14 4.5,4.5 0 0 1 2,-0.42 4.14,4.14 0 0 1 1.64,0.31 2.49,2.49 0 0 1 1.09,0.86 2.26,2.26 0 0 1 0.39,1.32 3,3 0 0 1 -0.28,1.28 5.14,5.14 0 0 1 -1.14,1.32 l -1.93,1.82 z"
       transform="translate(0.73,0.5)"
       id="path202"
       inkscape:connector-curvature="0" />
    <path
       d="m 8.24,526.17 v 8.4 H 6.3 v -6.84 H 4.62 v -1.56 z"
       transform="translate(0.73,0.5)"
       id="path204"
       inkscape:connector-curvature="0" />
    <line
       class="cls-1"
       x1="361.29001"
       y1="397.35001"
       x2="567.65997"
       y2="397.35001"
       id="line206"
       style="fill:none;stroke:#0000ff;stroke-miterlimit:10" />
    <line
       class="cls-1"
       x1="361.29001"
       y1="425.70001"
       x2="567.65997"
       y2="425.70001"
       id="line208"
       style="fill:none;stroke:#0000ff;stroke-miterlimit:10" />
    <line
       class="cls-1"
       x1="361.29001"
       y1="454.04001"
       x2="567.65997"
       y2="454.04001"
       id="line210"
       style="fill:none;stroke:#0000ff;stroke-miterlimit:10" />
    <line
       class="cls-1"
       x1="227.5"
       y1="567.21002"
       x2="227.5"
       y2="460.82001"
       id="line212"
       style="fill:none;stroke:#0000ff;stroke-miterlimit:10" />
    <line
       class="cls-1"
       x1="255.85001"
       y1="567.21002"
       x2="255.85001"
       y2="460.82001"
       id="line214"
       style="fill:none;stroke:#0000ff;stroke-miterlimit:10" />
    <line
       class="cls-1"
       x1="284.20001"
       y1="567.21002"
       x2="284.20001"
       y2="460.82001"
       id="line216"
       style="fill:none;stroke:#0000ff;stroke-miterlimit:10" />
    <line
       class="cls-1"
       x1="312.54001"
       y1="567.21002"
       x2="312.54001"
       y2="460.82001"
       id="line218"
       style="fill:none;stroke:#0000ff;stroke-miterlimit:10" />
    <line
       class="cls-1"
       x1="340.89001"
       y1="567.21002"
       x2="340.89001"
       y2="460.82001"
       id="line220"
       style="fill:none;stroke:#0000ff;stroke-miterlimit:10" />
  </g>
  <g
     id="top">
    <g
       id="CIRCLE">
      <path
         class="cls-2"
         d="M 237.87,252.31 A 14.17,14.17 0 1 1 252,266.47 14.16,14.16 0 0 1 237.84,252.31 Z"
         transform="translate(0.73,0.5)"
         id="path223"
         inkscape:connector-curvature="0"
         style="fill:none;stroke:#ff0000;stroke-linecap:round;stroke-linejoin:round" />
    </g>
    <g
       id="CIRCLE-2"
       data-name="CIRCLE">
      <path
         class="cls-2"
         d="m 300.19,314.62 a 14.16,14.16 0 1 1 14.16,14.16 14.16,14.16 0 0 1 -14.16,-14.16 z"
         transform="translate(0.73,0.5)"
         id="path226"
         inkscape:connector-curvature="0"
         style="fill:none;stroke:#ff0000;stroke-linecap:round;stroke-linejoin:round" />
    </g>
    <g
       id="CIRCLE-3"
       data-name="CIRCLE">
      <path
         class="cls-2"
         d="M 129.53,71 A 25.49,25.49 0 1 1 155,96.52 25.49,25.49 0 0 1 129.53,71 Z"
         transform="translate(0.73,0.5)"
         id="path229"
         inkscape:connector-curvature="0"
         style="fill:none;stroke:#ff0000;stroke-linecap:round;stroke-linejoin:round" />
    </g>
    <g
       id="CIRCLE-4"
       data-name="CIRCLE">
      <path
         class="cls-2"
         d="m 385.87,495.9 a 25.49,25.49 0 1 1 25.49,25.49 25.49,25.49 0 0 1 -25.49,-25.49 z"
         transform="translate(0.73,0.5)"
         id="path232"
         inkscape:connector-curvature="0"
         style="fill:none;stroke:#ff0000;stroke-linecap:round;stroke-linejoin:round" />
    </g>
    <g
       id="CIRCLE-5"
       data-name="CIRCLE">
      <path
         class="cls-2"
         d="M 385.87,71 A 25.49,25.49 0 1 1 411.36,96.49 25.49,25.49 0 0 1 385.87,71 Z"
         transform="translate(0.73,0.5)"
         id="path235"
         inkscape:connector-curvature="0"
         style="fill:none;stroke:#ff0000;stroke-linecap:round;stroke-linejoin:round" />
    </g>
    <g
       id="CIRCLE-6"
       data-name="CIRCLE">
      <path
         class="cls-2"
         d="M 129.53,495.9 A 25.49,25.49 0 1 1 155,521.39 25.49,25.49 0 0 1 129.51,495.9 Z"
         transform="translate(0.73,0.5)"
         id="path238"
         inkscape:connector-curvature="0"
         style="fill:none;stroke:#ff0000;stroke-linecap:round;stroke-linejoin:round" />
    </g>
    <rect
       class="cls-2"
       x="0.5"
       y="0.5"
       width="566.92999"
       height="566.92999"
       id="rect241"
       style="fill:none;stroke:#ff0000;stroke-linecap:round;stroke-linejoin:round" />
  </g>
</svg>
