<?xml version="1.0" encoding="UTF-8" standalone="no"?>
<svg
   xmlns:dc="http://purl.org/dc/elements/1.1/"
   xmlns:cc="http://creativecommons.org/ns#"
   xmlns:rdf="http://www.w3.org/1999/02/22-rdf-syntax-ns#"
   xmlns:svg="http://www.w3.org/2000/svg"
   xmlns="http://www.w3.org/2000/svg"
   xmlns:sodipodi="http://sodipodi.sourceforge.net/DTD/sodipodi-0.dtd"
   xmlns:inkscape="http://www.inkscape.org/namespaces/inkscape"
   id="bottom"
   viewBox="0 0 567.93 567.93"
   version="1.1"
   sodipodi:docname="Y_Gantry_20x20_bottom.svg"
   width="150.26482mm"
   height="150.26482mm"
   inkscape:version="0.92.2 5c3e80d, 2017-08-06">
  <metadata
     id="metadata31">
    <rdf:RDF>
      <cc:Work
         rdf:about="">
        <dc:format>image/svg+xml</dc:format>
        <dc:type
           rdf:resource="http://purl.org/dc/dcmitype/StillImage" />
        <dc:title>Y_Gantry_20x20_bottom</dc:title>
      </cc:Work>
    </rdf:RDF>
  </metadata>
  <sodipodi:namedview
     pagecolor="#ffffff"
     bordercolor="#666666"
     borderopacity="1"
     objecttolerance="10"
     gridtolerance="10"
     guidetolerance="10"
     inkscape:pageopacity="0"
     inkscape:pageshadow="2"
     inkscape:window-width="640"
     inkscape:window-height="480"
     id="namedview29"
     showgrid="false"
     inkscape:document-units="mm"
     units="mm"
     inkscape:zoom="0.41554417"
     inkscape:cx="283.965"
     inkscape:cy="283.965"
     inkscape:window-x="109"
     inkscape:window-y="0"
     inkscape:window-maximized="0"
     inkscape:current-layer="bottom" />
  <defs
     id="defs4">
    <style
       id="style2">.cls-1{fill:none;stroke:red;stroke-linecap:round;stroke-linejoin:round;}</style>
  </defs>
  <title
     id="title6">Y_Gantry_20x20_bottom</title>
  <rect
     class="cls-1"
     x="0.5"
     y="0.5"
     width="566.92999"
     height="566.92999"
     id="rect8"
     style="fill:none;stroke:#ff0000;stroke-linecap:round;stroke-linejoin:round" />
  <g
     id="CIRCLE">
    <path
       class="cls-1"
       d="m 404.28,71 a 7.08,7.08 0 1 1 7.08,7.08 7.08,7.08 0 0 1 -7.08,-7.08 z"
       transform="translate(0.73,0.5)"
       id="path10"
       inkscape:connector-curvature="0"
       style="fill:none;stroke:#ff0000;stroke-linecap:round;stroke-linejoin:round" />
  </g>
  <g
     id="CIRCLE-2"
     data-name="CIRCLE">
    <path
       class="cls-1"
       d="m 245,252.31 a 7.09,7.09 0 1 1 7.08,7.08 7.08,7.08 0 0 1 -7.08,-7.08 z"
       transform="translate(0.73,0.5)"
       id="path13"
       inkscape:connector-curvature="0"
       style="fill:none;stroke:#ff0000;stroke-linecap:round;stroke-linejoin:round" />
  </g>
  <g
     id="CIRCLE-3"
     data-name="CIRCLE">
    <path
       class="cls-1"
       d="M 144.94,71 A 10.09,10.09 0 1 1 155,81.11 10.08,10.08 0 0 1 144.94,71 Z"
       transform="translate(0.73,0.5)"
       id="path16"
       inkscape:connector-curvature="0"
       style="fill:none;stroke:#ff0000;stroke-linecap:round;stroke-linejoin:round" />
  </g>
  <g
     id="CIRCLE-4"
     data-name="CIRCLE">
    <path
       class="cls-1"
       d="M 144.94,495.9 A 10.09,10.09 0 1 1 155,506 10.08,10.08 0 0 1 144.92,495.92 Z"
       transform="translate(0.73,0.5)"
       id="path19"
       inkscape:connector-curvature="0"
       style="fill:none;stroke:#ff0000;stroke-linecap:round;stroke-linejoin:round" />
  </g>
  <g
     id="CIRCLE-5"
     data-name="CIRCLE">
    <path
       class="cls-1"
       d="m 307.27,314.62 a 7.08,7.08 0 1 1 7.08,7.08 7.08,7.08 0 0 1 -7.08,-7.08 z"
       transform="translate(0.73,0.5)"
       id="path22"
       inkscape:connector-curvature="0"
       style="fill:none;stroke:#ff0000;stroke-linecap:round;stroke-linejoin:round" />
  </g>
  <g
     id="CIRCLE-6"
     data-name="CIRCLE">
    <path
       class="cls-1"
       d="m 404.28,495.9 a 7.08,7.08 0 1 1 7.08,7.08 7.08,7.08 0 0 1 -7.08,-7.08 z"
       transform="translate(0.73,0.5)"
       id="path25"
       inkscape:connector-curvature="0"
       style="fill:none;stroke:#ff0000;stroke-linecap:round;stroke-linejoin:round" />
  </g>
</svg>
