<svg id="bottom" xmlns="http://www.w3.org/2000/svg" viewBox="0 0 709.66 567.93"><defs><style>.cls-1{fill:none;stroke:red;stroke-linecap:round;stroke-linejoin:round;}</style></defs><title>Y_Gantry_bottom</title><g id="CIRCLE"><path class="cls-1" d="M475.15,70.81a7.08,7.08,0,1,1,7.08,7.08,7.08,7.08,0,0,1-7.08-7.08Z" transform="translate(0.5 0.72)"/></g><g id="CIRCLE-2" data-name="CIRCLE"><path class="cls-1" d="M315.82,252.09a7.08,7.08,0,1,1,7.08,7.08,7.08,7.08,0,0,1-7.08-7.08Z" transform="translate(0.5 0.72)"/></g><g id="CIRCLE-3" data-name="CIRCLE"><path class="cls-1" d="M215.81,70.81A10.08,10.08,0,1,1,225.89,80.9a10.08,10.08,0,0,1-10.08-10.09Z" transform="translate(0.5 0.72)"/></g><g id="CIRCLE-4" data-name="CIRCLE"><path class="cls-1" d="M215.81,495.68a10.08,10.08,0,1,1,10.08,10.08,10.08,10.08,0,0,1-10.08-10.08Z" transform="translate(0.5 0.72)"/></g><g id="CIRCLE-5" data-name="CIRCLE"><path class="cls-1" d="M378.13,314.4a7.09,7.09,0,1,1,7.08,7.08,7.08,7.08,0,0,1-7.08-7.08Z" transform="translate(0.5 0.72)"/></g><g id="CIRCLE-6" data-name="CIRCLE"><path class="cls-1" d="M475.15,495.68a7.08,7.08,0,1,1,7.08,7.08,7.08,7.08,0,0,1-7.08-7.08Z" transform="translate(0.5 0.72)"/></g><rect class="cls-1" x="0.5" y="0.5" width="708.66" height="566.93"/></svg>