<?xml version="1.0" encoding="UTF-8" standalone="no"?>
<svg
   xmlns:dc="http://purl.org/dc/elements/1.1/"
   xmlns:cc="http://creativecommons.org/ns#"
   xmlns:rdf="http://www.w3.org/1999/02/22-rdf-syntax-ns#"
   xmlns:svg="http://www.w3.org/2000/svg"
   xmlns="http://www.w3.org/2000/svg"
   xmlns:sodipodi="http://sodipodi.sourceforge.net/DTD/sodipodi-0.dtd"
   xmlns:inkscape="http://www.inkscape.org/namespaces/inkscape"
   id="top"
   viewBox="0 0 709.66 567.93"
   version="1.1"
   sodipodi:docname="Y_Gantry_top.svg"
   width="187.76421mm"
   height="150.26482mm"
   inkscape:version="0.92.2 5c3e80d, 2017-08-06">
  <metadata
     id="metadata31">
    <rdf:RDF>
      <cc:Work
         rdf:about="">
        <dc:format>image/svg+xml</dc:format>
        <dc:type
           rdf:resource="http://purl.org/dc/dcmitype/StillImage" />
        <dc:title>Y_Gantry_top</dc:title>
      </cc:Work>
    </rdf:RDF>
  </metadata>
  <sodipodi:namedview
     pagecolor="#ffffff"
     bordercolor="#666666"
     borderopacity="1"
     objecttolerance="10"
     gridtolerance="10"
     guidetolerance="10"
     inkscape:pageopacity="0"
     inkscape:pageshadow="2"
     inkscape:window-width="640"
     inkscape:window-height="480"
     id="namedview29"
     showgrid="false"
     units="mm"
     inkscape:document-units="mm"
     inkscape:zoom="0.41554417"
     inkscape:cx="354.82999"
     inkscape:cy="283.965"
     inkscape:window-x="0"
     inkscape:window-y="0"
     inkscape:window-maximized="0"
     inkscape:current-layer="top" />
  <defs
     id="defs4">
    <style
       id="style2">.cls-1{fill:none;stroke:red;stroke-linecap:round;stroke-linejoin:round;}</style>
  </defs>
  <title
     id="title6">Y_Gantry_top</title>
  <g
     id="CIRCLE">
    <path
       class="cls-1"
       d="m 308.74,252.31 a 14.16,14.16 0 1 1 14.16,14.16 14.16,14.16 0 0 1 -14.16,-14.16 z"
       transform="translate(0.5,0.5)"
       id="path8"
       inkscape:connector-curvature="0"
       style="fill:none;stroke:#ff0000;stroke-linecap:round;stroke-linejoin:round" />
  </g>
  <g
     id="CIRCLE-2"
     data-name="CIRCLE">
    <path
       class="cls-1"
       d="m 371.05,314.62 a 14.17,14.17 0 1 1 14.16,14.16 14.16,14.16 0 0 1 -14.16,-14.16 z"
       transform="translate(0.5,0.5)"
       id="path11"
       inkscape:connector-curvature="0"
       style="fill:none;stroke:#ff0000;stroke-linecap:round;stroke-linejoin:round" />
  </g>
  <g
     id="CIRCLE-3"
     data-name="CIRCLE">
    <path
       class="cls-1"
       d="M 200.4,71 A 25.49,25.49 0 1 1 225.89,96.49 25.49,25.49 0 0 1 200.4,71 Z"
       transform="translate(0.5,0.5)"
       id="path14"
       inkscape:connector-curvature="0"
       style="fill:none;stroke:#ff0000;stroke-linecap:round;stroke-linejoin:round" />
  </g>
  <g
     id="CIRCLE-4"
     data-name="CIRCLE">
    <path
       class="cls-1"
       d="m 456.73,495.9 a 25.5,25.5 0 1 1 25.5,25.49 25.5,25.5 0 0 1 -25.5,-25.49 z"
       transform="translate(0.5,0.5)"
       id="path17"
       inkscape:connector-curvature="0"
       style="fill:none;stroke:#ff0000;stroke-linecap:round;stroke-linejoin:round" />
  </g>
  <g
     id="CIRCLE-5"
     data-name="CIRCLE">
    <path
       class="cls-1"
       d="M 456.73,71 A 25.5,25.5 0 1 1 482.23,96.49 25.5,25.5 0 0 1 456.73,71 Z"
       transform="translate(0.5,0.5)"
       id="path20"
       inkscape:connector-curvature="0"
       style="fill:none;stroke:#ff0000;stroke-linecap:round;stroke-linejoin:round" />
  </g>
  <g
     id="CIRCLE-6"
     data-name="CIRCLE">
    <path
       class="cls-1"
       d="M 200.4,495.9 A 25.49,25.49 0 1 1 225.89,521.39 25.49,25.49 0 0 1 200.4,495.9 Z"
       transform="translate(0.5,0.5)"
       id="path23"
       inkscape:connector-curvature="0"
       style="fill:none;stroke:#ff0000;stroke-linecap:round;stroke-linejoin:round" />
  </g>
  <rect
     class="cls-1"
     x="0.5"
     y="0.5"
     width="708.65997"
     height="566.92999"
     id="rect26"
     style="fill:none;stroke:#ff0000;stroke-linecap:round;stroke-linejoin:round" />
</svg>
