<?xml version="1.0" encoding="UTF-8" standalone="no"?>
<svg
   xmlns:dc="http://purl.org/dc/elements/1.1/"
   xmlns:cc="http://creativecommons.org/ns#"
   xmlns:rdf="http://www.w3.org/1999/02/22-rdf-syntax-ns#"
   xmlns:svg="http://www.w3.org/2000/svg"
   xmlns="http://www.w3.org/2000/svg"
   viewBox="0 0 755.90533 755.90533"
   height="200mm"
   width="200mm"
   xml:space="preserve"
   id="svg2"
   version="1.1"><metadata
     id="metadata8"><rdf:RDF><cc:Work
         rdf:about=""><dc:format>image/svg+xml</dc:format><dc:type
           rdf:resource="http://purl.org/dc/dcmitype/StillImage" /></cc:Work></rdf:RDF></metadata><defs
     id="defs6"><clipPath
       id="clipPath18"
       clipPathUnits="userSpaceOnUse"><path
         id="path16"
         d="M 0,566.929 H 566.929 V 0 H 0 Z" /></clipPath><clipPath
       id="clipPath50"
       clipPathUnits="userSpaceOnUse"><path
         id="path48"
         d="M 0,566.929 H 566.929 V 0 H 0 Z" /></clipPath></defs><g
     transform="matrix(1.3333333,0,0,-1.3333333,0,755.90533)"
     id="g10"><g
       id="g12"><g
         clip-path="url(#clipPath18)"
         id="g14"><g
           transform="translate(404.2793,495.8994)"
           id="g20"><path
             id="path22"
             style="fill:none;stroke:#ff0000;stroke-width:1;stroke-linecap:round;stroke-linejoin:round;stroke-miterlimit:10;stroke-dasharray:none;stroke-opacity:1"
             d="m 0,0 c 0,3.911 3.171,7.081 7.081,7.081 3.911,0 7.081,-3.17 7.081,-7.081 0,-3.911 -3.17,-7.081 -7.081,-7.081 C 3.171,-7.081 0,-3.911 0,0 Z" /></g><g
           transform="translate(244.9536,314.6215)"
           id="g24"><path
             id="path26"
             style="fill:none;stroke:#ff0000;stroke-width:1;stroke-linecap:round;stroke-linejoin:round;stroke-miterlimit:10;stroke-dasharray:none;stroke-opacity:1"
             d="m 0,0 c 0,3.911 3.17,7.081 7.081,7.081 3.911,0 7.081,-3.17 7.081,-7.081 0,-3.911 -3.17,-7.081 -7.081,-7.081 C 3.17,-7.081 0,-3.911 0,0 Z" /></g><g
           transform="translate(144.9395,495.8994)"
           id="g28"><path
             id="path30"
             style="fill:none;stroke:#ff0000;stroke-width:1;stroke-linecap:round;stroke-linejoin:round;stroke-miterlimit:10;stroke-dasharray:none;stroke-opacity:1"
             d="m 0,0 c 0,5.569 4.514,10.083 10.083,10.083 5.569,0 10.084,-4.514 10.084,-10.083 0,-5.569 -4.515,-10.083 -10.084,-10.083 C 4.514,-10.083 0,-5.569 0,0 Z" /></g><g
           transform="translate(144.9395,71.0297)"
           id="g32"><path
             id="path34"
             style="fill:none;stroke:#ff0000;stroke-width:1;stroke-linecap:round;stroke-linejoin:round;stroke-miterlimit:10;stroke-dasharray:none;stroke-opacity:1"
             d="m 0,0 c 0,5.569 4.514,10.084 10.083,10.084 5.569,0 10.084,-4.515 10.084,-10.084 0,-5.569 -4.515,-10.083 -10.084,-10.083 C 4.514,-10.083 0,-5.569 0,0 Z" /></g><g
           transform="translate(307.2676,252.3071)"
           id="g36"><path
             id="path38"
             style="fill:none;stroke:#ff0000;stroke-width:1;stroke-linecap:round;stroke-linejoin:round;stroke-miterlimit:10;stroke-dasharray:none;stroke-opacity:1"
             d="m 0,0 c 0,3.911 3.171,7.081 7.081,7.081 3.911,0 7.081,-3.17 7.081,-7.081 0,-3.91 -3.17,-7.081 -7.081,-7.081 C 3.171,-7.081 0,-3.91 0,0 Z" /></g><g
           transform="translate(404.2793,71.0297)"
           id="g40"><path
             id="path42"
             style="fill:none;stroke:#ff0000;stroke-width:1;stroke-linecap:round;stroke-linejoin:round;stroke-miterlimit:10;stroke-dasharray:none;stroke-opacity:1"
             d="m 0,0 c 0,3.911 3.171,7.081 7.081,7.081 3.911,0 7.081,-3.17 7.081,-7.081 0,-3.911 -3.17,-7.081 -7.081,-7.081 C 3.171,-7.081 0,-3.911 0,0 Z" /></g></g></g><g
       id="g44"><g
         clip-path="url(#clipPath50)"
         id="g46"><path
           id="path52"
           style="fill:none;stroke:#ff0000;stroke-width:1;stroke-linecap:round;stroke-linejoin:round;stroke-miterlimit:10;stroke-dasharray:none;stroke-opacity:1"
           d="M -0.01,566.939 H 0 v -0.01 h -0.01 z" /><path
           id="path54"
           style="fill:none;stroke:#ff0000;stroke-width:1;stroke-linecap:round;stroke-linejoin:round;stroke-miterlimit:10;stroke-dasharray:none;stroke-opacity:1"
           d="m 566.939,566.939 h -0.011 v -0.01 h 0.011 z" /><path
           id="path56"
           style="fill:none;stroke:#ff0000;stroke-width:1;stroke-linecap:round;stroke-linejoin:round;stroke-miterlimit:10;stroke-dasharray:none;stroke-opacity:1"
           d="m 566.939,-0.01 h -0.011 v 0.011 h 0.011 z" /><path
           id="path58"
           style="fill:none;stroke:#ff0000;stroke-width:1;stroke-linecap:round;stroke-linejoin:round;stroke-miterlimit:10;stroke-dasharray:none;stroke-opacity:1"
           d="M -0.01,-0.01 H 0 v 0.011 h -0.01 z" /></g></g></g></svg>