<?xml version="1.0" encoding="UTF-8" standalone="no"?>
<svg
   xmlns:dc="http://purl.org/dc/elements/1.1/"
   xmlns:cc="http://creativecommons.org/ns#"
   xmlns:rdf="http://www.w3.org/1999/02/22-rdf-syntax-ns#"
   xmlns:svg="http://www.w3.org/2000/svg"
   xmlns="http://www.w3.org/2000/svg"
   viewBox="0 0 755.90533 755.90533"
   height="200mm"
   width="200mm"
   xml:space="preserve"
   id="svg2"
   version="1.1"><metadata
     id="metadata8"><rdf:RDF><cc:Work
         rdf:about=""><dc:format>image/svg+xml</dc:format><dc:type
           rdf:resource="http://purl.org/dc/dcmitype/StillImage" /></cc:Work></rdf:RDF></metadata><defs
     id="defs6"><clipPath
       id="clipPath18"
       clipPathUnits="userSpaceOnUse"><path
         id="path16"
         d="M 0,566.929 H 566.929 V 0 H 0 Z" /></clipPath><clipPath
       id="clipPath188"
       clipPathUnits="userSpaceOnUse"><path
         id="path186"
         d="M 0,566.929 H 566.929 V 0 H 0 Z" /></clipPath><clipPath
       id="clipPath460"
       clipPathUnits="userSpaceOnUse"><path
         id="path458"
         d="M 0,566.929 H 566.929 V 0 H 0 Z" /></clipPath><clipPath
       id="clipPath492"
       clipPathUnits="userSpaceOnUse"><path
         id="path490"
         d="M 0,566.929 H 566.929 V 0 H 0 Z" /></clipPath></defs><g
     transform="matrix(1.3333333,0,0,-1.3333333,0,755.90533)"
     id="g10"><g
       id="g12"><g
         clip-path="url(#clipPath18)"
         id="g14"><g
           transform="translate(28.3467,0.2182)"
           id="g20"><path
             id="path22"
             style="fill:none;stroke:#0000ff;stroke-width:1;stroke-linecap:butt;stroke-linejoin:miter;stroke-miterlimit:10;stroke-dasharray:none;stroke-opacity:1"
             d="M 0,0 V 566.929" /></g><g
           transform="translate(56.6929,0.2182)"
           id="g24"><path
             id="path26"
             style="fill:none;stroke:#0000ff;stroke-width:1;stroke-linecap:butt;stroke-linejoin:miter;stroke-miterlimit:10;stroke-dasharray:none;stroke-opacity:1"
             d="M 0,0 V 566.929" /></g><g
           transform="translate(85.0396,0.2182)"
           id="g28"><path
             id="path30"
             style="fill:none;stroke:#0000ff;stroke-width:1;stroke-linecap:butt;stroke-linejoin:miter;stroke-miterlimit:10;stroke-dasharray:none;stroke-opacity:1"
             d="M 0,0 V 566.929" /></g><g
           transform="translate(113.3857,0.2182)"
           id="g32"><path
             id="path34"
             style="fill:none;stroke:#0000ff;stroke-width:1;stroke-linecap:butt;stroke-linejoin:miter;stroke-miterlimit:10;stroke-dasharray:none;stroke-opacity:1"
             d="M 0,0 V 566.929" /></g><g
           transform="translate(141.7324,0.2182)"
           id="g36"><path
             id="path38"
             style="fill:none;stroke:#0000ff;stroke-width:1;stroke-linecap:butt;stroke-linejoin:miter;stroke-miterlimit:10;stroke-dasharray:none;stroke-opacity:1"
             d="M 0,0 V 566.929" /></g><g
           transform="translate(170.0786,0.2182)"
           id="g40"><path
             id="path42"
             style="fill:none;stroke:#0000ff;stroke-width:1;stroke-linecap:butt;stroke-linejoin:miter;stroke-miterlimit:10;stroke-dasharray:none;stroke-opacity:1"
             d="M 0,0 V 566.929" /></g><g
           transform="translate(198.4253,0.2182)"
           id="g44"><path
             id="path46"
             style="fill:none;stroke:#0000ff;stroke-width:1;stroke-linecap:butt;stroke-linejoin:miter;stroke-miterlimit:10;stroke-dasharray:none;stroke-opacity:1"
             d="M 0,0 V 566.929" /></g><g
           transform="translate(226.7715,176.603)"
           id="g48"><path
             id="path50"
             style="fill:none;stroke:#0000ff;stroke-width:1;stroke-linecap:butt;stroke-linejoin:miter;stroke-miterlimit:10;stroke-dasharray:none;stroke-opacity:1"
             d="M 0,0 V 390.544" /></g><g
           transform="translate(255.1182,176.603)"
           id="g52"><path
             id="path54"
             style="fill:none;stroke:#0000ff;stroke-width:1;stroke-linecap:butt;stroke-linejoin:miter;stroke-miterlimit:10;stroke-dasharray:none;stroke-opacity:1"
             d="M 0,0 V 390.544" /></g><g
           transform="translate(283.4644,176.603)"
           id="g56"><path
             id="path58"
             style="fill:none;stroke:#0000ff;stroke-width:1;stroke-linecap:butt;stroke-linejoin:miter;stroke-miterlimit:10;stroke-dasharray:none;stroke-opacity:1"
             d="M 0,0 V 390.544" /></g><g
           transform="translate(311.8105,176.603)"
           id="g60"><path
             id="path62"
             style="fill:none;stroke:#0000ff;stroke-width:1;stroke-linecap:butt;stroke-linejoin:miter;stroke-miterlimit:10;stroke-dasharray:none;stroke-opacity:1"
             d="M 0,0 V 390.544" /></g><g
           transform="translate(340.1572,176.603)"
           id="g64"><path
             id="path66"
             style="fill:none;stroke:#0000ff;stroke-width:1;stroke-linecap:butt;stroke-linejoin:miter;stroke-miterlimit:10;stroke-dasharray:none;stroke-opacity:1"
             d="M 0,0 V 390.544" /></g><g
           transform="translate(368.5039,0.2182)"
           id="g68"><path
             id="path70"
             style="fill:none;stroke:#0000ff;stroke-width:1;stroke-linecap:butt;stroke-linejoin:miter;stroke-miterlimit:10;stroke-dasharray:none;stroke-opacity:1"
             d="M 0,0 V 566.929" /></g><g
           transform="translate(396.8506,0.2182)"
           id="g72"><path
             id="path74"
             style="fill:none;stroke:#0000ff;stroke-width:1;stroke-linecap:butt;stroke-linejoin:miter;stroke-miterlimit:10;stroke-dasharray:none;stroke-opacity:1"
             d="M 0,0 V 566.929" /></g><g
           transform="translate(425.1973,0.2182)"
           id="g76"><path
             id="path78"
             style="fill:none;stroke:#0000ff;stroke-width:1;stroke-linecap:butt;stroke-linejoin:miter;stroke-miterlimit:10;stroke-dasharray:none;stroke-opacity:1"
             d="M 0,0 V 566.929" /></g><g
           transform="translate(453.543,0.2182)"
           id="g80"><path
             id="path82"
             style="fill:none;stroke:#0000ff;stroke-width:1;stroke-linecap:butt;stroke-linejoin:miter;stroke-miterlimit:10;stroke-dasharray:none;stroke-opacity:1"
             d="M 0,0 V 566.929" /></g><g
           transform="translate(481.8896,0.2182)"
           id="g84"><path
             id="path86"
             style="fill:none;stroke:#0000ff;stroke-width:1;stroke-linecap:butt;stroke-linejoin:miter;stroke-miterlimit:10;stroke-dasharray:none;stroke-opacity:1"
             d="M 0,0 V 566.929" /></g><g
           transform="translate(510.2363,0.2182)"
           id="g88"><path
             id="path90"
             style="fill:none;stroke:#0000ff;stroke-width:1;stroke-linecap:butt;stroke-linejoin:miter;stroke-miterlimit:10;stroke-dasharray:none;stroke-opacity:1"
             d="M 0,0 V 566.929" /></g><g
           transform="translate(538.583,0.2182)"
           id="g92"><path
             id="path94"
             style="fill:none;stroke:#0000ff;stroke-width:1;stroke-linecap:butt;stroke-linejoin:miter;stroke-miterlimit:10;stroke-dasharray:none;stroke-opacity:1"
             d="M 0,0 V 566.929" /></g><g
           transform="translate(0,538.5825)"
           id="g96"><path
             id="path98"
             style="fill:none;stroke:#0000ff;stroke-width:1;stroke-linecap:butt;stroke-linejoin:miter;stroke-miterlimit:10;stroke-dasharray:none;stroke-opacity:1"
             d="M 0,0 H 566.929" /></g><g
           transform="translate(0,510.2363)"
           id="g100"><path
             id="path102"
             style="fill:none;stroke:#0000ff;stroke-width:1;stroke-linecap:butt;stroke-linejoin:miter;stroke-miterlimit:10;stroke-dasharray:none;stroke-opacity:1"
             d="M 0,0 H 566.929" /></g><g
           transform="translate(0,481.8896)"
           id="g104"><path
             id="path106"
             style="fill:none;stroke:#0000ff;stroke-width:1;stroke-linecap:butt;stroke-linejoin:miter;stroke-miterlimit:10;stroke-dasharray:none;stroke-opacity:1"
             d="M 0,0 H 566.929" /></g><g
           transform="translate(0,453.5434)"
           id="g108"><path
             id="path110"
             style="fill:none;stroke:#0000ff;stroke-width:1;stroke-linecap:butt;stroke-linejoin:miter;stroke-miterlimit:10;stroke-dasharray:none;stroke-opacity:1"
             d="M 0,0 H 566.929" /></g><g
           transform="translate(0,425.1967)"
           id="g112"><path
             id="path114"
             style="fill:none;stroke:#0000ff;stroke-width:1;stroke-linecap:butt;stroke-linejoin:miter;stroke-miterlimit:10;stroke-dasharray:none;stroke-opacity:1"
             d="M 0,0 H 566.929" /></g><g
           transform="translate(0,396.8505)"
           id="g116"><path
             id="path118"
             style="fill:none;stroke:#0000ff;stroke-width:1;stroke-linecap:butt;stroke-linejoin:miter;stroke-miterlimit:10;stroke-dasharray:none;stroke-opacity:1"
             d="M 0,0 H 566.929" /></g><g
           transform="translate(0,368.5038)"
           id="g120"><path
             id="path122"
             style="fill:none;stroke:#0000ff;stroke-width:1;stroke-linecap:butt;stroke-linejoin:miter;stroke-miterlimit:10;stroke-dasharray:none;stroke-opacity:1"
             d="M 0,0 H 566.929" /></g><g
           transform="translate(0,340.1577)"
           id="g124"><path
             id="path126"
             style="fill:none;stroke:#0000ff;stroke-width:1;stroke-linecap:butt;stroke-linejoin:miter;stroke-miterlimit:10;stroke-dasharray:none;stroke-opacity:1"
             d="M 0,0 H 566.929" /></g><g
           transform="translate(0,311.811)"
           id="g128"><path
             id="path130"
             style="fill:none;stroke:#0000ff;stroke-width:1;stroke-linecap:butt;stroke-linejoin:miter;stroke-miterlimit:10;stroke-dasharray:none;stroke-opacity:1"
             d="M 0,0 H 566.929" /></g><g
           transform="translate(0,283.4648)"
           id="g132"><path
             id="path134"
             style="fill:none;stroke:#0000ff;stroke-width:1;stroke-linecap:butt;stroke-linejoin:miter;stroke-miterlimit:10;stroke-dasharray:none;stroke-opacity:1"
             d="M 0,0 H 566.929" /></g><g
           transform="translate(0,255.1186)"
           id="g136"><path
             id="path138"
             style="fill:none;stroke:#0000ff;stroke-width:1;stroke-linecap:butt;stroke-linejoin:miter;stroke-miterlimit:10;stroke-dasharray:none;stroke-opacity:1"
             d="M 0,0 H 566.929" /></g><g
           transform="translate(0,226.7719)"
           id="g140"><path
             id="path142"
             style="fill:none;stroke:#0000ff;stroke-width:1;stroke-linecap:butt;stroke-linejoin:miter;stroke-miterlimit:10;stroke-dasharray:none;stroke-opacity:1"
             d="M 0,0 H 566.929" /></g><g
           transform="translate(0,198.4252)"
           id="g144"><path
             id="path146"
             style="fill:none;stroke:#0000ff;stroke-width:1;stroke-linecap:butt;stroke-linejoin:miter;stroke-miterlimit:10;stroke-dasharray:none;stroke-opacity:1"
             d="M 0,0 H 566.929" /></g><g
           transform="translate(0,170.0786)"
           id="g148"><path
             id="path150"
             style="fill:none;stroke:#0000ff;stroke-width:1;stroke-linecap:butt;stroke-linejoin:miter;stroke-miterlimit:10;stroke-dasharray:none;stroke-opacity:1"
             d="M 0,0 H 205.994" /></g><g
           transform="translate(0,141.7319)"
           id="g152"><path
             id="path154"
             style="fill:none;stroke:#0000ff;stroke-width:1;stroke-linecap:butt;stroke-linejoin:miter;stroke-miterlimit:10;stroke-dasharray:none;stroke-opacity:1"
             d="M 0,0 H 205.994" /></g><g
           transform="translate(0,113.3862)"
           id="g156"><path
             id="path158"
             style="fill:none;stroke:#0000ff;stroke-width:1;stroke-linecap:butt;stroke-linejoin:miter;stroke-miterlimit:10;stroke-dasharray:none;stroke-opacity:1"
             d="M 0,0 H 205.994" /></g><g
           transform="translate(0,85.0395)"
           id="g160"><path
             id="path162"
             style="fill:none;stroke:#0000ff;stroke-width:1;stroke-linecap:butt;stroke-linejoin:miter;stroke-miterlimit:10;stroke-dasharray:none;stroke-opacity:1"
             d="M 0,0 H 566.929" /></g><g
           transform="translate(0,56.6928)"
           id="g164"><path
             id="path166"
             style="fill:none;stroke:#0000ff;stroke-width:1;stroke-linecap:butt;stroke-linejoin:miter;stroke-miterlimit:10;stroke-dasharray:none;stroke-opacity:1"
             d="M 0,0 H 566.929" /></g><g
           transform="translate(0,28.3461)"
           id="g168"><path
             id="path170"
             style="fill:none;stroke:#0000ff;stroke-width:1;stroke-linecap:butt;stroke-linejoin:miter;stroke-miterlimit:10;stroke-dasharray:none;stroke-opacity:1"
             d="M 0,0 H 566.929" /></g></g></g><path
       id="path172"
       style="fill:#000000;fill-opacity:1;fill-rule:nonzero;stroke:none"
       d="M 347.104,120.337 H 219.559 v 42.79 H 347.104 Z M 213.867,114.924 H 352.795 V 168.54 H 213.867 Z" /><g
       transform="translate(238.6968,149.4389)"
       id="g174"><path
         id="path176"
         style="fill:#000000;fill-opacity:1;fill-rule:nonzero;stroke:none"
         d="M 0,0 V -10.981 H -3.203 L -0.001,0.065 0.009,0.03 Z m 96.807,-12.913 v -4.579 H 89.496 V 8.489 H -4.189 l -10.349,-32.877 h 7.436 l 1.83,6.511 h 5.29 v -6.511 H 7.225 V 1.853 H 8.99 V -24.388 H 8.998 32.95 v 6.896 H 17.631 v 6.318 h 9.314 v 6.895 h -9.314 v 5.873 h 22.533 v -25.982 h 9.025 V 1.594 h 8.081 v -25.982 h 21.527 v 6.896 H 66.295 v 6.318 h 9.315 v 6.895 H 66.295 V 1.594 H 80.47 V 1.505 h 0.092 v -18.997 -6.896 h 22.978 0.068 v 11.475 z" /></g><g
       transform="translate(544.8945,12.3998)"
       id="g178"><path
         id="path180"
         style="fill:#000000;fill-opacity:1;fill-rule:nonzero;stroke:none"
         d="m 0,0 v -8.4 h -1.944 v 6.839 h -1.68 V 0 Z" /></g><g
       id="g182"><g
         clip-path="url(#clipPath188)"
         id="g184"><g
           transform="translate(550.4922,8.9379)"
           id="g190"><path
             id="path192"
             style="fill:#000000;fill-opacity:1;fill-rule:nonzero;stroke:none"
             d="m 0,0 c 0.269,0.235 0.402,0.537 0.402,0.905 0,0.368 -0.13,0.668 -0.39,0.901 -0.26,0.231 -0.617,0.347 -1.074,0.347 -0.416,0 -0.754,-0.112 -1.014,-0.336 -0.26,-0.223 -0.39,-0.528 -0.39,-0.912 0,-0.384 0.13,-0.689 0.39,-0.918 0.26,-0.227 0.606,-0.341 1.038,-0.341 0.424,0 0.77,0.118 1.038,0.354 M 1.578,2.531 C 2.242,1.815 2.574,0.785 2.574,-0.559 2.574,-1.511 2.396,-2.326 2.04,-3.007 1.685,-3.687 1.183,-4.202 0.534,-4.555 -0.114,-4.906 -0.862,-5.082 -1.71,-5.082 c -0.448,0 -0.876,0.05 -1.284,0.149 -0.407,0.1 -0.756,0.243 -1.044,0.426 l 0.721,1.429 c 0.407,-0.28 0.931,-0.42 1.571,-0.42 0.712,0 1.276,0.21 1.692,0.63 0.416,0.42 0.64,1.025 0.672,1.817 -0.504,-0.504 -1.2,-0.756 -2.088,-0.756 -0.536,0 -1.024,0.109 -1.464,0.325 -0.44,0.215 -0.788,0.521 -1.044,0.918 -0.256,0.395 -0.383,0.853 -0.383,1.374 0,0.559 0.139,1.051 0.42,1.475 0.279,0.424 0.661,0.75 1.145,0.979 0.484,0.227 1.022,0.341 1.614,0.341 1.176,0 2.096,-0.358 2.76,-1.074" /></g><g
           transform="translate(516.5693,12.3998)"
           id="g194"><path
             id="path196"
             style="fill:#000000;fill-opacity:1;fill-rule:nonzero;stroke:none"
             d="m 0,0 v -8.4 h -1.944 v 6.839 h -1.68 V 0 Z" /></g><g
           transform="translate(520.5713,10.8334)"
           id="g198"><path
             id="path200"
             style="fill:#000000;fill-opacity:1;fill-rule:nonzero;stroke:none"
             d="m 0,0 c -0.236,-0.188 -0.354,-0.446 -0.354,-0.774 0,-0.32 0.116,-0.572 0.348,-0.756 0.232,-0.184 0.548,-0.276 0.948,-0.276 0.4,0 0.72,0.092 0.96,0.276 0.24,0.184 0.36,0.436 0.36,0.756 0,0.328 -0.12,0.586 -0.36,0.774 C 1.662,0.187 1.342,0.282 0.942,0.282 0.55,0.282 0.235,0.187 0,0 m 2.1,-5.22 c 0.284,0.22 0.426,0.514 0.426,0.882 0,0.368 -0.142,0.66 -0.426,0.876 -0.285,0.216 -0.67,0.324 -1.158,0.324 -0.48,0 -0.86,-0.108 -1.14,-0.324 -0.281,-0.216 -0.42,-0.508 -0.42,-0.876 0,-0.376 0.139,-0.672 0.42,-0.888 0.28,-0.216 0.66,-0.324 1.14,-0.324 0.488,0 0.873,0.11 1.158,0.33 m 2.064,1.986 c 0.22,-0.336 0.33,-0.724 0.33,-1.164 0,-0.52 -0.148,-0.974 -0.444,-1.362 -0.296,-0.388 -0.712,-0.688 -1.248,-0.9 -0.536,-0.212 -1.156,-0.318 -1.86,-0.318 -0.704,0 -1.322,0.106 -1.854,0.318 -0.532,0.212 -0.944,0.512 -1.236,0.9 -0.292,0.388 -0.438,0.842 -0.438,1.362 0,0.44 0.109,0.828 0.33,1.164 0.22,0.336 0.534,0.608 0.942,0.816 -0.312,0.192 -0.552,0.434 -0.72,0.726 -0.168,0.292 -0.252,0.626 -0.252,1.002 0,0.488 0.136,0.912 0.408,1.272 0.272,0.36 0.651,0.638 1.14,0.834 C -0.25,1.612 0.31,1.71 0.942,1.71 1.582,1.71 2.147,1.612 2.64,1.416 3.132,1.22 3.514,0.942 3.786,0.582 4.058,0.222 4.194,-0.202 4.194,-0.69 4.194,-1.066 4.11,-1.4 3.942,-1.692 3.773,-1.984 3.529,-2.226 3.21,-2.418 3.626,-2.626 3.943,-2.898 4.164,-3.234" /></g><g
           transform="translate(488.2432,12.2563)"
           id="g202"><path
             id="path204"
             style="fill:#000000;fill-opacity:1;fill-rule:nonzero;stroke:none"
             d="m 0,0 v -8.4 h -1.943 v 6.839 H -3.624 V 0 Z" /></g><g
           transform="translate(496.2832,12.2563)"
           id="g206"><path
             id="path208"
             style="fill:#000000;fill-opacity:1;fill-rule:nonzero;stroke:none"
             d="M 0,0 V -1.261 L -3.12,-8.4 h -2.111 l 3.011,6.816 H -5.004 V -2.952 H -6.731 V 0 Z" /></g><g
           transform="translate(459.918,12.3998)"
           id="g210"><path
             id="path212"
             style="fill:#000000;fill-opacity:1;fill-rule:nonzero;stroke:none"
             d="m 0,0 v -8.4 h -1.943 v 6.839 H -3.624 V 0 Z" /></g><g
           transform="translate(466.0439,5.643)"
           id="g214"><path
             id="path216"
             style="fill:#000000;fill-opacity:1;fill-rule:nonzero;stroke:none"
             d="M 0,0 C 0.26,0.225 0.39,0.528 0.39,0.912 0.39,1.297 0.26,1.603 0,1.83 -0.26,2.059 -0.606,2.173 -1.038,2.173 -1.462,2.173 -1.81,2.055 -2.082,1.818 -2.354,1.582 -2.489,1.28 -2.489,0.912 c 0,-0.368 0.131,-0.668 0.395,-0.899 0.264,-0.233 0.624,-0.349 1.08,-0.349 0.415,0 0.754,0.112 1.014,0.336 M 0.847,3.301 C 1.286,3.084 1.634,2.778 1.89,2.383 2.146,1.986 2.274,1.528 2.274,1.009 c 0,-0.561 -0.14,-1.053 -0.42,-1.477 -0.28,-0.424 -0.662,-0.75 -1.146,-0.977 -0.484,-0.229 -1.021,-0.342 -1.613,-0.342 -1.177,0 -2.097,0.359 -2.761,1.079 -0.664,0.721 -0.996,1.748 -0.996,3.084 0,0.952 0.181,1.769 0.54,2.448 0.36,0.68 0.862,1.197 1.506,1.548 C -1.972,6.725 -1.226,6.9 -0.378,6.9 0.069,6.9 0.5,6.851 0.912,6.75 1.324,6.65 1.675,6.509 1.962,6.324 L 1.242,4.896 c -0.416,0.281 -0.94,0.42 -1.572,0.42 -0.712,0 -1.276,-0.208 -1.692,-0.624 -0.416,-0.416 -0.64,-1.019 -0.672,-1.811 0.496,0.495 1.188,0.743 2.076,0.743 0.536,0 1.024,-0.107 1.465,-0.323" /></g><g
           transform="translate(431.5928,12.3998)"
           id="g218"><path
             id="path220"
             style="fill:#000000;fill-opacity:1;fill-rule:nonzero;stroke:none"
             d="m 0,0 v -8.4 h -1.944 v 6.839 h -1.68 V 0 Z" /></g><g
           transform="translate(438.5586,8.5356)"
           id="g222"><path
             id="path224"
             style="fill:#000000;fill-opacity:1;fill-rule:nonzero;stroke:none"
             d="m 0,0 c 0.564,-0.473 0.846,-1.104 0.846,-1.896 0,-0.512 -0.128,-0.978 -0.384,-1.398 -0.256,-0.42 -0.647,-0.756 -1.17,-1.008 -0.524,-0.252 -1.17,-0.378 -1.938,-0.378 -0.592,0 -1.174,0.077 -1.746,0.234 -0.572,0.156 -1.058,0.378 -1.458,0.666 l 0.768,1.488 c 0.32,-0.24 0.688,-0.426 1.104,-0.559 0.415,-0.131 0.844,-0.197 1.284,-0.197 0.488,0 0.872,0.096 1.152,0.288 0.28,0.192 0.42,0.46 0.42,0.804 0,0.36 -0.146,0.632 -0.438,0.816 -0.293,0.184 -0.798,0.276 -1.518,0.276 h -2.148 l 0.432,4.728 H 0.33 V 2.304 H -3.174 L -3.306,0.708 h 0.684 C -1.438,0.708 -0.564,0.472 0,0" /></g><g
           transform="translate(403.2666,12.2563)"
           id="g226"><path
             id="path228"
             style="fill:#000000;fill-opacity:1;fill-rule:nonzero;stroke:none"
             d="m 0,0 v -8.4 h -1.944 v 6.839 h -1.68 V 0 Z" /></g><g
           transform="translate(412.4229,5.6196)"
           id="g230"><path
             id="path232"
             style="fill:#000000;fill-opacity:1;fill-rule:nonzero;stroke:none"
             d="M 0,0 H -1.368 V -1.764 H -3.265 V 0 h -4.523 v 1.309 l 3.96,5.328 h 2.04 L -5.46,1.584 h 2.256 v 1.572 h 1.836 V 1.584 l 1.368,0 z" /></g><g
           transform="translate(374.9414,12.3998)"
           id="g234"><path
             id="path236"
             style="fill:#000000;fill-opacity:1;fill-rule:nonzero;stroke:none"
             d="m 0,0 v -8.4 h -1.944 v 6.839 h -1.68 V 0 Z" /></g><g
           transform="translate(382.0215,8.1577)"
           id="g238"><path
             id="path240"
             style="fill:#000000;fill-opacity:1;fill-rule:nonzero;stroke:none"
             d="m 0,0 c 0.392,-0.429 0.588,-0.958 0.588,-1.59 0,-0.488 -0.128,-0.938 -0.384,-1.35 -0.257,-0.413 -0.646,-0.743 -1.17,-0.991 -0.524,-0.247 -1.166,-0.371 -1.927,-0.371 -0.591,0 -1.173,0.077 -1.746,0.234 -0.571,0.156 -1.057,0.378 -1.458,0.666 l 0.757,1.488 c 0.319,-0.24 0.69,-0.426 1.11,-0.559 0.419,-0.131 0.85,-0.197 1.29,-0.197 0.488,0 0.872,0.094 1.152,0.281 0.28,0.189 0.42,0.454 0.42,0.799 0,0.688 -0.525,1.031 -1.572,1.031 h -0.888 v 1.285 l 1.727,1.956 h -3.575 v 1.56 h 5.88 V 2.981 L -1.692,0.822 C -0.956,0.702 -0.393,0.428 0,0" /></g><g
           transform="translate(346.6152,12.2563)"
           id="g242"><path
             id="path244"
             style="fill:#000000;fill-opacity:1;fill-rule:nonzero;stroke:none"
             d="m 0,0 v -8.4 h -1.943 v 6.839 H -3.624 V 0 Z" /></g><g
           transform="translate(354.3555,5.4399)"
           id="g246"><path
             id="path248"
             style="fill:#000000;fill-opacity:1;fill-rule:nonzero;stroke:none"
             d="m 0,0 v -1.584 h -6.348 v 1.26 l 3.241,3.06 c 0.343,0.327 0.575,0.61 0.695,0.846 0.12,0.236 0.18,0.47 0.18,0.702 0,0.336 -0.114,0.594 -0.342,0.774 -0.229,0.18 -0.563,0.27 -1.002,0.27 -0.368,0 -0.7,-0.07 -0.996,-0.21 -0.296,-0.14 -0.544,-0.35 -0.744,-0.63 L -6.732,5.4 c 0.328,0.488 0.78,0.87 1.356,1.146 0.575,0.276 1.235,0.414 1.98,0.414 0.625,0 1.169,-0.102 1.638,-0.306 0.468,-0.204 0.832,-0.492 1.092,-0.864 0.26,-0.372 0.39,-0.81 0.39,-1.314 0,-0.456 -0.096,-0.884 -0.288,-1.284 C -0.756,2.792 -1.128,2.336 -1.68,1.824 L -3.612,0 Z" /></g><g
           transform="translate(318.2891,12.2563)"
           id="g250"><path
             id="path252"
             style="fill:#000000;fill-opacity:1;fill-rule:nonzero;stroke:none"
             d="m 0,0 v -8.4 h -1.943 v 6.839 h -1.68 V 0 Z" /></g><g
           transform="translate(322.9941,12.2563)"
           id="g254"><path
             id="path256"
             style="fill:#000000;fill-opacity:1;fill-rule:nonzero;stroke:none"
             d="m 0,0 v -8.4 h -1.944 v 6.839 H -3.625 V 0 Z" /></g><g
           transform="translate(289.9648,12.3998)"
           id="g258"><path
             id="path260"
             style="fill:#000000;fill-opacity:1;fill-rule:nonzero;stroke:none"
             d="m 0,0 v -8.4 h -1.944 v 6.839 H -3.625 V 0 Z" /></g><g
           transform="translate(296.2344,6.1596)"
           id="g262"><path
             id="path264"
             style="fill:#000000;fill-opacity:1;fill-rule:nonzero;stroke:none"
             d="M 0,0 C 0.292,0.439 0.437,1.12 0.437,2.04 0.437,2.96 0.292,3.64 0,4.08 -0.292,4.52 -0.693,4.74 -1.206,4.74 -1.71,4.74 -2.107,4.52 -2.4,4.08 -2.691,3.64 -2.838,2.96 -2.838,2.04 -2.838,1.12 -2.691,0.439 -2.4,0 c 0.293,-0.44 0.69,-0.66 1.194,-0.66 0.513,0 0.914,0.22 1.206,0.66 m -3.066,-1.788 c -0.543,0.344 -0.97,0.842 -1.278,1.494 -0.308,0.651 -0.463,1.43 -0.463,2.334 0,0.903 0.155,1.682 0.463,2.334 0.308,0.651 0.735,1.149 1.278,1.494 0.545,0.344 1.164,0.516 1.86,0.516 0.696,0 1.315,-0.172 1.86,-0.516 C 1.198,5.523 1.624,5.025 1.932,4.374 2.24,3.722 2.395,2.943 2.395,2.04 2.395,1.136 2.24,0.357 1.932,-0.294 1.624,-0.946 1.198,-1.444 0.654,-1.788 0.109,-2.132 -0.51,-2.304 -1.206,-2.304 c -0.696,0 -1.315,0.172 -1.86,0.516" /></g><g
           transform="translate(262.5327,8.9379)"
           id="g266"><path
             id="path268"
             style="fill:#000000;fill-opacity:1;fill-rule:nonzero;stroke:none"
             d="m 0,0 c 0.268,0.235 0.402,0.537 0.402,0.905 0,0.368 -0.13,0.668 -0.39,0.901 -0.26,0.231 -0.618,0.347 -1.074,0.347 -0.416,0 -0.754,-0.112 -1.014,-0.336 -0.26,-0.223 -0.39,-0.528 -0.39,-0.912 0,-0.384 0.13,-0.689 0.39,-0.918 0.26,-0.227 0.606,-0.341 1.038,-0.341 0.424,0 0.77,0.118 1.038,0.354 M 1.578,2.531 C 2.242,1.815 2.574,0.785 2.574,-0.559 2.574,-1.511 2.396,-2.326 2.04,-3.007 1.684,-3.687 1.182,-4.202 0.534,-4.555 -0.114,-4.906 -0.862,-5.082 -1.71,-5.082 c -0.448,0 -0.876,0.05 -1.284,0.149 -0.408,0.1 -0.756,0.243 -1.044,0.426 l 0.72,1.429 c 0.408,-0.28 0.932,-0.42 1.572,-0.42 0.712,0 1.276,0.21 1.692,0.63 0.416,0.42 0.64,1.025 0.672,1.817 -0.504,-0.504 -1.2,-0.756 -2.088,-0.756 -0.536,0 -1.024,0.109 -1.464,0.325 -0.44,0.215 -0.788,0.521 -1.044,0.918 -0.256,0.395 -0.384,0.853 -0.384,1.374 0,0.559 0.14,1.051 0.42,1.475 0.28,0.424 0.662,0.75 1.146,0.979 0.484,0.227 1.022,0.341 1.614,0.341 1.176,0 2.096,-0.358 2.76,-1.074" /></g><g
           transform="translate(232.6104,10.8334)"
           id="g270"><path
             id="path272"
             style="fill:#000000;fill-opacity:1;fill-rule:nonzero;stroke:none"
             d="m 0,0 c -0.236,-0.188 -0.354,-0.446 -0.354,-0.774 0,-0.32 0.116,-0.572 0.348,-0.756 0.232,-0.184 0.548,-0.276 0.948,-0.276 0.4,0 0.72,0.092 0.96,0.276 0.24,0.184 0.36,0.436 0.36,0.756 0,0.328 -0.12,0.586 -0.36,0.774 C 1.662,0.187 1.342,0.282 0.942,0.282 0.55,0.282 0.236,0.187 0,0 m 2.1,-5.22 c 0.284,0.22 0.426,0.514 0.426,0.882 0,0.368 -0.142,0.66 -0.426,0.876 -0.284,0.216 -0.67,0.324 -1.158,0.324 -0.48,0 -0.86,-0.108 -1.14,-0.324 -0.28,-0.216 -0.42,-0.508 -0.42,-0.876 0,-0.376 0.14,-0.672 0.42,-0.888 0.28,-0.216 0.66,-0.324 1.14,-0.324 0.488,0 0.874,0.11 1.158,0.33 m 2.064,1.986 c 0.22,-0.336 0.33,-0.724 0.33,-1.164 0,-0.52 -0.148,-0.974 -0.444,-1.362 -0.296,-0.388 -0.712,-0.688 -1.248,-0.9 -0.536,-0.212 -1.156,-0.318 -1.86,-0.318 -0.704,0 -1.322,0.106 -1.854,0.318 -0.532,0.212 -0.944,0.512 -1.236,0.9 -0.292,0.388 -0.438,0.842 -0.438,1.362 0,0.44 0.11,0.828 0.33,1.164 0.22,0.336 0.534,0.608 0.942,0.816 -0.312,0.192 -0.552,0.434 -0.72,0.726 -0.168,0.292 -0.252,0.626 -0.252,1.002 0,0.488 0.136,0.912 0.408,1.272 0.272,0.36 0.652,0.638 1.14,0.834 C -0.25,1.612 0.31,1.71 0.942,1.71 1.582,1.71 2.148,1.612 2.64,1.416 3.132,1.22 3.514,0.942 3.786,0.582 4.058,0.222 4.194,-0.202 4.194,-0.69 4.194,-1.066 4.11,-1.4 3.942,-1.692 3.774,-1.984 3.53,-2.226 3.21,-2.418 3.626,-2.626 3.944,-2.898 4.164,-3.234" /></g><g
           transform="translate(208.3232,12.2563)"
           id="g274"><path
             id="path276"
             style="fill:#000000;fill-opacity:1;fill-rule:nonzero;stroke:none"
             d="M 0,0 V -1.261 L -3.12,-8.4 h -2.112 l 3.012,6.816 H -5.004 V -2.952 H -6.732 V 0 Z" /></g><g
           transform="translate(178.0835,5.643)"
           id="g278"><path
             id="path280"
             style="fill:#000000;fill-opacity:1;fill-rule:nonzero;stroke:none"
             d="M 0,0 C 0.26,0.225 0.39,0.528 0.39,0.912 0.39,1.297 0.26,1.603 0,1.83 -0.26,2.059 -0.606,2.173 -1.038,2.173 -1.462,2.173 -1.81,2.055 -2.082,1.818 -2.354,1.582 -2.49,1.28 -2.49,0.912 c 0,-0.368 0.132,-0.668 0.396,-0.899 0.264,-0.233 0.624,-0.349 1.08,-0.349 0.416,0 0.754,0.112 1.014,0.336 M 0.846,3.301 C 1.286,3.084 1.634,2.778 1.89,2.383 2.146,1.986 2.274,1.528 2.274,1.009 c 0,-0.561 -0.14,-1.053 -0.42,-1.477 -0.28,-0.424 -0.662,-0.75 -1.146,-0.977 -0.484,-0.229 -1.022,-0.342 -1.614,-0.342 -1.176,0 -2.096,0.359 -2.76,1.079 -0.664,0.721 -0.996,1.748 -0.996,3.084 0,0.952 0.18,1.769 0.54,2.448 0.36,0.68 0.862,1.197 1.506,1.548 C -1.972,6.725 -1.226,6.9 -0.378,6.9 0.07,6.9 0.5,6.851 0.912,6.75 1.324,6.65 1.674,6.509 1.962,6.324 L 1.242,4.896 c -0.416,0.281 -0.94,0.42 -1.572,0.42 -0.712,0 -1.276,-0.208 -1.692,-0.624 -0.416,-0.416 -0.64,-1.019 -0.672,-1.811 0.496,0.495 1.188,0.743 2.076,0.743 0.536,0 1.024,-0.107 1.464,-0.323" /></g><g
           transform="translate(150.5981,8.5356)"
           id="g282"><path
             id="path284"
             style="fill:#000000;fill-opacity:1;fill-rule:nonzero;stroke:none"
             d="m 0,0 c 0.564,-0.473 0.846,-1.104 0.846,-1.896 0,-0.512 -0.128,-0.978 -0.384,-1.398 -0.256,-0.42 -0.647,-0.756 -1.17,-1.008 -0.524,-0.252 -1.17,-0.378 -1.938,-0.378 -0.592,0 -1.174,0.077 -1.746,0.234 -0.572,0.156 -1.058,0.378 -1.458,0.666 l 0.768,1.488 c 0.32,-0.24 0.688,-0.426 1.104,-0.559 0.415,-0.131 0.844,-0.197 1.284,-0.197 0.487,0 0.872,0.096 1.152,0.288 0.28,0.192 0.42,0.46 0.42,0.804 0,0.36 -0.146,0.632 -0.438,0.816 -0.293,0.184 -0.798,0.276 -1.518,0.276 h -2.148 l 0.432,4.728 H 0.33 V 2.304 H -3.174 L -3.306,0.708 h 0.684 C -1.438,0.708 -0.564,0.472 0,0" /></g><g
           transform="translate(124.4629,5.6196)"
           id="g286"><path
             id="path288"
             style="fill:#000000;fill-opacity:1;fill-rule:nonzero;stroke:none"
             d="M 0,0 H -1.368 V -1.764 H -3.264 V 0 h -4.524 v 1.309 l 3.96,5.328 h 2.04 L -5.46,1.584 h 2.256 v 1.572 h 1.836 V 1.584 l 1.368,0 z" /></g><g
           transform="translate(94.061,8.1577)"
           id="g290"><path
             id="path292"
             style="fill:#000000;fill-opacity:1;fill-rule:nonzero;stroke:none"
             d="m 0,0 c 0.392,-0.429 0.588,-0.958 0.588,-1.59 0,-0.488 -0.128,-0.938 -0.384,-1.35 -0.256,-0.413 -0.646,-0.743 -1.17,-0.991 -0.524,-0.247 -1.166,-0.371 -1.926,-0.371 -0.592,0 -1.174,0.077 -1.746,0.234 -0.572,0.156 -1.058,0.378 -1.458,0.666 l 0.756,1.488 c 0.32,-0.24 0.69,-0.426 1.11,-0.559 0.42,-0.131 0.85,-0.197 1.29,-0.197 0.488,0 0.872,0.094 1.152,0.281 0.28,0.189 0.42,0.454 0.42,0.799 0,0.688 -0.524,1.031 -1.572,1.031 H -3.828 V 0.726 L -2.1,2.682 h -3.576 v 1.56 h 5.88 V 2.981 L -1.692,0.822 C -0.956,0.702 -0.392,0.428 0,0" /></g><g
           transform="translate(66.395,5.4399)"
           id="g294"><path
             id="path296"
             style="fill:#000000;fill-opacity:1;fill-rule:nonzero;stroke:none"
             d="m 0,0 v -1.584 h -6.348 v 1.26 l 3.24,3.06 c 0.344,0.327 0.576,0.61 0.696,0.846 0.12,0.236 0.18,0.47 0.18,0.702 0,0.336 -0.114,0.594 -0.342,0.774 -0.228,0.18 -0.562,0.27 -1.002,0.27 -0.368,0 -0.7,-0.07 -0.996,-0.21 -0.296,-0.14 -0.544,-0.35 -0.744,-0.63 L -6.732,5.4 c 0.328,0.488 0.78,0.87 1.356,1.146 0.576,0.276 1.236,0.414 1.98,0.414 0.624,0 1.17,-0.102 1.638,-0.306 0.468,-0.204 0.832,-0.492 1.092,-0.864 0.26,-0.372 0.39,-0.81 0.39,-1.314 0,-0.456 -0.096,-0.884 -0.288,-1.284 C -0.756,2.792 -1.128,2.336 -1.68,1.824 L -3.612,0 Z" /></g><g
           transform="translate(35.0337,12.2563)"
           id="g298"><path
             id="path300"
             style="fill:#000000;fill-opacity:1;fill-rule:nonzero;stroke:none"
             d="m 0,0 v -8.4 h -1.944 v 6.839 h -1.68 V 0 Z" /></g><g
           transform="translate(8.2739,6.1596)"
           id="g302"><path
             id="path304"
             style="fill:#000000;fill-opacity:1;fill-rule:nonzero;stroke:none"
             d="M 0,0 C 0.292,0.439 0.438,1.12 0.438,2.04 0.438,2.96 0.292,3.64 0,4.08 -0.292,4.52 -0.694,4.74 -1.206,4.74 -1.71,4.74 -2.108,4.52 -2.4,4.08 -2.692,3.64 -2.838,2.96 -2.838,2.04 -2.838,1.12 -2.692,0.439 -2.4,0 c 0.292,-0.44 0.69,-0.66 1.194,-0.66 0.512,0 0.914,0.22 1.206,0.66 m -3.066,-1.788 c -0.544,0.344 -0.97,0.842 -1.278,1.494 -0.308,0.651 -0.462,1.43 -0.462,2.334 0,0.903 0.154,1.682 0.462,2.334 0.308,0.651 0.734,1.149 1.278,1.494 0.544,0.344 1.164,0.516 1.86,0.516 0.696,0 1.316,-0.172 1.86,-0.516 C 1.198,5.523 1.624,5.025 1.932,4.374 2.24,3.722 2.394,2.943 2.394,2.04 2.394,1.136 2.24,0.357 1.932,-0.294 1.624,-0.946 1.198,-1.444 0.654,-1.788 0.11,-2.132 -0.51,-2.304 -1.206,-2.304 c -0.696,0 -1.316,0.172 -1.86,0.516" /></g><g
           transform="translate(8.2432,551.2558)"
           id="g306"><path
             id="path308"
             style="fill:#000000;fill-opacity:1;fill-rule:nonzero;stroke:none"
             d="m 0,0 v -8.4 h -1.944 v 6.839 h -1.68 V 0 Z" /></g><g
           transform="translate(13.8413,547.7939)"
           id="g310"><path
             id="path312"
             style="fill:#000000;fill-opacity:1;fill-rule:nonzero;stroke:none"
             d="m 0,0 c 0.268,0.235 0.402,0.537 0.402,0.905 0,0.368 -0.13,0.668 -0.39,0.901 -0.26,0.231 -0.618,0.347 -1.074,0.347 -0.416,0 -0.754,-0.112 -1.014,-0.336 -0.26,-0.223 -0.39,-0.528 -0.39,-0.912 0,-0.384 0.13,-0.689 0.39,-0.918 0.26,-0.227 0.606,-0.341 1.038,-0.341 0.424,0 0.77,0.118 1.038,0.354 M 1.578,2.531 C 2.242,1.815 2.574,0.785 2.574,-0.559 2.574,-1.511 2.396,-2.326 2.04,-3.007 1.684,-3.687 1.182,-4.202 0.534,-4.555 -0.114,-4.906 -0.862,-5.082 -1.71,-5.082 c -0.448,0 -0.876,0.05 -1.284,0.149 -0.408,0.1 -0.756,0.243 -1.044,0.426 l 0.72,1.429 c 0.408,-0.28 0.932,-0.42 1.572,-0.42 0.712,0 1.276,0.21 1.692,0.63 0.416,0.42 0.64,1.025 0.672,1.817 -0.504,-0.504 -1.2,-0.756 -2.088,-0.756 -0.536,0 -1.024,0.109 -1.464,0.325 -0.44,0.215 -0.788,0.521 -1.044,0.918 -0.256,0.395 -0.384,0.853 -0.384,1.374 0,0.559 0.14,1.051 0.42,1.475 0.28,0.424 0.662,0.75 1.146,0.979 0.484,0.227 1.022,0.341 1.614,0.341 1.176,0 2.096,-0.358 2.76,-1.074" /></g><g
           transform="translate(8.2432,522.895)"
           id="g314"><path
             id="path316"
             style="fill:#000000;fill-opacity:1;fill-rule:nonzero;stroke:none"
             d="m 0,0 v -8.4 h -1.944 v 6.839 h -1.68 V 0 Z" /></g><g
           transform="translate(12.2451,521.3286)"
           id="g318"><path
             id="path320"
             style="fill:#000000;fill-opacity:1;fill-rule:nonzero;stroke:none"
             d="m 0,0 c -0.236,-0.188 -0.354,-0.446 -0.354,-0.774 0,-0.32 0.116,-0.572 0.348,-0.756 0.232,-0.184 0.548,-0.276 0.948,-0.276 0.4,0 0.72,0.092 0.96,0.276 0.24,0.184 0.36,0.436 0.36,0.756 0,0.328 -0.12,0.586 -0.36,0.774 C 1.662,0.187 1.342,0.282 0.942,0.282 0.55,0.282 0.236,0.187 0,0 m 2.1,-5.22 c 0.284,0.22 0.426,0.514 0.426,0.882 0,0.368 -0.142,0.66 -0.426,0.876 -0.284,0.216 -0.67,0.324 -1.158,0.324 -0.48,0 -0.86,-0.108 -1.14,-0.324 -0.28,-0.216 -0.42,-0.508 -0.42,-0.876 0,-0.376 0.14,-0.672 0.42,-0.888 0.28,-0.216 0.66,-0.324 1.14,-0.324 0.488,0 0.874,0.11 1.158,0.33 m 2.064,1.986 c 0.22,-0.336 0.33,-0.724 0.33,-1.164 0,-0.52 -0.148,-0.974 -0.444,-1.362 -0.296,-0.388 -0.712,-0.688 -1.248,-0.9 -0.536,-0.212 -1.156,-0.318 -1.86,-0.318 -0.704,0 -1.322,0.106 -1.854,0.318 -0.532,0.212 -0.944,0.512 -1.236,0.9 -0.292,0.388 -0.438,0.842 -0.438,1.362 0,0.44 0.11,0.828 0.33,1.164 0.22,0.336 0.534,0.608 0.942,0.816 -0.312,0.192 -0.552,0.434 -0.72,0.726 -0.168,0.292 -0.252,0.626 -0.252,1.002 0,0.488 0.136,0.912 0.408,1.272 0.272,0.36 0.652,0.638 1.14,0.834 C -0.25,1.612 0.31,1.71 0.942,1.71 1.582,1.71 2.148,1.612 2.64,1.416 3.132,1.22 3.514,0.942 3.786,0.582 4.058,0.222 4.194,-0.202 4.194,-0.69 4.194,-1.066 4.11,-1.4 3.942,-1.692 3.774,-1.984 3.53,-2.226 3.21,-2.418 3.626,-2.626 3.944,-2.898 4.164,-3.234" /></g><g
           transform="translate(8.2432,494.5341)"
           id="g322"><path
             id="path324"
             style="fill:#000000;fill-opacity:1;fill-rule:nonzero;stroke:none"
             d="m 0,0 v -8.4 h -1.944 v 6.839 h -1.68 V 0 Z" /></g><g
           transform="translate(16.2832,494.5341)"
           id="g326"><path
             id="path328"
             style="fill:#000000;fill-opacity:1;fill-rule:nonzero;stroke:none"
             d="M 0,0 V -1.261 L -3.12,-8.4 h -2.112 l 3.012,6.816 H -5.004 V -2.952 H -6.732 V 0 Z" /></g><g
           transform="translate(8.2432,466.1733)"
           id="g330"><path
             id="path332"
             style="fill:#000000;fill-opacity:1;fill-rule:nonzero;stroke:none"
             d="m 0,0 v -8.4 h -1.944 v 6.839 h -1.68 V 0 Z" /></g><g
           transform="translate(14.3691,459.4164)"
           id="g334"><path
             id="path336"
             style="fill:#000000;fill-opacity:1;fill-rule:nonzero;stroke:none"
             d="M 0,0 C 0.26,0.225 0.39,0.528 0.39,0.912 0.39,1.297 0.26,1.603 0,1.83 -0.26,2.059 -0.606,2.173 -1.038,2.173 -1.462,2.173 -1.81,2.055 -2.082,1.818 -2.354,1.582 -2.49,1.28 -2.49,0.912 c 0,-0.368 0.132,-0.668 0.396,-0.899 0.264,-0.233 0.624,-0.349 1.08,-0.349 0.416,0 0.754,0.112 1.014,0.336 M 0.846,3.301 C 1.286,3.084 1.634,2.778 1.89,2.383 2.146,1.986 2.274,1.528 2.274,1.009 c 0,-0.561 -0.14,-1.053 -0.42,-1.477 -0.28,-0.424 -0.662,-0.75 -1.146,-0.977 -0.484,-0.229 -1.022,-0.342 -1.614,-0.342 -1.176,0 -2.096,0.359 -2.76,1.079 -0.664,0.721 -0.996,1.748 -0.996,3.084 0,0.952 0.18,1.769 0.54,2.448 0.36,0.68 0.862,1.197 1.506,1.548 C -1.972,6.725 -1.226,6.9 -0.378,6.9 0.07,6.9 0.5,6.851 0.912,6.75 1.324,6.65 1.674,6.509 1.962,6.324 L 1.242,4.896 c -0.416,0.281 -0.94,0.42 -1.572,0.42 -0.712,0 -1.276,-0.208 -1.692,-0.624 -0.416,-0.416 -0.64,-1.019 -0.672,-1.811 0.496,0.495 1.188,0.743 2.076,0.743 0.536,0 1.024,-0.107 1.464,-0.323" /></g><g
           transform="translate(8.2432,437.8124)"
           id="g338"><path
             id="path340"
             style="fill:#000000;fill-opacity:1;fill-rule:nonzero;stroke:none"
             d="m 0,0 v -8.4 h -1.944 v 6.839 h -1.68 V 0 Z" /></g><g
           transform="translate(15.2095,433.9482)"
           id="g342"><path
             id="path344"
             style="fill:#000000;fill-opacity:1;fill-rule:nonzero;stroke:none"
             d="m 0,0 c 0.564,-0.473 0.846,-1.104 0.846,-1.896 0,-0.512 -0.128,-0.978 -0.384,-1.398 -0.256,-0.42 -0.647,-0.756 -1.17,-1.008 -0.524,-0.252 -1.17,-0.378 -1.938,-0.378 -0.592,0 -1.174,0.077 -1.746,0.234 -0.572,0.156 -1.058,0.378 -1.458,0.666 l 0.768,1.488 c 0.32,-0.24 0.688,-0.426 1.104,-0.559 0.415,-0.131 0.844,-0.197 1.284,-0.197 0.487,0 0.872,0.096 1.152,0.288 0.28,0.192 0.42,0.46 0.42,0.804 0,0.36 -0.146,0.632 -0.438,0.816 -0.293,0.184 -0.798,0.276 -1.518,0.276 h -2.148 l 0.432,4.728 H 0.33 V 2.304 H -3.174 L -3.306,0.708 h 0.684 C -1.438,0.708 -0.564,0.472 0,0" /></g><g
           transform="translate(8.2432,409.4516)"
           id="g346"><path
             id="path348"
             style="fill:#000000;fill-opacity:1;fill-rule:nonzero;stroke:none"
             d="m 0,0 v -8.4 h -1.944 v 6.839 h -1.68 V 0 Z" /></g><g
           transform="translate(17.3994,402.8149)"
           id="g350"><path
             id="path352"
             style="fill:#000000;fill-opacity:1;fill-rule:nonzero;stroke:none"
             d="M 0,0 H -1.368 V -1.764 H -3.264 V 0 h -4.524 v 1.309 l 3.96,5.328 h 2.04 L -5.46,1.584 h 2.256 v 1.572 h 1.836 V 1.584 l 1.368,0 z" /></g><g
           transform="translate(8.2432,381.0908)"
           id="g354"><path
             id="path356"
             style="fill:#000000;fill-opacity:1;fill-rule:nonzero;stroke:none"
             d="m 0,0 v -8.4 h -1.944 v 6.839 h -1.68 V 0 Z" /></g><g
           transform="translate(15.3232,376.8486)"
           id="g358"><path
             id="path360"
             style="fill:#000000;fill-opacity:1;fill-rule:nonzero;stroke:none"
             d="m 0,0 c 0.392,-0.429 0.588,-0.958 0.588,-1.59 0,-0.488 -0.128,-0.938 -0.384,-1.35 -0.256,-0.413 -0.646,-0.743 -1.17,-0.991 -0.524,-0.247 -1.166,-0.371 -1.926,-0.371 -0.592,0 -1.174,0.077 -1.746,0.234 -0.572,0.156 -1.058,0.378 -1.458,0.666 l 0.756,1.488 c 0.32,-0.24 0.69,-0.426 1.11,-0.559 0.42,-0.131 0.85,-0.197 1.29,-0.197 0.488,0 0.872,0.094 1.152,0.281 0.28,0.189 0.42,0.454 0.42,0.799 0,0.688 -0.524,1.031 -1.572,1.031 H -3.828 V 0.726 L -2.1,2.682 h -3.576 v 1.56 h 5.88 V 2.981 L -1.692,0.822 C -0.956,0.702 -0.392,0.428 0,0" /></g><g
           transform="translate(8.2432,352.7299)"
           id="g362"><path
             id="path364"
             style="fill:#000000;fill-opacity:1;fill-rule:nonzero;stroke:none"
             d="m 0,0 v -8.4 h -1.944 v 6.839 h -1.68 V 0 Z" /></g><g
           transform="translate(15.9834,345.9135)"
           id="g366"><path
             id="path368"
             style="fill:#000000;fill-opacity:1;fill-rule:nonzero;stroke:none"
             d="m 0,0 v -1.584 h -6.348 v 1.26 l 3.24,3.06 c 0.344,0.327 0.576,0.61 0.696,0.846 0.12,0.236 0.18,0.47 0.18,0.702 0,0.336 -0.114,0.594 -0.342,0.774 -0.228,0.18 -0.562,0.27 -1.002,0.27 -0.368,0 -0.7,-0.07 -0.996,-0.21 -0.296,-0.14 -0.544,-0.35 -0.744,-0.63 L -6.732,5.4 c 0.328,0.488 0.78,0.87 1.356,1.146 0.576,0.276 1.236,0.414 1.98,0.414 0.624,0 1.17,-0.102 1.638,-0.306 0.468,-0.204 0.832,-0.492 1.092,-0.864 0.26,-0.372 0.39,-0.81 0.39,-1.314 0,-0.456 -0.096,-0.884 -0.288,-1.284 C -0.756,2.792 -1.128,2.336 -1.68,1.824 L -3.612,0 Z" /></g><g
           transform="translate(8.2432,324.3691)"
           id="g370"><path
             id="path372"
             style="fill:#000000;fill-opacity:1;fill-rule:nonzero;stroke:none"
             d="m 0,0 v -8.4 h -1.944 v 6.839 h -1.68 V 0 Z" /></g><g
           transform="translate(12.9473,324.3691)"
           id="g374"><path
             id="path376"
             style="fill:#000000;fill-opacity:1;fill-rule:nonzero;stroke:none"
             d="m 0,0 v -8.4 h -1.944 v 6.839 h -1.68 V 0 Z" /></g><g
           transform="translate(8.2432,296.0082)"
           id="g378"><path
             id="path380"
             style="fill:#000000;fill-opacity:1;fill-rule:nonzero;stroke:none"
             d="m 0,0 v -8.4 h -1.944 v 6.839 h -1.68 V 0 Z" /></g><g
           transform="translate(14.5132,289.768)"
           id="g382"><path
             id="path384"
             style="fill:#000000;fill-opacity:1;fill-rule:nonzero;stroke:none"
             d="M 0,0 C 0.292,0.439 0.438,1.12 0.438,2.04 0.438,2.96 0.292,3.64 0,4.08 -0.292,4.52 -0.694,4.74 -1.206,4.74 -1.71,4.74 -2.108,4.52 -2.4,4.08 -2.692,3.64 -2.838,2.96 -2.838,2.04 -2.838,1.12 -2.692,0.439 -2.4,0 c 0.292,-0.44 0.69,-0.66 1.194,-0.66 0.512,0 0.914,0.22 1.206,0.66 m -3.066,-1.788 c -0.544,0.344 -0.97,0.842 -1.278,1.494 -0.308,0.651 -0.462,1.43 -0.462,2.334 0,0.903 0.154,1.682 0.462,2.334 0.308,0.651 0.734,1.149 1.278,1.494 0.544,0.344 1.164,0.516 1.86,0.516 0.696,0 1.316,-0.172 1.86,-0.516 C 1.198,5.523 1.624,5.025 1.932,4.374 2.24,3.722 2.394,2.943 2.394,2.04 2.394,1.136 2.24,0.357 1.932,-0.294 1.624,-0.946 1.198,-1.444 0.654,-1.788 0.11,-2.132 -0.51,-2.304 -1.206,-2.304 c -0.696,0 -1.316,0.172 -1.86,0.516" /></g><g
           transform="translate(9.1372,264.185)"
           id="g386"><path
             id="path388"
             style="fill:#000000;fill-opacity:1;fill-rule:nonzero;stroke:none"
             d="m 0,0 c 0.268,0.235 0.402,0.537 0.402,0.905 0,0.368 -0.13,0.668 -0.39,0.901 -0.26,0.231 -0.618,0.347 -1.074,0.347 -0.416,0 -0.754,-0.112 -1.014,-0.336 -0.26,-0.223 -0.39,-0.528 -0.39,-0.912 0,-0.384 0.13,-0.689 0.39,-0.918 0.26,-0.227 0.606,-0.341 1.038,-0.341 0.424,0 0.77,0.118 1.038,0.354 M 1.578,2.531 C 2.242,1.815 2.574,0.785 2.574,-0.559 2.574,-1.511 2.396,-2.326 2.04,-3.007 1.684,-3.687 1.182,-4.202 0.534,-4.555 -0.114,-4.906 -0.862,-5.082 -1.71,-5.082 c -0.448,0 -0.876,0.05 -1.284,0.149 -0.408,0.1 -0.756,0.243 -1.044,0.426 l 0.72,1.429 c 0.408,-0.28 0.932,-0.42 1.572,-0.42 0.712,0 1.276,0.21 1.692,0.63 0.416,0.42 0.64,1.025 0.672,1.817 -0.504,-0.504 -1.2,-0.756 -2.088,-0.756 -0.536,0 -1.024,0.109 -1.464,0.325 -0.44,0.215 -0.788,0.521 -1.044,0.918 -0.256,0.395 -0.384,0.853 -0.384,1.374 0,0.559 0.14,1.051 0.42,1.475 0.28,0.424 0.662,0.75 1.146,0.979 0.484,0.227 1.022,0.341 1.614,0.341 1.176,0 2.096,-0.358 2.76,-1.074" /></g><g
           transform="translate(7.541,237.7202)"
           id="g390"><path
             id="path392"
             style="fill:#000000;fill-opacity:1;fill-rule:nonzero;stroke:none"
             d="m 0,0 c -0.236,-0.188 -0.354,-0.446 -0.354,-0.774 0,-0.32 0.116,-0.572 0.348,-0.756 0.232,-0.184 0.548,-0.276 0.948,-0.276 0.4,0 0.72,0.092 0.96,0.276 0.24,0.184 0.36,0.436 0.36,0.756 0,0.328 -0.12,0.586 -0.36,0.774 C 1.662,0.187 1.342,0.282 0.942,0.282 0.55,0.282 0.236,0.187 0,0 m 2.1,-5.22 c 0.284,0.22 0.426,0.514 0.426,0.882 0,0.368 -0.142,0.66 -0.426,0.876 -0.284,0.216 -0.67,0.324 -1.158,0.324 -0.48,0 -0.86,-0.108 -1.14,-0.324 -0.28,-0.216 -0.42,-0.508 -0.42,-0.876 0,-0.376 0.14,-0.672 0.42,-0.888 0.28,-0.216 0.66,-0.324 1.14,-0.324 0.488,0 0.874,0.11 1.158,0.33 m 2.064,1.986 c 0.22,-0.336 0.33,-0.724 0.33,-1.164 0,-0.52 -0.148,-0.974 -0.444,-1.362 -0.296,-0.388 -0.712,-0.688 -1.248,-0.9 -0.536,-0.212 -1.156,-0.318 -1.86,-0.318 -0.704,0 -1.322,0.106 -1.854,0.318 -0.532,0.212 -0.944,0.512 -1.236,0.9 -0.292,0.388 -0.438,0.842 -0.438,1.362 0,0.44 0.11,0.828 0.33,1.164 0.22,0.336 0.534,0.608 0.942,0.816 -0.312,0.192 -0.552,0.434 -0.72,0.726 -0.168,0.292 -0.252,0.626 -0.252,1.002 0,0.488 0.136,0.912 0.408,1.272 0.272,0.36 0.652,0.638 1.14,0.834 C -0.25,1.612 0.31,1.71 0.942,1.71 1.582,1.71 2.148,1.612 2.64,1.416 3.132,1.22 3.514,0.942 3.786,0.582 4.058,0.222 4.194,-0.202 4.194,-0.69 4.194,-1.066 4.11,-1.4 3.942,-1.692 3.774,-1.984 3.53,-2.226 3.21,-2.418 3.626,-2.626 3.944,-2.898 4.164,-3.234" /></g><g
           transform="translate(11.5791,210.9262)"
           id="g394"><path
             id="path396"
             style="fill:#000000;fill-opacity:1;fill-rule:nonzero;stroke:none"
             d="M 0,0 V -1.261 L -3.12,-8.4 h -2.112 l 3.012,6.816 H -5.004 V -2.952 H -6.732 V 0 Z" /></g><g
           transform="translate(9.665,175.808)"
           id="g398"><path
             id="path400"
             style="fill:#000000;fill-opacity:1;fill-rule:nonzero;stroke:none"
             d="M 0,0 C 0.26,0.225 0.39,0.528 0.39,0.912 0.39,1.297 0.26,1.603 0,1.83 -0.26,2.059 -0.606,2.173 -1.038,2.173 -1.462,2.173 -1.81,2.055 -2.082,1.818 -2.354,1.582 -2.49,1.28 -2.49,0.912 c 0,-0.368 0.132,-0.668 0.396,-0.899 0.264,-0.233 0.624,-0.349 1.08,-0.349 0.416,0 0.754,0.112 1.014,0.336 M 0.846,3.301 C 1.286,3.084 1.634,2.778 1.89,2.383 2.146,1.986 2.274,1.528 2.274,1.009 c 0,-0.561 -0.14,-1.053 -0.42,-1.477 -0.28,-0.424 -0.662,-0.75 -1.146,-0.977 -0.484,-0.229 -1.022,-0.342 -1.614,-0.342 -1.176,0 -2.096,0.359 -2.76,1.079 -0.664,0.721 -0.996,1.748 -0.996,3.084 0,0.952 0.18,1.769 0.54,2.448 0.36,0.68 0.862,1.197 1.506,1.548 C -1.972,6.725 -1.226,6.9 -0.378,6.9 0.07,6.9 0.5,6.851 0.912,6.75 1.324,6.65 1.674,6.509 1.962,6.324 L 1.242,4.896 c -0.416,0.281 -0.94,0.42 -1.572,0.42 -0.712,0 -1.276,-0.208 -1.692,-0.624 -0.416,-0.416 -0.64,-1.019 -0.672,-1.811 0.496,0.495 1.188,0.743 2.076,0.743 0.536,0 1.024,-0.107 1.464,-0.323" /></g><g
           transform="translate(10.5054,150.3403)"
           id="g402"><path
             id="path404"
             style="fill:#000000;fill-opacity:1;fill-rule:nonzero;stroke:none"
             d="m 0,0 c 0.564,-0.473 0.846,-1.104 0.846,-1.896 0,-0.512 -0.128,-0.978 -0.384,-1.398 -0.256,-0.42 -0.647,-0.756 -1.17,-1.008 -0.524,-0.252 -1.17,-0.378 -1.938,-0.378 -0.592,0 -1.174,0.077 -1.746,0.234 -0.572,0.156 -1.058,0.378 -1.458,0.666 l 0.768,1.488 c 0.32,-0.24 0.688,-0.426 1.104,-0.559 0.415,-0.131 0.844,-0.197 1.284,-0.197 0.487,0 0.872,0.096 1.152,0.288 0.28,0.192 0.42,0.46 0.42,0.804 0,0.36 -0.146,0.632 -0.438,0.816 -0.293,0.184 -0.798,0.276 -1.518,0.276 h -2.148 l 0.432,4.728 H 0.33 V 2.304 H -3.174 L -3.306,0.708 h 0.684 C -1.438,0.708 -0.564,0.472 0,0" /></g><g
           transform="translate(12.6953,119.2065)"
           id="g406"><path
             id="path408"
             style="fill:#000000;fill-opacity:1;fill-rule:nonzero;stroke:none"
             d="M 0,0 H -1.368 V -1.764 H -3.264 V 0 h -4.524 v 1.309 l 3.96,5.328 h 2.04 L -5.46,1.584 h 2.256 v 1.572 h 1.836 V 1.584 l 1.368,0 z" /></g><g
           transform="translate(10.6309,93.2407)"
           id="g410"><path
             id="path412"
             style="fill:#000000;fill-opacity:1;fill-rule:nonzero;stroke:none"
             d="m 0,0 c 0.392,-0.429 0.588,-0.958 0.588,-1.59 0,-0.488 -0.128,-0.938 -0.384,-1.35 -0.256,-0.413 -0.646,-0.743 -1.17,-0.991 -0.524,-0.247 -1.166,-0.371 -1.926,-0.371 -0.592,0 -1.174,0.077 -1.746,0.234 -0.572,0.156 -1.058,0.378 -1.458,0.666 l 0.756,1.488 c 0.32,-0.24 0.69,-0.426 1.11,-0.559 0.42,-0.131 0.85,-0.197 1.29,-0.197 0.488,0 0.872,0.094 1.152,0.281 0.28,0.189 0.42,0.454 0.42,0.799 0,0.688 -0.524,1.031 -1.572,1.031 H -3.828 V 0.726 L -2.1,2.682 h -3.576 v 1.56 h 5.88 V 2.981 L -1.692,0.822 C -0.956,0.702 -0.392,0.428 0,0" /></g><g
           transform="translate(11.2793,62.3051)"
           id="g414"><path
             id="path416"
             style="fill:#000000;fill-opacity:1;fill-rule:nonzero;stroke:none"
             d="m 0,0 v -1.584 h -6.348 v 1.26 l 3.24,3.06 c 0.344,0.327 0.576,0.61 0.696,0.846 0.12,0.236 0.18,0.47 0.18,0.702 0,0.336 -0.114,0.594 -0.342,0.774 -0.228,0.18 -0.562,0.27 -1.002,0.27 -0.368,0 -0.7,-0.07 -0.996,-0.21 -0.296,-0.14 -0.544,-0.35 -0.744,-0.63 L -6.732,5.4 c 0.328,0.488 0.78,0.87 1.356,1.146 0.576,0.276 1.236,0.414 1.98,0.414 0.624,0 1.17,-0.102 1.638,-0.306 0.468,-0.204 0.832,-0.492 1.092,-0.864 0.26,-0.372 0.39,-0.81 0.39,-1.314 0,-0.456 -0.096,-0.884 -0.288,-1.284 C -0.756,2.792 -1.128,2.336 -1.68,1.824 L -3.612,0 Z" /></g><g
           transform="translate(8.2432,40.7612)"
           id="g418"><path
             id="path420"
             style="fill:#000000;fill-opacity:1;fill-rule:nonzero;stroke:none"
             d="m 0,0 v -8.4 h -1.944 v 6.839 h -1.68 V 0 Z" /></g><g
           transform="translate(360.5576,170.0786)"
           id="g422"><path
             id="path424"
             style="fill:none;stroke:#0000ff;stroke-width:1;stroke-linecap:butt;stroke-linejoin:miter;stroke-miterlimit:10;stroke-dasharray:none;stroke-opacity:1"
             d="M 0,0 H 206.371" /></g><g
           transform="translate(360.5576,141.7319)"
           id="g426"><path
             id="path428"
             style="fill:none;stroke:#0000ff;stroke-width:1;stroke-linecap:butt;stroke-linejoin:miter;stroke-miterlimit:10;stroke-dasharray:none;stroke-opacity:1"
             d="M 0,0 H 206.371" /></g><g
           transform="translate(360.5576,113.3862)"
           id="g430"><path
             id="path432"
             style="fill:none;stroke:#0000ff;stroke-width:1;stroke-linecap:butt;stroke-linejoin:miter;stroke-miterlimit:10;stroke-dasharray:none;stroke-opacity:1"
             d="M 0,0 H 206.371" /></g><g
           transform="translate(226.7715,0.2182)"
           id="g434"><path
             id="path436"
             style="fill:none;stroke:#0000ff;stroke-width:1;stroke-linecap:butt;stroke-linejoin:miter;stroke-miterlimit:10;stroke-dasharray:none;stroke-opacity:1"
             d="M 0,0 V 106.394" /></g><g
           transform="translate(255.1182,0.2182)"
           id="g438"><path
             id="path440"
             style="fill:none;stroke:#0000ff;stroke-width:1;stroke-linecap:butt;stroke-linejoin:miter;stroke-miterlimit:10;stroke-dasharray:none;stroke-opacity:1"
             d="M 0,0 V 106.394" /></g><g
           transform="translate(283.4644,0.2182)"
           id="g442"><path
             id="path444"
             style="fill:none;stroke:#0000ff;stroke-width:1;stroke-linecap:butt;stroke-linejoin:miter;stroke-miterlimit:10;stroke-dasharray:none;stroke-opacity:1"
             d="M 0,0 V 106.394" /></g><g
           transform="translate(311.8105,0.2182)"
           id="g446"><path
             id="path448"
             style="fill:none;stroke:#0000ff;stroke-width:1;stroke-linecap:butt;stroke-linejoin:miter;stroke-miterlimit:10;stroke-dasharray:none;stroke-opacity:1"
             d="M 0,0 V 106.394" /></g><g
           transform="translate(340.1572,0.2182)"
           id="g450"><path
             id="path452"
             style="fill:none;stroke:#0000ff;stroke-width:1;stroke-linecap:butt;stroke-linejoin:miter;stroke-miterlimit:10;stroke-dasharray:none;stroke-opacity:1"
             d="M 0,0 V 106.394" /></g></g></g><g
       id="g454"><g
         clip-path="url(#clipPath460)"
         id="g456"><g
           transform="translate(237.8726,314.6215)"
           id="g462"><path
             id="path464"
             style="fill:none;stroke:#ff0000;stroke-width:1;stroke-linecap:round;stroke-linejoin:round;stroke-miterlimit:10;stroke-dasharray:none;stroke-opacity:1"
             d="m 0,0 c 0,7.822 6.34,14.163 14.162,14.163 7.822,0 14.162,-6.341 14.162,-14.163 0,-7.821 -6.34,-14.162 -14.162,-14.162 C 6.34,-14.162 0,-7.821 0,0 Z" /></g><g
           transform="translate(300.1865,252.3071)"
           id="g466"><path
             id="path468"
             style="fill:none;stroke:#ff0000;stroke-width:1;stroke-linecap:round;stroke-linejoin:round;stroke-miterlimit:10;stroke-dasharray:none;stroke-opacity:1"
             d="m 0,0 c 0,7.822 6.341,14.163 14.162,14.163 7.822,0 14.162,-6.341 14.162,-14.163 0,-7.821 -6.34,-14.162 -14.162,-14.162 C 6.341,-14.162 0,-7.821 0,0 Z" /></g><g
           transform="translate(129.5308,495.8994)"
           id="g470"><path
             id="path472"
             style="fill:none;stroke:#ff0000;stroke-width:1;stroke-linecap:round;stroke-linejoin:round;stroke-miterlimit:10;stroke-dasharray:none;stroke-opacity:1"
             d="M 0,0 C 0,14.079 11.413,25.492 25.492,25.492 39.571,25.492 50.984,14.079 50.984,0 50.984,-14.079 39.571,-25.492 25.492,-25.492 11.413,-25.492 0,-14.079 0,0 Z" /></g><g
           transform="translate(385.8682,71.0297)"
           id="g474"><path
             id="path476"
             style="fill:none;stroke:#ff0000;stroke-width:1;stroke-linecap:round;stroke-linejoin:round;stroke-miterlimit:10;stroke-dasharray:none;stroke-opacity:1"
             d="M 0,0 C 0,14.079 11.414,25.492 25.492,25.492 39.571,25.492 50.984,14.079 50.984,0 50.984,-14.079 39.571,-25.492 25.492,-25.492 11.414,-25.492 0,-14.079 0,0 Z" /></g><g
           transform="translate(385.8682,495.8994)"
           id="g478"><path
             id="path480"
             style="fill:none;stroke:#ff0000;stroke-width:1;stroke-linecap:round;stroke-linejoin:round;stroke-miterlimit:10;stroke-dasharray:none;stroke-opacity:1"
             d="M 0,0 C 0,14.079 11.414,25.492 25.492,25.492 39.571,25.492 50.984,14.079 50.984,0 50.984,-14.079 39.571,-25.492 25.492,-25.492 11.414,-25.492 0,-14.079 0,0 Z" /></g><g
           transform="translate(129.5308,71.0297)"
           id="g482"><path
             id="path484"
             style="fill:none;stroke:#ff0000;stroke-width:1;stroke-linecap:round;stroke-linejoin:round;stroke-miterlimit:10;stroke-dasharray:none;stroke-opacity:1"
             d="M 0,0 C 0,14.079 11.413,25.492 25.492,25.492 39.571,25.492 50.984,14.079 50.984,0 50.984,-14.079 39.571,-25.492 25.492,-25.492 11.413,-25.492 0,-14.079 0,0 Z" /></g></g></g><g
       id="g486"><g
         clip-path="url(#clipPath492)"
         id="g488"><path
           id="path494"
           style="fill:none;stroke:#ff0000;stroke-width:1;stroke-linecap:round;stroke-linejoin:round;stroke-miterlimit:10;stroke-dasharray:none;stroke-opacity:1"
           d="M -0.01,566.939 H 0 v -0.01 h -0.01 z" /><path
           id="path496"
           style="fill:none;stroke:#ff0000;stroke-width:1;stroke-linecap:round;stroke-linejoin:round;stroke-miterlimit:10;stroke-dasharray:none;stroke-opacity:1"
           d="m 566.939,566.939 h -0.011 v -0.01 h 0.011 z" /><path
           id="path498"
           style="fill:none;stroke:#ff0000;stroke-width:1;stroke-linecap:round;stroke-linejoin:round;stroke-miterlimit:10;stroke-dasharray:none;stroke-opacity:1"
           d="m 566.939,-0.01 h -0.011 v 0.011 h 0.011 z" /><path
           id="path500"
           style="fill:none;stroke:#ff0000;stroke-width:1;stroke-linecap:round;stroke-linejoin:round;stroke-miterlimit:10;stroke-dasharray:none;stroke-opacity:1"
           d="M -0.01,-0.01 H 0 v 0.011 h -0.01 z" /></g></g></g></svg>